<?xml version="1.0" encoding="utf-8"?>
<!-- Generator: Adobe Illustrator 19.0.0, SVG Export Plug-In . SVG Version: 6.00 Build 0)  -->
<svg version="1.1" id="Layer_1" xmlns="http://www.w3.org/2000/svg" xmlns:xlink="http://www.w3.org/1999/xlink" x="0px" y="0px"
	 viewBox="0 0 500 500" style="enable-background:new 0 0 500 500;" xml:space="preserve">
<style type="text/css">
	.st0{opacity:0.15;fill:url(#XMLID_2_);}
	.st1{fill:#DEEAF6;}
	.st2{fill:#2D4E89;}
</style>
<radialGradient id="XMLID_2_" cx="249.9247" cy="257.02" r="265.1666" gradientUnits="userSpaceOnUse">
	<stop  offset="0" style="stop-color:#FFFFFF"/>
	<stop  offset="1" style="stop-color:#000000"/>
</radialGradient>
<rect id="XMLID_179_" x="-0.2" y="79.9" class="st0" width="500.2" height="340.8"/>
<g id="XMLID_322_">
	<path id="XMLID_319_" class="st1" d="M308.1,259.6h-52.7c0,0,9,47.2,21.7,43.8c12.7-3.4,22.2-26,26.4-33.3S308.1,259.6,308.1,259.6
		z"/>
	<path id="XMLID_278_" class="st1" d="M202.8,259.3H249l2.5-18.2c0,0-8.4-44-13.5-66.7c-5.1-22.8-10-33.8-12.8-34.2
		c-2.8-0.5-10.1,24.3-14.4,56.5C205.5,223.2,202.8,259.3,202.8,259.3z"/>
	<path id="XMLID_279_" class="st1" d="M163.6,265.5H201c0,0-2.4,32.8-14.1,34.9c-7.3,0.5-21.1-26.7-21.1-26.7l-3-6.7L163.6,265.5z"
		/>
	<g id="XMLID_318_">
		<path id="XMLID_320_" class="st2" d="M145.4,241.3c6.9-13.1,12.5-23.8,17.7-31.3c2.6-3.7,5-6.7,7.3-8.7c2.4-2,4.6-3.1,6.8-3.3
			l0.5,0c1,0,2,0.3,2.9,0.9c1.7,1.1,3.4,3.1,4.9,5.9c4.7,8.3,8.2,22.6,10.9,33.9c2.1,8.7,7.5,39.3,13.4,67.7c3,14.2,6.1,27.8,9.1,38
			c1.5,5.1,2.9,9.3,4.4,12.2c0.7,1.5,1.4,2.7,2.1,3.6c0.4,0.4,0.7,0.8,1.2,1.1c0.4,0.3,0.9,0.5,1.5,0.5c0.5,0,1-0.2,1.4-0.4
			c0.8-0.5,1.4-1.3,2.1-2.4c1.1-2,2.2-5,3.3-8.7c3.8-13.2,7.6-36.3,10.9-59.6c3.3-23.3,6.3-46.7,8.4-60.2
			c1.6-10.4,3.5-17.9,5.7-22.6c1.1-2.4,2.2-4.1,3.3-5.1c1.1-1.1,2.1-1.5,3.2-1.5c1.3,0,3,0.7,4.8,2.4c1.8,1.6,3.8,4.2,5.9,7.4
			c5.4,8.6,8.6,14.6,10.4,18.5c0.9,1.9,1.5,3.3,1.8,4.3c0.2,0.5,0.3,0.8,0.3,1l0.1,0.2l0,0.1l2-0.5c0-0.1-1.9-7.3-12.9-24.7
			c-2.1-3.4-4.2-6-6.2-7.9c-2-1.8-4.1-2.9-6.2-2.9c-1.7,0-3.3,0.7-4.7,2.1c-2.1,2-3.8,5.3-5.4,10.1c-1.6,4.8-3,11-4.2,18.9
			c-2.6,17.1-6.6,49.7-11,78c-2.2,14.2-4.6,27.3-6.9,36.8c-1.2,4.8-2.4,8.6-3.5,11.2c-0.6,1.3-1.1,2.3-1.6,2.9
			c-0.2,0.3-0.5,0.5-0.6,0.6l-0.3,0.1l-0.3-0.1c-0.4-0.2-0.9-0.9-1.5-1.9c-1.1-1.9-2.4-4.9-3.7-8.9c-4.6-13.8-9.8-37.9-14.2-60.4
			c-4.5-22.5-8.2-43.2-9.9-50.2c-2.1-8.6-4.6-19-7.8-27.4c-1.6-4.2-3.4-7.8-5.5-10.5c-1-1.3-2.2-2.4-3.4-3.2
			c-1.2-0.8-2.6-1.2-4.1-1.2c-0.2,0-0.4,0-0.6,0c-2.8,0.3-5.5,1.6-8,3.8c-3.8,3.3-7.6,8.5-11.7,15.4c-4.1,6.9-8.6,15.4-13.8,25.2
			L145.4,241.3L145.4,241.3z"/>
		<path id="XMLID_321_" class="st2" d="M308.1,259.6c-7,14.2-12.7,24.8-17.8,31.9c-2.6,3.6-5,6.2-7.4,8c-2.4,1.8-4.6,2.8-6.9,3
			l-0.5,0c-1,0-2-0.3-2.9-0.9c-1.7-1.1-3.4-3.1-4.9-5.9c-4.7-8.3-8.2-22.6-10.9-33.9c-2.1-8.7-7.5-39.3-13.4-67.7
			c-3-14.2-6.1-27.8-9.1-38c-1.5-5.1-2.9-9.3-4.4-12.2c-0.7-1.5-1.4-2.7-2.1-3.6c-0.4-0.4-0.7-0.8-1.2-1.1c-0.4-0.3-0.9-0.5-1.5-0.5
			c-0.5,0-1,0.2-1.4,0.4c-0.8,0.5-1.4,1.3-2.1,2.4c-1.1,2-2.2,5-3.3,8.7c-3.8,13.2-7.6,36.3-10.9,59.6c-3.3,23.3-6.3,46.7-8.4,60.2
			c-1.6,10.4-3.5,17.9-5.7,22.6c-1.1,2.4-2.2,4.1-3.3,5.1c-1.1,1.1-2.1,1.5-3.2,1.5c-1.3,0-3-0.7-4.8-2.4c-1.8-1.6-3.8-4.2-5.9-7.4
			c-5.4-8.6-8.6-14.6-10.4-18.5c-0.9-1.9-1.5-3.3-1.8-4.3c-0.2-0.5-0.3-0.8-0.3-1l-0.1-0.2l0-0.1l-2,0.5c0,0.1,1.9,7.3,12.9,24.7
			c2.1,3.4,4.2,6,6.2,7.9c2,1.8,4.1,2.9,6.2,2.9c1.7,0,3.3-0.7,4.7-2.1c2.1-2,3.8-5.3,5.4-10.1c1.6-4.8,3-11,4.2-18.9
			c2.6-17.1,6.6-49.7,11-78c2.2-14.2,4.6-27.3,6.9-36.8c1.2-4.8,2.4-8.6,3.5-11.2c0.6-1.3,1.1-2.3,1.6-2.9c0.2-0.3,0.5-0.5,0.6-0.6
			l0.3-0.1l0.3,0.1c0.4,0.2,0.9,0.9,1.5,1.9c1.1,1.9,2.4,4.9,3.7,8.9c4.6,13.8,9.8,37.9,14.2,60.4c4.5,22.5,8.2,43.2,9.9,50.2
			c2.1,8.6,4.6,19,7.8,27.4c1.6,4.2,3.4,7.8,5.5,10.5c1,1.3,2.2,2.4,3.4,3.2c1.2,0.8,2.6,1.2,4.1,1.2c0.2,0,0.4,0,0.6,0
			c2.8-0.3,5.4-1.4,8-3.4c7.8-6,15.3-19.4,25.8-40.7L308.1,259.6L308.1,259.6z"/>
	</g>
	<g id="XMLID_253_">
		<g id="XMLID_88_">
			<path id="XMLID_98_" d="M133.7,246.2c0-0.5-0.3-0.7-0.8-0.7H132v-1.2h4.5c0.5,0,0.9,0.3,1.1,1l2.6,7.4c0.2,0.5,0.3,1.1,0.3,2
				c0.1-0.9,0.2-1.5,0.3-2l3-8.4h3.6v12.1h-2.3v-8.9c0-0.7,0.1-1.4,0.2-2.2c-0.2,0.9-0.4,1.5-0.5,1.8l-3.4,9.3h-2.1l-3.3-9.3
				c-0.2-0.5-0.3-1.1-0.5-1.8c0.1,1.2,0.1,1.9,0.1,2.2v8.9h-2.1V246.2z"/>
			<path id="XMLID_95_" d="M157.1,244c1.8,0,3.2,0.6,4.2,1.7c1,1.1,1.5,2.7,1.5,4.6c0,2-0.5,3.5-1.5,4.6c-1,1.1-2.4,1.7-4.2,1.7
				c-1.8,0-3.2-0.6-4.2-1.7c-1-1.1-1.5-2.7-1.5-4.6c0-2,0.5-3.5,1.5-4.6C153.9,244.6,155.3,244,157.1,244z M157.1,245.8
				c-1,0-1.8,0.4-2.4,1.2c-0.6,0.8-0.9,1.9-0.9,3.3c0,1.4,0.3,2.5,0.9,3.3c0.6,0.8,1.4,1.2,2.4,1.2c1,0,1.8-0.4,2.4-1.2
				c0.6-0.8,0.9-1.9,0.9-3.3c0-1.4-0.3-2.5-0.9-3.3C158.9,246.2,158.1,245.8,157.1,245.8z"/>
			<path id="XMLID_92_" d="M166.7,244.3h3.5c2,0,3.5,0.3,4.4,0.9c1.7,1.1,2.6,2.8,2.6,5.2c0,2.3-0.9,4-2.6,5.1
				c-1,0.6-2.5,0.9-4.6,0.9h-3.3V244.3z M169.2,246.1v8.4h1.4c1.3,0,2.4-0.4,3.1-1.1c0.7-0.7,1.1-1.8,1.1-3.1c0-1.4-0.4-2.4-1.1-3.1
				c-0.7-0.7-1.8-1.1-3.2-1.1H169.2z"/>
			<path id="XMLID_89_" d="M183.6,246c0,0,0-0.1,0-0.1c0-0.3-0.5-0.4-1.6-0.4v-1.2h4.4c0.3,0,0.6,0.1,0.7,0.3
				c0.1,0.1,0.2,0.4,0.4,0.7l4.3,11.1h-2.6l-1-2.9H183l-1,2.9h-2.4C182.2,249.6,183.6,246.2,183.6,246z M185.7,246.3l-2,5.4h4
				L185.7,246.3z"/>
		</g>
	</g>
	<g id="XMLID_175_">
		<g id="XMLID_171_">
			<path id="XMLID_192_" d="M265.4,246c0,0,0-0.1,0-0.1c0-0.3-0.5-0.4-1.6-0.4v-1.2h4.4c0.3,0,0.6,0.1,0.7,0.3
				c0.1,0.1,0.2,0.4,0.4,0.7l4.3,11.1h-2.6l-1-2.9h-5.3l-1,2.9h-2.4C264,249.6,265.3,246.2,265.4,246z M267.5,246.3l-2,5.4h4
				L267.5,246.3z"/>
			<path id="XMLID_190_" d="M284.7,254.9c-0.2-1.1-0.3-2.1-0.3-2.8v-7.9h2.2v12.1h-2.9l-4.6-8.7c-0.2-0.5-0.5-1.2-0.7-2.1
				c0.2,1.5,0.3,2.5,0.3,2.9v7.8h-2.2v-10.2c0-0.4-0.2-0.6-0.5-0.7c-0.1,0-0.4,0-1,0v-1.2h3.9c0.3,0,0.5,0.1,0.7,0.3
				c0,0,0.2,0.3,0.4,0.7l3.9,7.4C284.1,253.1,284.4,253.9,284.7,254.9z"/>
			<path id="XMLID_187_" d="M293.6,246c0,0,0-0.1,0-0.1c0-0.3-0.5-0.4-1.6-0.4v-1.2h4.4c0.3,0,0.6,0.1,0.7,0.3
				c0.1,0.1,0.2,0.4,0.4,0.7l4.3,11.1h-2.6l-1-2.9H293l-1,2.9h-2.4C292.2,249.6,293.5,246.2,293.6,246z M295.6,246.3l-2,5.4h4
				L295.6,246.3z"/>
			<path id="XMLID_185_" d="M303.6,245.4v-1.2h2.3c0.7,0,1.1,0.3,1.1,1v9.2h4.8v1.8h-7.2v-10.2c0-0.3-0.1-0.5-0.3-0.6
				C304.2,245.5,303.9,245.4,303.6,245.4z"/>
			<path id="XMLID_183_" d="M316.7,251.6l-3.3-5.5c-0.1-0.2-0.2-0.4-0.3-0.5c-0.1-0.1-0.3-0.2-0.5-0.2h-0.5v-1.2h2.4
				c0.3,0,0.5,0.1,0.7,0.3c0,0,0.2,0.3,0.4,0.7l2.4,4.4l2.9-5.5h2.6l-4.4,7.3v4.8h-2.4V251.6z"/>
			<path id="XMLID_181_" d="M330.7,246.2v8.4c0,0.3,0.1,0.5,0.3,0.6c0.1,0.1,0.4,0.1,0.7,0.1v1.2h-2.3c-0.7,0-1.1-0.3-1.1-1v-9.2
				h-3.2v-1.9h8.8v1.9H330.7z"/>
			<path id="XMLID_178_" d="M337.2,256.4v-10.2c0-0.5-0.3-0.7-0.8-0.7h-0.2v-1.2h2.3c0.7,0,1.1,0.3,1.1,1v11.1H337.2z"/>
			<path id="XMLID_176_" d="M353.3,244.7l-0.2,1.9c-1.2-0.5-2.2-0.7-2.8-0.7c-1.3,0-2.4,0.4-3.2,1.2c-0.8,0.8-1.2,1.9-1.2,3.3
				c0,1.3,0.4,2.3,1.2,3.1c0.8,0.8,1.9,1.2,3.3,1.2c0.4,0,0.8-0.1,1.4-0.2c0.5-0.2,0.9-0.3,1.4-0.5l0.2,1.9c-0.5,0.1-1,0.3-1.6,0.4
				c-0.6,0.1-1.1,0.2-1.6,0.2c-2.1,0-3.8-0.6-5-1.7c-1.2-1.1-1.8-2.6-1.8-4.5c0-1.9,0.6-3.4,1.8-4.6c1.2-1.2,2.8-1.8,4.8-1.8
				c0.4,0,0.8,0,1.2,0.1c0.3,0,0.6,0.1,1.1,0.3C352.9,244.6,353.2,244.7,353.3,244.7z"/>
			<path id="XMLID_172_" d="M359.6,246c0,0,0-0.1,0-0.1c0-0.3-0.5-0.4-1.6-0.4v-1.2h4.4c0.3,0,0.6,0.1,0.7,0.3
				c0.1,0.1,0.2,0.4,0.4,0.7l4.3,11.1h-2.6l-1-2.9H359l-1,2.9h-2.4C358.2,249.6,359.5,246.2,359.6,246z M361.7,246.3l-2,5.4h4
				L361.7,246.3z"/>
		</g>
	</g>
</g>
</svg>
