<svg xmlns="http://www.w3.org/2000/svg" enable-background="new 0 0 50 50" viewBox="0 0 50 50"><path fill="#FF5766" d="M37.5 46.9l-3.5 2c.1-.1.2-.3.2-.5l3.5-2C37.7 46.6 37.6 46.8 37.5 46.9zM27.1 37.1l3.5-2c.1-.1.3-.1.6.1l-3.5 2C27.4 37 27.2 37 27.1 37.1z"/><polygon fill="#FF5766" points="34.2 41.8 37.7 39.8 37.7 46.4 34.2 48.4"/><polygon fill="#FF5766" points="27.7 37.1 31.2 35.1 36.9 38.4 33.4 40.4"/><path fill="#FF5766" d="M33.4,40.4l3.5-2c0.4,0.3,0.8,0.9,0.8,1.4l-3.5,2C34.2,41.3,33.9,40.7,33.4,40.4z"/><path fill="#F74457" d="M33.4,40.4c0.4,0.3,0.8,0.9,0.8,1.4l0,6.6c0,0.5-0.4,0.7-0.8,0.5l-5.8-3.3c-0.4-0.3-0.8-0.9-0.8-1.4
						l0-6.6c0-0.5,0.4-0.7,0.8-0.5L33.4,40.4z"/><path fill="#FFF" d="M31.2,43.3L31.2,43.3L31,43.1l0,0l-0.1-0.2v-0.4c0.1-0.1,0.3-0.3,0.3-0.4l0,0c0.2-0.4,0.5-1.2-0.1-1.4
			c0.1-0.6-0.7-0.6-1.1-0.3c-0.3,0.2-0.3,0.3-0.5,0.4c-0.2,0,0,0.9,0,0.8c0,0,0,0,0,0c-0.1,0.3,0,0.8,0.3,1.1c0,0,0,0,0,0l0,0
			c0,0,0,0,0,0l0,0c-1.2-0.2-0.8,1.7-0.9,2c0.1,0.3,0.3,0.5,0.5,0.7l0,0l0,0c0.6,0.4,1.5,0.5,2.6,0.3C31.9,45.7,32.3,44.1,31.2,43.3
			z"/><path fill="#1EA9EE" d="M22.9 38.9l-3.5 2c.1-.1.2-.3.2-.5l3.5-2C23.1 38.6 23.1 38.8 22.9 38.9zM12.5 29l3.5-2c.1-.1.3-.1.6.1l-3.5 2C12.9 28.9 12.7 28.9 12.5 29z"/><polygon fill="#1EA9EE" points="19.6 33.8 23.2 31.7 23.1 38.3 19.6 40.4"/><polygon fill="#1EA9EE" points="13.1 29.1 16.6 27 22.4 30.3 18.8 32.4"/><path fill="#1EA9EE" d="M18.8,32.4l3.5-2c0.4,0.3,0.8,0.9,0.8,1.4l-3.5,2C19.6,33.3,19.3,32.6,18.8,32.4z"/><path fill="#1F95D3" d="M19.6,33.8l0,6.6c0,0.5-0.4,0.7-0.8,0.5l-5.8-3.3c-0.4-0.3-0.8-0.9-0.8-1.4l0-6.6
						c0-0.5,0.4-0.7,0.8-0.5C17.7,32,19.6,32.2,19.6,33.8z"/><path fill="#FFF" d="M16.9,35.4L16.9,35.4l-0.2-0.2l0,0L16.6,35v-0.4c0.1-0.1,0.3-0.3,0.3-0.4l0,0c0.2-0.4,0.5-1.3-0.1-1.4
			c0.1-0.6-0.7-0.6-1.2-0.3c-0.3,0.2-0.3,0.3-0.6,0.4c-0.2,0,0,0.9,0,0.9c0,0,0,0,0,0c-0.1,0.4,0,0.9,0.3,1.1c0,0,0,0,0,0l0,0
			c0,0,0,0,0,0l0,0c-1.2-0.2-0.8,1.8-0.9,2.1c0.1,0.3,0.3,0.5,0.5,0.7l0,0l0,0c0.6,0.4,1.5,0.5,2.7,0.3
			C17.6,37.9,18.1,36.2,16.9,35.4z"/><polygon fill="#2A2F35" points="17.8 29.9 19.4 29.3 19.4 29.6 17.8 30.6"/><polygon fill="#2A2F35" points="17.8 26.7 19.4 25.8 19.4 29.3 17.8 29.9"/><path fill="#5A6268" d="M16.9,25.1l1.6-0.9c0.1-0.1,0.2,0,0.4,0l-1.6,0.9C17.2,25.1,17,25.1,16.9,25.1z"/><polygon fill="#3C4349" points="22.5 29.3 24.1 28.4 25.2 29 23.6 29.9"/><polygon fill="#3D4247" points="22.5 28.1 24.1 27.2 24.1 28.4 22.5 29.3"/><polygon fill="#5A6268" points="17.3 25.2 18.9 24.2 25.5 27.9 23.6 28.7"/><polygon fill="#3D4247" points="23.6 28.7 25.2 27.8 25.2 29 23.6 29.9"/><path fill="#3C4349" d="M31.9,33.5c0.1,0.1,0.3,0.2,0.4,0.4c0.1,0.2,0.2,0.4,0.2,0.5l0,4.5l-1.1-0.6l0-3.8l-13.5-7.8l0,3.2l0,0.6
			l-1.1-0.6l0-4.5c0-0.2,0.1-0.3,0.2-0.3c0.1-0.1,0.2,0,0.4,0l5.2,2.9l0,1.2l1.1,0.6l0-1.2L31.9,33.5z"/><polygon fill="#4F565C" points="32.4 34.5 34 33.5 34 38 32.4 38.9"/><polygon fill="#5A6268" points="23.6 28.7 25.2 27.8 33.5 32.6 31.9 33.5"/><path fill="#5A6268" d="M31.9,33.5l1.6-0.9c0.1,0.1,0.3,0.2,0.4,0.4l-1.6,0.9C32.2,33.8,32,33.6,31.9,33.5z"/><path fill="#5A6268" d="M32.3,33.9l1.6-0.9c0.1,0.2,0.2,0.4,0.2,0.5l-1.6,0.9C32.4,34.3,32.4,34.1,32.3,33.9z"/><polygon fill="#7E858B" points="24.6 23.8 26.2 22.8 27.3 23.4 25.7 24.4"/><polygon fill="#4F565C" points="25.7 24.4 27.3 23.4 27.3 29 25.7 29.9"/><path fill="#3C4349" d="M25.7,24.4c0,0.1,0,7.2,0,6.8l-1.1-0.6c0-0.1,0-7.2,0-6.8L25.7,24.4z"/><path fill="#F2CA5C" d="M31.3,15.2c-7.1-3.8-4.1-1.3-4.1-1.3s-3-1.8-4.9-0.3c-1.9,1.5-1.6,9.4-1.6,9.4c1.6,4.7,7.3,5.9,15.4,5
				C36.1,27.9,38.4,19,31.3,15.2z"/><path fill="#EAEAEC" d="M30.5,20.3l-7.4,6l0.1-9.4l1.9-3.8c0.9,0.2,1.6,0.5,2.1,0.8c-2.7-2.3,3.9,1.1,5.2,2l0.2,0.1L30.5,20.3z"/><path fill="#DD9A76" d="M31.2,15.6L26.9,16c-0.3-1-0.3-2.9-0.4-4.9l4.6,0V15.6z"/><path fill="#FFF" d="M26.7,13.4l-1.1-0.2c-0.1,1.6-0.8,3.7,0,3.3l1.3-0.5C26.6,14.8,26.7,13.4,26.7,13.4z"/><polygon fill="#FF5766" points="25.7 16.5 25.8 17.8 23.2 24.2 23.2 26.3 24.6 25.6 26.5 18.2 27.7 17.3 26.9 16"/><path fill="#FFF" d="M31.2,14.1c0,0-1.6,1.8-4.2,1.9c0.3,1,0.1,2.7,0.8,2.3l4.2-2.7L31.2,14.1z"/><path fill="#F8D770" d="M32.1 19.8l-1.5.5.3 1.2c-2.6 2.6-7.6 4.8-7.6 4.8 3.4-2.9 7.2-7 8.5-11.2l.9.9L32.1 19.8zM25.6 13.3c0 0-1.7 2.3-2.4 12.9L22.5 18l.7-1v-1.5c.1-.1 2-2.5 1.9-2.4 0 0 .1 0 .1 0C25.3 13.2 25.7 13.4 25.6 13.3z"/><path fill="#4F565C" d="M29.7,12.5c0,0,2.7-0.5,3.6-3.5c1-3.1-0.3-6.6-4.3-6.9s-5.2,4.1-5,5.9C24.3,9.8,29.7,12.5,29.7,12.5z"/><path fill="#F3AC7E" d="M31,8.6c0.5,5.6-6,8-7,1.6C22.8,3.1,30.5,3.3,31,8.6z"/><path fill="#F3AC7E" d="M28.2,13.8c0.1-0.1,3.1-0.8,4.2-3.6c0.2-0.6-0.5-1.1-1.4-0.3C29.6,11.3,28.8,13,28.2,13.8z"/><path fill="#4F565C" d="M29.4 5.6c0 0-1.2 1.8-.2 3.1.7.8 1 1.8.9 2.8L31 11c0-.1.7-4.6.7-4.6s-1.9-2.2-1.9-2.2l-2.6-.4L29.4 5.6zM32.1 3.2c0 0 2.8.6 1.7 4-.8 2.3-.9 2.9-.9 2.9L32.1 3.2z"/><path fill="#4F565C" d="M31.3,1.4c-1.1-0.5-3.1-0.6-4.8,0.4c-1.6,1-1.6,1.6-2.6,1.8c-1.1,0.2-0.2,4.4,0,4.1l0,0
			c1.8-2.2,3.8-0.1,5.6-1.8l-0.8-1.1l3.3-1.4C32.1,3.3,32.4,1.9,31.3,1.4z"/></svg>