<svg xmlns="http://www.w3.org/2000/svg" xmlns:xlink="http://www.w3.org/1999/xlink" enable-background="new 0 0 64 64" viewBox="0 0 64 64"><defs><path id="a" d="M50.35,59.19l-4.31-2.34c-0.13-0.07-0.25-0.19-0.33-0.34l4.31,2.34C50.11,59.01,50.22,59.12,50.35,59.19z" enable-background="new"/></defs><clipPath id="b"><use overflow="visible" xlink:href="#a"/></clipPath><g clip-path="url(#b)"><path fill="#88673a" d="M50.35,59.19l-4.31-2.34c-0.13-0.07-0.25-0.19-0.33-0.34l4.31,2.34C50.11,59.01,50.22,59.12,50.35,59.19"/></g><polygon fill="#b18c56" points="57.34 39.49 53.03 37.15 54.95 36.88 59.26 39.22"/><polygon fill="#836438" points="50.03 58.86 45.72 56.51 38.51 42.58 42.82 44.93"/><path fill="#ca985a" d="M44.93,44.63l6.76,13.06c0.23,0.46,0.06,1.09-0.4,1.41c-0.14,0.1-0.28,0.15-0.44,0.18c-0.34,0.05-0.66-0.1-0.82-0.42l-7.2-13.93L44.93,44.63z"/><polygon fill="#aa814b" points="42.82 44.93 38.51 42.58 40.62 42.29 44.93 44.63"/><defs><path id="c" d="M33.59,59.15l-4.31-2.34c-0.26-0.14-0.43-0.43-0.43-0.79l4.31,2.35C33.16,58.72,33.33,59.01,33.59,59.15z" enable-background="new"/></defs><clipPath id="d"><use overflow="visible" xlink:href="#c"/></clipPath><g clip-path="url(#d)"><path fill="#88673a" d="M33.59,59.15l-4.31-2.34c-0.26-0.14-0.43-0.43-0.43-0.79l4.31,2.35C33.16,58.72,33.33,59.01,33.59,59.15"/></g><polygon fill="#866639" points="33.16 58.36 28.85 56.02 28.88 43.94 33.19 46.28"/><polygon fill="#aa814b" points="33.19 46.28 28.88 43.94 30.75 43.67 35.06 46.02"/><path fill="#ca985a" d="M35.06,46.02L35.04,58.1c0,0.56-0.43,1.07-0.94,1.14c-0.52,0.07-0.94-0.32-0.94-0.87l0.02-12.08L35.06,46.02z"/><defs><path id="e" d="M16.84,63.91l-4.31-2.35c-0.41-0.22-0.56-0.77-0.34-1.27l4.31,2.34C16.28,63.14,16.43,63.69,16.84,63.91z" enable-background="new"/></defs><clipPath id="f"><use overflow="visible" xlink:href="#e"/></clipPath><g clip-path="url(#f)"><path fill="#88673a" d="M16.84,63.91l-4.31-2.35c-0.39-0.21-0.55-0.72-0.37-1.21l4.31,2.35C16.29,63.19,16.45,63.7,16.84,63.91"/><path fill="#8b6a3c" d="M16.47,62.7l-4.31-2.35c0.01-0.02,0.02-0.05,0.03-0.07l4.31,2.34C16.49,62.66,16.48,62.68,16.47,62.7"/></g><polygon fill="#927040" points="16.5 62.64 12.19 60.29 19 45.32 23.32 47.67"/><path fill="#ca985a" d="M25.43,47.37l-7.27,15.96c-0.16,0.37-0.49,0.61-0.83,0.66c-0.16,0.02-0.3,0.01-0.44-0.05c-0.45-0.2-0.63-0.78-0.4-1.3l6.82-14.97L25.43,47.37z"/><polygon fill="#aa814b" points="23.32 47.67 19 45.32 21.12 45.03 25.43 47.37"/><polygon fill="#b18c56" points="10.92 46.02 6.61 43.67 53.03 37.15 57.34 39.49"/><polygon fill="#b18c56" points="8.98 46.29 4.67 43.95 6.61 43.67 10.92 46.02"/><polygon fill="#8b6f42" points="8.98 49.68 4.67 47.34 4.67 43.95 8.98 46.29"/><polygon fill="#d3a666" points="59.26 39.22 59.26 42.62 44.93 44.63 42.82 44.93 35.06 46.02 33.19 46.28 25.43 47.37 23.32 47.67 8.98 49.68 8.98 46.29 10.92 46.02 57.34 39.49"/><g><polygon fill="#a0a1a3" points="47.98 36.05 43.67 33.71 43.76 33.56 48.07 35.9"/><polygon fill="#949597" points="48.07 35.9 43.76 33.56 43.81 33.36 48.12 35.71"/><polygon fill="#8d8d90" points="48.12 35.71 43.81 33.36 43.77 33.19 48.08 35.53"/><polygon fill="#8c8d8f" points="48.08 35.53 43.77 33.19 43.68 33.05 47.99 35.4"/><polygon fill="#a7a8aa" points="46.64 37.62 42.33 35.27 43.67 33.71 47.98 36.05"/><defs><path id="g" d="M42.04,35.44c0.11-0.01,0.21-0.07,0.29-0.17l4.31,2.34c-0.08,0.1-0.18,0.16-0.29,0.17c-0.08,0.01-0.16,0-0.23-0.04l-4.31-2.35C41.88,35.44,41.96,35.45,42.04,35.44z" enable-background="new"/></defs><clipPath id="h"><use overflow="visible" xlink:href="#g"/></clipPath><g clip-path="url(#h)"><path fill="#a3a4a6" d="M46.12,37.75l-4.31-2.35c0,0,0.01,0,0.01,0.01l4.31,2.35C46.13,37.75,46.13,37.75,46.12,37.75"/><path fill="#a7a8aa" d="M46.14,37.75l-4.31-2.35c0.02,0.01,0.04,0.02,0.07,0.02l4.31,2.35C46.18,37.77,46.16,37.77,46.14,37.75"/><path fill="#ababae" d="M46.2,37.78l-4.31-2.35c0.05,0.01,0.1,0.01,0.15,0.01c0.04-0.01,0.08-0.02,0.12-0.04l4.31,2.34c-0.04,0.02-0.08,0.03-0.12,0.04C46.3,37.79,46.25,37.79,46.2,37.78"/><path fill="#a7a8aa" d="M46.47,37.75l-4.31-2.34c0.02-0.01,0.04-0.02,0.06-0.04l4.31,2.34C46.51,37.73,46.49,37.74,46.47,37.75"/><path fill="#a3a4a6" d="M46.53,37.71l-4.31-2.34c0.02-0.01,0.03-0.02,0.04-0.03l4.31,2.34C46.56,37.69,46.55,37.7,46.53,37.71"/><path fill="#9fa0a2" d="M46.58,37.68l-4.31-2.34c0.01-0.01,0.02-0.02,0.04-0.04l4.31,2.34C46.6,37.66,46.59,37.67,46.58,37.68"/><path fill="#9c9c9f" d="M46.61,37.64L42.3,35.3c0.01-0.01,0.02-0.02,0.02-0.03l4.31,2.34C46.63,37.63,46.62,37.63,46.61,37.64"/></g><defs><path id="i" d="M46.12,37.75l-4.31-2.35c-0.03-0.02-0.06-0.04-0.08-0.06l4.31,2.35C46.06,37.71,46.09,37.73,46.12,37.75z" enable-background="new"/></defs><clipPath id="j"><use overflow="visible" xlink:href="#i"/></clipPath><g clip-path="url(#j)"><path fill="#848687" d="M46.12,37.75l-4.31-2.35c-0.03-0.02-0.06-0.04-0.08-0.06l4.31,2.35C46.06,37.71,46.09,37.73,46.12,37.75"/></g><polygon fill="#999a9c" points="46.05 37.04 41.74 34.69 42.32 34.03 46.63 36.37"/><defs><path id="k" d="M46.04,37.68l-4.31-2.35c-0.16-0.16-0.15-0.45,0.02-0.65l4.31,2.34C45.89,37.23,45.88,37.53,46.04,37.68z" enable-background="new"/></defs><clipPath id="l"><use overflow="visible" xlink:href="#k"/></clipPath><g clip-path="url(#l)"><path fill="#848687" d="M46.04,37.68l-4.31-2.35c-0.12-0.12-0.14-0.31-0.08-0.48l4.31,2.34C45.89,37.37,45.92,37.57,46.04,37.68"/><path fill="#87898b" d="M45.96,37.2l-4.31-2.34c0.01-0.02,0.02-0.05,0.03-0.07l4.31,2.35C45.98,37.15,45.97,37.18,45.96,37.2"/><path fill="#8b8c8e" d="M45.99,37.13l-4.31-2.35c0.01-0.02,0.02-0.04,0.03-0.05l4.31,2.34C46.01,37.09,46,37.11,45.99,37.13"/><path fill="#8e9092" d="M46.02,37.08l-4.31-2.34c0.01-0.01,0.02-0.03,0.03-0.04l4.31,2.34C46.04,37.05,46.03,37.06,46.02,37.08"/></g><polygon fill="#8c8d8f" points="47.99 35.4 43.68 33.05 42.33 31.86 46.64 34.21"/><defs><path id="m" d="M42.27,31.82l4.31,2.34c0.02,0.01,0.04,0.03,0.06,0.05l-4.31-2.34C42.31,31.84,42.29,31.83,42.27,31.82z" enable-background="new"/></defs><clipPath id="n"><use overflow="visible" xlink:href="#m"/></clipPath><g clip-path="url(#n)"><path fill="#909194" d="M46.64,34.21l-4.31-2.34c-0.02-0.02-0.04-0.03-0.06-0.05l4.31,2.34C46.6,34.17,46.62,34.19,46.64,34.21"/></g><polygon fill="#808183" points="46.63 35.46 42.32 33.11 41.75 32.61 46.06 34.95"/><defs><path id="o" d="M42.27,31.82l4.31,2.34c-0.07-0.04-0.15-0.05-0.22-0.04c-0.11,0.02-0.22,0.08-0.31,0.18l-4.31-2.35c0.09-0.11,0.2-0.17,0.31-0.18C42.12,31.77,42.2,31.78,42.27,31.82z" enable-background="new"/></defs><clipPath id="p"><use overflow="visible" xlink:href="#o"/></clipPath><g clip-path="url(#p)"><path fill="#8e9092" d="M46.04,34.31l-4.31-2.35c0-0.01,0.01-0.01,0.01-0.02l4.31,2.35C46.05,34.3,46.05,34.3,46.04,34.31"/><path fill="#929395" d="M46.06,34.29l-4.31-2.35c0.01-0.02,0.03-0.03,0.05-0.05l4.31,2.34C46.09,34.26,46.07,34.27,46.06,34.29"/><path fill="#959798" d="M46.1,34.24l-4.31-2.34c0.02-0.02,0.04-0.03,0.05-0.04l4.31,2.34C46.14,34.22,46.12,34.23,46.1,34.24"/><path fill="#999a9c" d="M46.16,34.2l-4.31-2.34c0.02-0.02,0.05-0.03,0.07-0.04l4.31,2.34C46.2,34.17,46.18,34.19,46.16,34.2"/><path fill="#9c9e9f" d="M46.23,34.16l-4.31-2.34c0.04-0.02,0.08-0.03,0.13-0.04c0.05-0.01,0.1,0,0.15,0.01l4.31,2.35c-0.05-0.01-0.1-0.01-0.15-0.01C46.31,34.13,46.27,34.14,46.23,34.16"/><path fill="#999a9c" d="M46.5,34.13l-4.31-2.35c0.02,0.01,0.04,0.01,0.07,0.02l4.31,2.34C46.55,34.14,46.52,34.14,46.5,34.13"/><path fill="#959798" d="M46.57,34.15l-4.31-2.34c0,0,0.01,0,0.01,0.01l4.31,2.34C46.57,34.16,46.57,34.16,46.57,34.15"/></g><defs><path id="q" d="M46.06,34.95l-4.31-2.34c-0.17-0.15-0.17-0.43-0.01-0.64l4.31,2.35C45.88,34.52,45.89,34.8,46.06,34.95z" enable-background="new"/></defs><clipPath id="r"><use overflow="visible" xlink:href="#q"/></clipPath><g clip-path="url(#r)"><path fill="#848687" d="M46.06,34.95l-4.31-2.34c-0.13-0.12-0.16-0.31-0.1-0.49l4.31,2.34C45.9,34.64,45.93,34.84,46.06,34.95"/><path fill="#87898b" d="M45.96,34.46l-4.31-2.34c0.01-0.02,0.02-0.05,0.03-0.07L46,34.38C45.98,34.41,45.97,34.43,45.96,34.46"/><path fill="#8b8c8e" d="M46,34.38l-4.31-2.34c0.01-0.02,0.02-0.04,0.04-0.06l4.31,2.34C46.02,34.34,46.01,34.36,46,34.38"/><path fill="#8e9092" d="M46.03,34.32l-4.31-2.34c0-0.01,0.01-0.01,0.01-0.02l4.31,2.35C46.04,34.31,46.04,34.32,46.03,34.32"/></g><defs><path id="s" d="M40.55,15.32c0-0.45-0.21-0.81-0.54-0.98l4.31,2.35c0.32,0.18,0.54,0.53,0.54,0.98c0,0.69-0.53,1.32-1.16,1.41c-0.23,0.03-0.44-0.01-0.62-0.11l-4.31-2.34c0.18,0.1,0.39,0.14,0.62,0.11C40.02,16.65,40.54,16.02,40.55,15.32z" enable-background="new"/></defs><clipPath id="t"><use overflow="visible" xlink:href="#s"/></clipPath><g clip-path="url(#t)"><path fill="#a3a4a6" d="M43.07,18.98l-4.31-2.34c0.01,0.01,0.02,0.01,0.03,0.02l4.31,2.34C43.1,18.99,43.08,18.98,43.07,18.98"/><path fill="#a7a8aa" d="M43.11,18.99l-4.31-2.34c0.06,0.03,0.12,0.05,0.18,0.07l4.31,2.34C43.23,19.05,43.16,19.02,43.11,18.99"/><path fill="#ababae" d="M43.29,19.06l-4.31-2.34c0.13,0.03,0.26,0.04,0.41,0.02c0.12-0.02,0.23-0.05,0.34-0.1l4.31,2.34c-0.11,0.05-0.22,0.09-0.34,0.1C43.55,19.1,43.41,19.09,43.29,19.06"/><path fill="#a7a8aa" d="M44.03,18.98l-4.31-2.34c0.07-0.03,0.13-0.07,0.19-0.11l4.31,2.34C44.16,18.91,44.1,18.95,44.03,18.98"/><path fill="#a3a4a6" d="M44.22,18.87l-4.31-2.34c0.05-0.03,0.1-0.07,0.14-0.11l4.31,2.34C44.32,18.8,44.27,18.84,44.22,18.87"/><path fill="#9fa0a2" d="M44.36,18.76l-4.31-2.34c0.04-0.04,0.08-0.08,0.12-0.12l4.31,2.35C44.44,18.68,44.4,18.72,44.36,18.76"/><path fill="#9c9c9f" d="M44.48,18.64l-4.31-2.35c0.04-0.04,0.07-0.09,0.1-0.13l4.31,2.35C44.55,18.56,44.52,18.6,44.48,18.64"/><path fill="#98989b" d="M44.58,18.51l-4.31-2.35c0.03-0.05,0.07-0.1,0.09-0.15l4.31,2.34C44.65,18.41,44.62,18.46,44.58,18.51"/><path fill="#949597" d="M44.68,18.36l-4.31-2.34c0.03-0.06,0.06-0.13,0.09-0.19l4.31,2.34C44.74,18.23,44.71,18.29,44.68,18.36"/><path fill="#909194" d="M44.77,18.16l-4.31-2.34c0.06-0.16,0.09-0.32,0.09-0.49c0-0.45-0.21-0.81-0.54-0.98l4.31,2.35c0.32,0.18,0.54,0.53,0.54,0.98C44.86,17.84,44.82,18.01,44.77,18.16"/></g><defs><path id="u" d="M40.01,14.34l4.31,2.35c-0.18-0.1-0.39-0.14-0.62-0.11l-4.31-2.34C39.62,14.2,39.83,14.25,40.01,14.34z" enable-background="new"/></defs><clipPath id="v"><use overflow="visible" xlink:href="#u"/></clipPath><g clip-path="url(#v)"><path fill="#669288" d="M43.7,16.58l-4.31-2.34c0.14-0.02,0.28-0.01,0.4,0.02l4.31,2.34C43.97,16.57,43.84,16.56,43.7,16.58"/><path fill="#648f85" d="M44.1,16.6l-4.31-2.34c0.06,0.02,0.13,0.04,0.18,0.07l4.31,2.35C44.22,16.64,44.16,16.62,44.1,16.6"/><path fill="#618c82" d="M44.28,16.67l-4.31-2.35c0.01,0.01,0.02,0.01,0.04,0.02l4.31,2.35C44.31,16.68,44.3,16.68,44.28,16.67"/></g><path fill="#80b5a7" d="M43.7,16.58c0.64-0.09,1.16,0.39,1.16,1.09s-0.53,1.32-1.16,1.41c-0.24,0.03-0.47-0.01-0.65-0.12c-0.24-0.14-0.41-0.38-0.47-0.69c-0.02-0.09-0.03-0.18-0.03-0.28C42.54,17.3,43.06,16.67,43.7,16.58z"/><defs><path id="w" d="M43.07,18.98l-4.31-2.34c-0.01-0.01-0.02-0.01-0.03-0.02c-0.24-0.14-0.41-0.38-0.47-0.69c-0.02-0.09-0.03-0.18-0.03-0.28c0-0.69,0.52-1.32,1.16-1.41l4.31,2.34c-0.64,0.09-1.16,0.72-1.16,1.41c0,0.1,0.01,0.19,0.03,0.28c0.07,0.3,0.24,0.55,0.47,0.69C43.05,18.97,43.06,18.97,43.07,18.98z" enable-background="new"/></defs><clipPath id="x"><use overflow="visible" xlink:href="#w"/></clipPath><g clip-path="url(#x)"><path fill="#557d74" d="M43.07,18.98l-4.31-2.34c-0.01-0.01-0.02-0.01-0.03-0.02c-0.24-0.14-0.41-0.38-0.47-0.69c-0.02-0.09-0.03-0.18-0.03-0.28c0-0.17,0.03-0.34,0.09-0.5l4.31,2.34c-0.06,0.16-0.09,0.32-0.09,0.5c0,0.1,0.01,0.19,0.03,0.28c0.07,0.3,0.24,0.55,0.47,0.69C43.05,18.97,43.06,18.97,43.07,18.98"/><path fill="#578077" d="M42.63,17.5l-4.31-2.34c0.02-0.07,0.05-0.13,0.09-0.19l4.31,2.35C42.68,17.37,42.65,17.43,42.63,17.5"/><path fill="#5a827a" d="M42.72,17.3l-4.31-2.35c0.03-0.05,0.06-0.1,0.09-0.15l4.31,2.34C42.77,17.2,42.74,17.25,42.72,17.3"/><path fill="#5c857d" d="M42.81,17.15l-4.31-2.34c0.03-0.05,0.07-0.09,0.1-0.13l4.31,2.35C42.88,17.06,42.84,17.11,42.81,17.15"/><path fill="#5f8980" d="M42.91,17.02l-4.31-2.35c0.04-0.04,0.08-0.08,0.12-0.12l4.31,2.35C42.99,16.94,42.95,16.98,42.91,17.02"/><path fill="#618c82" d="M43.03,16.9l-4.31-2.35c0.04-0.04,0.09-0.08,0.14-0.11l4.31,2.34C43.12,16.83,43.07,16.86,43.03,16.9"/><path fill="#648f85" d="M43.17,16.79l-4.31-2.34c0.06-0.04,0.12-0.08,0.19-0.11l4.31,2.34C43.29,16.72,43.23,16.75,43.17,16.79"/><path fill="#669288" d="M43.36,16.68l-4.31-2.34c0.11-0.05,0.22-0.09,0.34-0.1l4.31,2.34C43.58,16.6,43.46,16.63,43.36,16.68"/></g><polygon fill="#adadaf" points="39.48 22.09 35.17 19.75 38.73 16.61 43.04 18.96"/><defs><path id="y" d="M32.27,27.04c0-0.33-0.12-0.62-0.31-0.81l4.31,2.34c0.19,0.2,0.31,0.48,0.31,0.81c0,0.69-0.52,1.32-1.16,1.41c-1.44-0.78-2.87-1.56-4.31-2.34c1.44,0.78,2.87,1.56,4.31,2.34c-0.23,0.03-0.44-0.01-0.62-0.11l-4.31-2.34c0.18,0.1,0.39,0.14,0.62,0.11C31.74,28.36,32.27,27.73,32.27,27.04z" enable-background="new"/></defs><clipPath id="z"><use overflow="visible" xlink:href="#y"/></clipPath><g clip-path="url(#z)"><path fill="#a3a4a6" d="M34.8,30.69l-4.31-2.34c0.01,0.01,0.02,0.01,0.04,0.02l4.31,2.34C34.82,30.7,34.81,30.7,34.8,30.69"/><path fill="#a7a8aa" d="M34.84,30.71l-4.31-2.34c0.06,0.03,0.12,0.05,0.18,0.07l4.31,2.34C34.95,30.76,34.89,30.74,34.84,30.71"/><path fill="#ababae" d="M35.02,30.78l-4.31-2.34c0.12,0.03,0.26,0.04,0.4,0.02c0.12-0.02,0.23-0.05,0.33-0.1l4.31,2.34c-0.11,0.05-0.22,0.08-0.33,0.1C35.28,30.82,35.14,30.81,35.02,30.78"/><path fill="#a7a8aa" d="M35.75,30.7l-4.31-2.34c0.07-0.03,0.13-0.07,0.19-0.11l4.31,2.34C35.88,30.63,35.82,30.67,35.75,30.7"/><path fill="#a3a4a6" d="M35.94,30.59l-4.31-2.34c0.05-0.03,0.1-0.07,0.14-0.11l4.31,2.34C36.04,30.52,35.99,30.55,35.94,30.59"/><path fill="#9fa0a2" d="M36.08,30.48l-4.31-2.34c0.04-0.04,0.08-0.08,0.12-0.12l4.31,2.34C36.16,30.4,36.12,30.44,36.08,30.48"/><path fill="#9c9c9f" d="M36.2,30.36l-4.31-2.34c0.04-0.04,0.07-0.09,0.11-0.13l4.31,2.34C36.28,30.27,36.24,30.31,36.2,30.36"/><path fill="#98989b" d="M36.31,30.22L32,27.88c0.03-0.05,0.07-0.1,0.1-0.15l4.31,2.34C36.37,30.12,36.34,30.17,36.31,30.22"/><path fill="#949597" d="M36.4,30.07l-4.31-2.34c0.03-0.06,0.06-0.13,0.09-0.2l4.31,2.34C36.47,29.94,36.44,30.01,36.4,30.07"/><path fill="#909194" d="M36.49,29.87l-4.31-2.34c0.06-0.15,0.09-0.32,0.09-0.49c0-0.33-0.12-0.62-0.31-0.81l4.31,2.34c0.19,0.2,0.31,0.48,0.31,0.81C36.58,29.55,36.55,29.72,36.49,29.87"/></g><polygon fill="#9a9b9d" points="36.27 28.57 31.96 26.23 33.95 21.45 38.26 23.8"/><defs><path id="A" d="M31.96,26.23c-0.07-0.07-0.14-0.12-0.23-0.17l4.31,2.34c0.08,0.05,0.16,0.1,0.23,0.17C34.97,27.87,33.13,27.11,31.96,26.23z" enable-background="new"/></defs><clipPath id="B"><use overflow="visible" xlink:href="#A"/></clipPath><g clip-path="url(#B)"><path fill="#848687" d="M36.27,28.57l-4.31-2.34c-0.07-0.07-0.14-0.12-0.23-0.17l4.31,2.34C36.13,28.45,36.2,28.51,36.27,28.57"/></g><defs><path id="C" d="M38.26,23.8l-4.31-2.34c0.03,0,0.06,0,0.08-0.01c0.64-0.09,1.16-0.73,1.16-1.41c0-0.1-0.01-0.19-0.03-0.28l4.31,2.35c0.02,0.09,0.03,0.18,0.03,0.28c0,0.69-0.52,1.32-1.16,1.41C38.32,23.79,38.29,23.8,38.26,23.8z" enable-background="new"/></defs><clipPath id="D"><use overflow="visible" xlink:href="#C"/></clipPath><g clip-path="url(#D)"><path fill="#ababae" d="M38.26,23.8l-4.31-2.34c0.03,0,0.06,0,0.08-0.01c0.12-0.02,0.23-0.05,0.34-0.1l4.31,2.34c-0.11,0.05-0.22,0.09-0.34,0.1C38.32,23.79,38.29,23.8,38.26,23.8"/><path fill="#a7a8aa" d="M38.69,23.69l-4.31-2.34c0.07-0.03,0.13-0.07,0.19-0.11l4.31,2.35C38.81,23.62,38.75,23.66,38.69,23.69"/><path fill="#a3a4a6" d="M38.87,23.58l-4.31-2.35c0.05-0.03,0.1-0.07,0.14-0.11l4.31,2.34C38.97,23.51,38.92,23.55,38.87,23.58"/><path fill="#9fa0a2" d="M39.01,23.47l-4.31-2.34c0.04-0.04,0.08-0.08,0.12-0.12l4.31,2.35C39.09,23.39,39.06,23.43,39.01,23.47"/><path fill="#9c9c9f" d="M39.13,23.35l-4.31-2.35c0.04-0.04,0.07-0.09,0.1-0.13l4.31,2.34C39.2,23.26,39.17,23.31,39.13,23.35"/><path fill="#98989b" d="M39.24,23.22l-4.31-2.34c0.03-0.05,0.07-0.1,0.09-0.15l4.31,2.34C39.3,23.12,39.27,23.17,39.24,23.22"/><path fill="#949597" d="M39.33,23.06l-4.31-2.34c0.03-0.06,0.06-0.13,0.09-0.2l4.31,2.34C39.39,22.94,39.36,23,39.33,23.06"/><path fill="#909194" d="M39.42,22.87l-4.31-2.34c0.06-0.16,0.09-0.32,0.09-0.49c0-0.1-0.01-0.19-0.03-0.28l4.31,2.35c0.02,0.09,0.03,0.18,0.03,0.28C39.51,22.55,39.48,22.71,39.42,22.87"/></g><defs><path id="E" d="M31.73,26.06l4.31,2.34c-0.16-0.09-0.34-0.13-0.54-0.12c-0.03,0-0.06,0-0.08,0.01l-4.31-2.34c0.03,0,0.06-0.01,0.08-0.01C31.39,25.93,31.57,25.97,31.73,26.06z" enable-background="new"/></defs><clipPath id="F"><use overflow="visible" xlink:href="#E"/></clipPath><g clip-path="url(#F)"><path fill="#284159" d="M35.42,28.3l-4.31-2.34c0.03,0,0.06-0.01,0.08-0.01c0.11-0.01,0.22,0,0.32,0.03l4.31,2.34c-0.1-0.03-0.21-0.04-0.32-0.03C35.48,28.29,35.45,28.29,35.42,28.3"/><path fill="#274058" d="M35.83,28.32l-4.31-2.34c0.06,0.02,0.12,0.04,0.18,0.07l4.31,2.34C35.95,28.36,35.89,28.33,35.83,28.32"/><path fill="#263f56" d="M36.01,28.39l-4.31-2.34c0.01,0.01,0.02,0.01,0.03,0.02l4.31,2.34C36.03,28.4,36.02,28.39,36.01,28.39"/></g><path fill="#c3c4c5" d="M42.57,18.27c0.07,0.3,0.24,0.55,0.47,0.69l-3.56,3.14c-0.07-0.3-0.24-0.55-0.48-0.68L42.57,18.27z"/><defs><path id="G" d="M34.69,19.07c1.44,0.78,2.87,1.56,4.31,2.35c0.24,0.14,0.41,0.38,0.48,0.68l-4.31-2.35C35.1,19.45,34.93,19.2,34.69,19.07z" enable-background="new"/></defs><clipPath id="H"><use overflow="visible" xlink:href="#G"/></clipPath><g clip-path="url(#H)"><path fill="#848687" d="M39.48,22.09l-4.31-2.35c-0.07-0.3-0.24-0.55-0.48-0.68L39,21.41C39.24,21.55,39.41,21.79,39.48,22.09"/></g><polygon fill="#9e9fa1" points="39 21.41 34.69 19.07 38.26 15.93 42.57 18.27"/><defs><path id="I" d="M33.42,21.34c0.16,0.08,0.34,0.13,0.53,0.12l4.31,2.34c-0.19,0.01-0.38-0.03-0.53-0.12C36.44,22.98,34.71,22.04,33.42,21.34z" enable-background="new"/></defs><clipPath id="J"><use overflow="visible" xlink:href="#I"/></clipPath><g clip-path="url(#J)"><path fill="#959798" d="M37.73,23.68l-4.31-2.34c0.01,0.01,0.02,0.01,0.03,0.02l4.31,2.34C37.75,23.7,37.74,23.69,37.73,23.68"/><path fill="#999a9c" d="M37.77,23.7l-4.31-2.34c0.06,0.03,0.12,0.05,0.18,0.07l4.31,2.34C37.89,23.75,37.82,23.73,37.77,23.7"/><path fill="#9c9e9f" d="M37.95,23.77l-4.31-2.34c0.1,0.03,0.2,0.04,0.31,0.03l4.31,2.34C38.15,23.81,38.05,23.79,37.95,23.77"/></g><defs><path id="K" d="M34.69,19.07c-0.01-0.01-0.02-0.01-0.03-0.02l4.31,2.35c0.01,0,0.02,0.01,0.03,0.01C37.56,20.63,36.13,19.85,34.69,19.07z" enable-background="new"/></defs><clipPath id="L"><use overflow="visible" xlink:href="#K"/></clipPath><g clip-path="url(#L)"><path fill="#909194" d="M39,21.41l-4.31-2.34c-0.01-0.01-0.02-0.01-0.03-0.02l4.31,2.35C38.98,21.4,38.99,21.4,39,21.41"/></g><polygon fill="#8d8e90" points="35.51 28.29 31.2 25.94 33.19 21.16 37.5 23.51"/><path fill="#c3c4c5" d="M37.5,23.51c0.19,0.2,0.46,0.31,0.76,0.29l-2,4.77c-0.19-0.2-0.46-0.3-0.76-0.28L37.5,23.51z"/><defs><path id="M" d="M34.8,30.69l-4.31-2.34c-0.32-0.18-0.54-0.54-0.54-0.98c0-0.06,0-0.13,0.01-0.19c0.05-0.33,0.2-0.63,0.43-0.85c0.2-0.19,0.45-0.33,0.72-0.37l4.31,2.34c-0.27,0.04-0.52,0.17-0.72,0.37c-0.23,0.22-0.38,0.53-0.43,0.85c-0.01,0.06-0.01,0.13-0.01,0.19C34.26,30.15,34.48,30.52,34.8,30.69z" enable-background="new"/></defs><clipPath id="N"><use overflow="visible" xlink:href="#M"/></clipPath><g clip-path="url(#N)"><path fill="#21394f" d="M34.8,30.69l-4.31-2.34c-0.32-0.18-0.54-0.54-0.54-0.98c0-0.06,0-0.13,0.01-0.19c0.01-0.1,0.04-0.21,0.08-0.3l4.31,2.34c-0.04,0.1-0.06,0.2-0.08,0.3c-0.01,0.06-0.01,0.13-0.01,0.19C34.26,30.15,34.48,30.52,34.8,30.69"/><path fill="#223a51" d="M34.35,29.21l-4.31-2.34c0.02-0.07,0.05-0.13,0.09-0.19l4.31,2.34C34.41,29.08,34.38,29.15,34.35,29.21"/><path fill="#233b52" d="M34.44,29.02l-4.31-2.34c0.03-0.05,0.06-0.1,0.09-0.15l4.31,2.34C34.5,28.92,34.47,28.97,34.44,29.02"/><path fill="#243c53" d="M34.53,28.87l-4.31-2.34c0.03-0.05,0.07-0.09,0.1-0.13l4.31,2.34C34.6,28.78,34.56,28.82,34.53,28.87"/><path fill="#253e55" d="M34.64,28.74l-4.31-2.34c0.02-0.02,0.04-0.05,0.07-0.07c0.02-0.02,0.03-0.03,0.05-0.05l4.31,2.34c-0.02,0.01-0.03,0.03-0.05,0.05C34.68,28.69,34.66,28.71,34.64,28.74"/><path fill="#263f56" d="M34.75,28.62l-4.31-2.34c0.04-0.04,0.09-0.08,0.14-0.11l4.31,2.35C34.84,28.54,34.8,28.58,34.75,28.62"/><path fill="#274058" d="M34.89,28.51l-4.31-2.35c0.06-0.04,0.12-0.08,0.19-0.11l4.31,2.34C35.01,28.43,34.95,28.47,34.89,28.51"/><path fill="#284159" d="M35.08,28.4l-4.31-2.34c0.11-0.05,0.22-0.09,0.34-0.1l4.31,2.34C35.3,28.31,35.19,28.35,35.08,28.4"/></g><defs><path id="O" d="M34.66,19.05l4.31,2.35c-0.18-0.1-0.39-0.14-0.62-0.11l-4.31-2.34C34.27,18.91,34.48,18.95,34.66,19.05z" enable-background="new"/></defs><clipPath id="P"><use overflow="visible" xlink:href="#O"/></clipPath><g clip-path="url(#P)"><path fill="#59768c" d="M38.35,21.29l-4.31-2.34c0.14-0.02,0.28-0.01,0.41,0.02l4.31,2.34C38.63,21.28,38.5,21.27,38.35,21.29"/><path fill="#567389" d="M38.76,21.31l-4.31-2.34c0.06,0.02,0.12,0.04,0.18,0.07l4.31,2.35C38.88,21.35,38.82,21.33,38.76,21.31"/><path fill="#547186" d="M38.94,21.38l-4.31-2.35c0.01,0.01,0.02,0.01,0.03,0.02l4.31,2.35C38.96,21.39,38.95,21.38,38.94,21.38"/></g><defs><path id="Q" d="M37.73,23.68l-4.31-2.34c-0.08-0.05-0.16-0.1-0.23-0.17c-0.19-0.2-0.31-0.48-0.31-0.81c0-0.69,0.53-1.32,1.16-1.41l4.31,2.34c-0.64,0.09-1.16,0.72-1.16,1.41c0,0.33,0.12,0.61,0.31,0.81C37.57,23.58,37.65,23.64,37.73,23.68z" enable-background="new"/></defs><clipPath id="R"><use overflow="visible" xlink:href="#Q"/></clipPath><g clip-path="url(#R)"><path fill="#496478" d="M37.73,23.68l-4.31-2.34c-0.08-0.05-0.16-0.1-0.23-0.17c-0.19-0.2-0.31-0.48-0.31-0.81c0-0.17,0.03-0.34,0.09-0.49l4.31,2.34c-0.06,0.16-0.09,0.32-0.09,0.49c0,0.33,0.12,0.61,0.31,0.81C37.57,23.58,37.65,23.64,37.73,23.68"/><path fill="#4c667b" d="M37.28,22.21l-4.31-2.34c0.02-0.07,0.05-0.13,0.09-0.19l4.31,2.34C37.33,22.08,37.3,22.14,37.28,22.21"/><path fill="#4e697e" d="M37.37,22.02l-4.31-2.34c0.03-0.05,0.06-0.1,0.09-0.15l4.31,2.34C37.43,21.91,37.4,21.96,37.37,22.02"/><path fill="#506b80" d="M37.46,21.86l-4.31-2.34c0.03-0.05,0.07-0.09,0.1-0.13l4.31,2.34C37.53,21.77,37.49,21.82,37.46,21.86"/><path fill="#526e83" d="M37.57,21.73l-4.31-2.34c0.04-0.04,0.08-0.08,0.12-0.12l4.31,2.35C37.64,21.65,37.6,21.69,37.57,21.73"/><path fill="#547186" d="M37.68,21.61l-4.31-2.35c0.04-0.04,0.09-0.08,0.14-0.11l4.31,2.34C37.78,21.53,37.73,21.57,37.68,21.61"/><path fill="#567389" d="M37.82,21.5l-4.31-2.34c0.06-0.04,0.12-0.08,0.19-0.11l4.31,2.35C37.95,21.42,37.88,21.46,37.82,21.5"/><path fill="#59768c" d="M38.01,21.39l-4.31-2.35c0.11-0.05,0.22-0.09,0.34-0.1l4.31,2.34C38.23,21.31,38.12,21.34,38.01,21.39"/></g><path fill="#6f91ad" d="M38.35,21.29c0.24-0.03,0.46,0.01,0.65,0.12c0.24,0.14,0.41,0.38,0.48,0.68c0.02,0.09,0.03,0.18,0.03,0.28c0,0.69-0.52,1.32-1.16,1.41c-0.03,0-0.06,0.01-0.08,0.01c-0.3,0.02-0.57-0.09-0.76-0.29c-0.19-0.2-0.31-0.48-0.31-0.81C37.19,22.01,37.72,21.38,38.35,21.29z"/><polygon fill="#a4a4a7" points="30.63 27.73 26.32 25.39 29.96 27.17 34.28 29.52"/><defs><path id="S" d="M30.63,27.73l-4.31-2.34c0.22-0.22,0.38-0.53,0.43-0.86l4.31,2.34C31.01,27.21,30.86,27.51,30.63,27.73z" enable-background="new"/></defs><clipPath id="T"><use overflow="visible" xlink:href="#S"/></clipPath><g clip-path="url(#T)"><path fill="#929395" d="M30.63,27.73l-4.31-2.34c0.02-0.02,0.04-0.04,0.06-0.07l4.31,2.35C30.67,27.69,30.65,27.71,30.63,27.73"/><path fill="#8e9092" d="M30.69,27.67l-4.31-2.35c0.04-0.04,0.07-0.09,0.1-0.13l4.31,2.34C30.77,27.58,30.73,27.63,30.69,27.67"/><path fill="#8b8c8e" d="M30.8,27.53l-4.31-2.34c0.03-0.05,0.07-0.1,0.09-0.15l4.31,2.34C30.86,27.43,30.83,27.49,30.8,27.53"/><path fill="#87898b" d="M30.89,27.38l-4.31-2.34c0.03-0.06,0.06-0.13,0.09-0.2l4.31,2.34C30.96,27.25,30.93,27.32,30.89,27.38"/><path fill="#848687" d="M30.98,27.18l-4.31-2.34c0.04-0.1,0.06-0.2,0.08-0.31l4.31,2.34C31.04,26.98,31.02,27.09,30.98,27.18"/></g><path fill="#c3c4c5" d="M30.63,27.73c0.22-0.22,0.38-0.53,0.43-0.86l3.65,1.79c-0.23,0.22-0.38,0.53-0.43,0.85L30.63,27.73z"/><polygon fill="#969899" points="31.06 26.88 26.75 24.53 30.39 26.32 34.7 28.66"/><defs><path id="U" d="M26.76,24.34c1.44,0.78,2.87,1.56,4.31,2.34c0,0.06,0,0.13-0.01,0.19l-4.31-2.34C26.76,24.47,26.76,24.4,26.76,24.34z" enable-background="new"/></defs><clipPath id="V"><use overflow="visible" xlink:href="#U"/></clipPath><g clip-path="url(#V)"><path fill="#909194" d="M31.06,26.88l-4.31-2.34c0.01-0.06,0.01-0.13,0.01-0.19c0-0.44-0.21-0.81-0.54-0.98l4.31,2.34c0.32,0.18,0.54,0.54,0.54,0.98C31.07,26.75,31.07,26.81,31.06,26.88"/></g><polygon fill="#b5b5b7" points="21.85 39.86 17.54 37.51 42.32 34.03 46.63 36.37"/><polygon fill="#a5a7a8" points="22.27 38.88 17.96 36.54 42.32 33.11 46.63 35.46"/><defs><path id="W" d="M22.91,31.85c0-0.29-0.09-0.55-0.24-0.74c1.27,0.69,2.54,1.38,3.81,2.07l0.5,0.27c0.15,0.19,0.24,0.44,0.24,0.74c0,0.69-0.52,1.32-1.16,1.41c-0.23,0.03-0.44-0.01-0.62-0.11l-4.31-2.35c0.18,0.1,0.39,0.14,0.62,0.11C22.39,33.17,22.91,32.53,22.91,31.85z" enable-background="new"/></defs><clipPath id="X"><use overflow="visible" xlink:href="#W"/></clipPath><g clip-path="url(#X)"><path fill="#a3a4a6" d="M25.44,35.5l-4.31-2.35c0.01,0.01,0.02,0.01,0.04,0.02l4.31,2.34C25.47,35.51,25.45,35.5,25.44,35.5"/><path fill="#a7a8aa" d="M25.48,35.52l-4.31-2.34c0.06,0.03,0.12,0.05,0.18,0.07l4.31,2.34C25.6,35.57,25.54,35.54,25.48,35.52"/><path fill="#ababae" d="M25.66,35.58l-4.31-2.34c0.12,0.03,0.26,0.04,0.4,0.02c0.12-0.02,0.23-0.05,0.34-0.1l4.31,2.34c-0.11,0.05-0.22,0.09-0.34,0.1C25.92,35.62,25.78,35.62,25.66,35.58"/><path fill="#a7a8aa" d="M26.4,35.5l-4.31-2.34c0.07-0.03,0.13-0.07,0.19-0.11l4.31,2.34C26.52,35.43,26.46,35.47,26.4,35.5"/><path fill="#a3a4a6" d="M26.58,35.39l-4.31-2.34c0.05-0.03,0.1-0.07,0.14-0.11l4.31,2.35C26.68,35.32,26.63,35.36,26.58,35.39"/><path fill="#9fa0a2" d="M26.72,35.28l-4.31-2.35c0.04-0.04,0.08-0.08,0.12-0.12l4.31,2.35C26.81,35.21,26.77,35.25,26.72,35.28"/><path fill="#9c9c9f" d="M26.84,35.16l-4.31-2.35c0.04-0.04,0.07-0.09,0.1-0.13l4.31,2.34C26.91,35.08,26.88,35.12,26.84,35.16"/><path fill="#98989b" d="M26.95,35.03l-4.31-2.34c0.03-0.05,0.07-0.1,0.09-0.15l4.31,2.34C27.01,34.93,26.98,34.98,26.95,35.03"/><path fill="#949597" d="M27.04,34.88l-4.31-2.34c0.03-0.06,0.06-0.13,0.09-0.2l4.31,2.34C27.1,34.75,27.08,34.81,27.04,34.88"/><path fill="#909194" d="M27.13,34.68l-4.31-2.34c0.06-0.16,0.09-0.32,0.09-0.49c0-0.29-0.09-0.55-0.24-0.74l4.31,2.34c0.15,0.19,0.24,0.44,0.24,0.74C27.22,34.36,27.19,34.53,27.13,34.68"/></g><polygon fill="#9d9ea0" points="26.98 33.45 22.67 31.11 25.41 25.77 29.72 28.12"/><g><defs><path id="Y" d="M29.72,28.12l-4.31-2.34c0.06,0,0.12,0,0.19-0.01c0.27-0.04,0.52-0.18,0.72-0.37l4.31,2.34c-0.2,0.2-0.45,0.33-0.72,0.37C29.85,28.12,29.78,28.12,29.72,28.12z" enable-background="new"/></defs><clipPath id="Z"><use overflow="visible" xlink:href="#Y"/></clipPath><g clip-path="url(#Z)"><path fill="#ababae" d="M29.72,28.12l-4.31-2.34c0.06,0,0.12,0,0.19-0.01c0.12-0.02,0.23-0.05,0.34-0.1L30.25,28c-0.11,0.05-0.22,0.09-0.34,0.1C29.85,28.12,29.78,28.12,29.72,28.12"/><path fill="#a7a8aa" d="M30.25,28l-4.31-2.34c0.06-0.03,0.13-0.07,0.19-0.11l4.31,2.34C30.38,27.94,30.31,27.97,30.25,28"/><path fill="#a3a4a6" d="M30.44,27.9l-4.31-2.34c0.05-0.03,0.1-0.07,0.14-0.11l4.31,2.34C30.53,27.83,30.48,27.86,30.44,27.9"/><path fill="#9fa0a2" d="M30.58,27.79l-4.31-2.34c0.02-0.02,0.04-0.03,0.06-0.05l4.31,2.34C30.61,27.75,30.59,27.77,30.58,27.79"/></g></g><g><defs><path id="aa" d="M22.67,31.11c-0.08-0.1-0.18-0.19-0.29-0.25l4.31,2.34c0.11,0.06,0.21,0.14,0.29,0.25C25.68,32.75,23.79,32.05,22.67,31.11z" enable-background="new"/></defs><clipPath id="ab"><use overflow="visible" xlink:href="#aa"/></clipPath><g clip-path="url(#ab)"><path fill="#848687" d="M26.98,33.45l-4.31-2.34c-0.08-0.1-0.18-0.19-0.29-0.25l4.31,2.34C26.8,33.27,26.9,33.35,26.98,33.45"/></g></g><g><defs><path id="ac" d="M24.99,25.66c0.13,0.07,0.27,0.11,0.43,0.12l4.31,2.34c-0.15-0.01-0.3-0.05-0.43-0.12C28,27.3,26.28,26.36,24.99,25.66z" enable-background="new"/></defs><clipPath id="ad"><use overflow="visible" xlink:href="#ac"/></clipPath><g clip-path="url(#ad)"><path fill="#959798" d="M29.3,28l-4.31-2.35c0.01,0.01,0.02,0.01,0.03,0.02l4.31,2.35C29.32,28.01,29.31,28.01,29.3,28"/><path fill="#999a9c" d="M29.33,28.02l-4.31-2.35c0.06,0.03,0.12,0.05,0.18,0.07l4.31,2.35C29.45,28.07,29.39,28.05,29.33,28.02"/><path fill="#9c9e9f" d="M29.51,28.09l-4.31-2.35c0.07,0.02,0.14,0.03,0.21,0.03l4.31,2.34C29.65,28.11,29.58,28.1,29.51,28.09"/></g></g><g><defs><path id="ae" d="M26.76,24.34c0-0.44-0.21-0.81-0.54-0.98l4.31,2.35c0.32,0.18,0.54,0.54,0.54,0.98C29.64,25.9,28.2,25.12,26.76,24.34C26.76,24.34,26.76,24.34,26.76,24.34z" enable-background="new"/></defs><clipPath id="af"><use overflow="visible" xlink:href="#ae"/></clipPath><g clip-path="url(#af)"><path fill="#909194" d="M31.06,26.88l-4.31-2.34c0.01-0.06,0.01-0.13,0.01-0.19c0-0.44-0.21-0.81-0.54-0.98l4.31,2.34c0.32,0.18,0.54,0.54,0.54,0.98C31.07,26.75,31.07,26.81,31.06,26.88"/></g></g><g><defs><path id="ag" d="M22.37,30.86l4.31,2.34c-0.13-0.07-0.28-0.11-0.43-0.12c-0.06,0-0.12,0-0.19,0.01l-4.31-2.34c0.06-0.01,0.13-0.01,0.19-0.01C22.1,30.75,22.24,30.79,22.37,30.86z" enable-background="new"/></defs><clipPath id="ah"><use overflow="visible" xlink:href="#ag"/></clipPath><g clip-path="url(#ah)"><path fill="#9a1740" d="M26.06,33.1l-4.31-2.34c0.06-0.01,0.13-0.01,0.19-0.01c0.08,0,0.15,0.01,0.22,0.03l4.31,2.34c-0.07-0.02-0.14-0.03-0.22-0.03C26.19,33.09,26.13,33.09,26.06,33.1"/><path fill="#97153f" d="M26.47,33.12l-4.31-2.34c0.06,0.02,0.12,0.04,0.18,0.07l4.31,2.34C26.59,33.16,26.53,33.14,26.47,33.12"/><path fill="#93143d" d="M26.65,33.19l-4.31-2.34c0.01,0.01,0.02,0.01,0.03,0.02l4.31,2.34C26.67,33.2,26.66,33.2,26.65,33.19"/></g></g><g><defs><path id="ai" d="M29.3,28l-4.31-2.35c-0.11-0.06-0.22-0.15-0.3-0.25c-0.15-0.19-0.24-0.45-0.24-0.74c0-0.69,0.52-1.32,1.16-1.41l4.31,2.34c-0.64,0.09-1.16,0.73-1.16,1.41c0,0.29,0.09,0.55,0.24,0.74C29.08,27.85,29.18,27.94,29.3,28z" enable-background="new"/></defs><clipPath id="aj"><use overflow="visible" xlink:href="#ai"/></clipPath><g clip-path="url(#aj)"><path fill="#8d562f" d="M29.3,28l-4.31-2.35c-0.11-0.06-0.22-0.15-0.3-0.25c-0.15-0.19-0.24-0.45-0.24-0.74c0-0.17,0.03-0.33,0.09-0.49l4.31,2.34c-0.06,0.15-0.09,0.32-0.09,0.49c0,0.29,0.09,0.55,0.24,0.74C29.08,27.85,29.18,27.94,29.3,28"/><path fill="#915931" d="M28.84,26.52l-4.31-2.34c0.02-0.07,0.05-0.13,0.09-0.2l4.31,2.34C28.9,26.39,28.87,26.46,28.84,26.52"/><path fill="#945b33" d="M28.93,26.33l-4.31-2.34c0.03-0.05,0.06-0.11,0.1-0.15l4.31,2.34C28.99,26.22,28.96,26.27,28.93,26.33"/><path fill="#985e35" d="M29.03,26.17l-4.31-2.34c0.03-0.05,0.07-0.09,0.11-0.13l4.31,2.34C29.09,26.08,29.06,26.13,29.03,26.17"/><path fill="#9c6036" d="M29.13,26.04l-4.31-2.34c0.04-0.04,0.08-0.08,0.12-0.12l4.31,2.34C29.21,25.96,29.17,26,29.13,26.04"/><path fill="#a06238" d="M29.25,25.92l-4.31-2.34c0.04-0.04,0.09-0.08,0.14-0.11l4.31,2.34C29.34,25.84,29.3,25.88,29.25,25.92"/><path fill="#a3653a" d="M29.39,25.81l-4.31-2.34c0.06-0.04,0.12-0.08,0.19-0.11l4.31,2.34C29.52,25.73,29.45,25.76,29.39,25.81"/><path fill="#a7673b" d="M29.58,25.7l-4.31-2.34c0.11-0.05,0.22-0.08,0.33-0.1l4.31,2.34C29.8,25.61,29.69,25.65,29.58,25.7"/></g></g><polygon fill="#909193" points="26.25 33.09 21.94 30.75 24.69 25.4 29 27.75"/><g><defs><path id="ak" d="M26.22,23.36l4.31,2.35c-0.18-0.1-0.39-0.14-0.62-0.11l-4.31-2.34C25.83,23.22,26.05,23.26,26.22,23.36z" enable-background="new"/></defs><clipPath id="al"><use overflow="visible" xlink:href="#ak"/></clipPath><g clip-path="url(#al)"><path fill="#a7673b" d="M29.92,25.6l-4.31-2.34c0.14-0.02,0.28-0.01,0.4,0.02l4.31,2.34C30.19,25.59,30.06,25.58,29.92,25.6"/><path fill="#a3653a" d="M30.32,25.62l-4.31-2.34c0.06,0.02,0.12,0.04,0.18,0.07l4.31,2.34C30.44,25.66,30.38,25.63,30.32,25.62"/><path fill="#a06238" d="M30.5,25.68l-4.31-2.34c0.01,0.01,0.02,0.01,0.04,0.02l4.31,2.35C30.52,25.7,30.51,25.69,30.5,25.68"/></g></g><g><defs><path id="am" d="M25.44,35.5l-4.31-2.35c-0.32-0.18-0.54-0.54-0.54-0.98c0-0.69,0.53-1.32,1.16-1.41l4.31,2.34c-0.64,0.09-1.16,0.72-1.16,1.41C24.9,34.96,25.12,35.32,25.44,35.5z" enable-background="new"/></defs><clipPath id="an"><use overflow="visible" xlink:href="#am"/></clipPath><g clip-path="url(#an)"><path fill="#820c34" d="M25.44,35.5l-4.31-2.35c-0.32-0.18-0.54-0.54-0.54-0.98c0-0.17,0.03-0.34,0.09-0.49l4.31,2.35c-0.06,0.16-0.09,0.32-0.09,0.49C24.9,34.96,25.12,35.32,25.44,35.5"/><path fill="#860e36" d="M24.99,34.02l-4.31-2.35c0.02-0.07,0.05-0.13,0.09-0.19l4.31,2.35C25.04,33.89,25.01,33.96,24.99,34.02"/><path fill="#890f37" d="M25.08,33.83l-4.31-2.35c0.03-0.05,0.06-0.1,0.09-0.15l4.31,2.34C25.14,33.72,25.11,33.78,25.08,33.83"/><path fill="#8c1139" d="M25.17,33.68l-4.31-2.34c0.03-0.05,0.07-0.09,0.1-0.13l4.31,2.34C25.24,33.59,25.2,33.63,25.17,33.68"/><path fill="#90123b" d="M25.28,33.54l-4.31-2.34c0.04-0.04,0.08-0.08,0.12-0.12l4.31,2.34C25.35,33.46,25.31,33.5,25.28,33.54"/><path fill="#93143d" d="M25.39,33.42l-4.31-2.34c0.04-0.04,0.09-0.08,0.14-0.11l4.31,2.34C25.49,33.35,25.44,33.38,25.39,33.42"/><path fill="#97153f" d="M25.54,33.31l-4.31-2.34c0.06-0.04,0.12-0.08,0.19-0.11l4.31,2.35C25.66,33.23,25.6,33.27,25.54,33.31"/><path fill="#9a1740" d="M25.72,33.2l-4.31-2.35c0.11-0.05,0.22-0.09,0.34-0.1l4.31,2.34C25.94,33.12,25.83,33.15,25.72,33.2"/></g></g><g><defs><path id="ao" d="M21.63,39.82l-4.31-2.34c0.07,0.04,0.14,0.05,0.23,0.04l4.31,2.34C21.77,39.87,21.69,39.85,21.63,39.82z" enable-background="new"/></defs><clipPath id="ap"><use overflow="visible" xlink:href="#ao"/></clipPath><g clip-path="url(#ap)"><path fill="#a3a4a6" d="M21.63,39.82l-4.31-2.34c0,0,0.01,0,0.01,0.01l4.31,2.35C21.64,39.82,21.63,39.82,21.63,39.82"/><path fill="#a7a8aa" d="M21.64,39.82l-4.31-2.35c0.02,0.01,0.04,0.02,0.07,0.02l4.31,2.34C21.68,39.84,21.66,39.83,21.64,39.82"/><path fill="#ababae" d="M21.71,39.85L17.4,37.5c0.05,0.01,0.1,0.01,0.15,0.01l4.31,2.34C21.8,39.86,21.75,39.86,21.71,39.85"/></g></g><path fill="#d1804c" d="M29.92,25.6c0.64-0.09,1.16,0.4,1.16,1.09c0,0.06,0,0.13-0.01,0.19c-0.05,0.33-0.2,0.63-0.43,0.86c-0.2,0.2-0.45,0.33-0.72,0.37c-0.06,0.01-0.13,0.01-0.19,0.01c-0.29-0.01-0.55-0.15-0.73-0.37c-0.15-0.19-0.24-0.45-0.24-0.74C28.76,26.32,29.28,25.69,29.92,25.6z"/><g><defs><path id="aq" d="M21.63,39.82l-4.31-2.34c-0.12-0.06-0.2-0.2-0.2-0.36l4.31,2.34C21.43,39.62,21.51,39.75,21.63,39.82z" enable-background="new"/></defs><clipPath id="ar"><use overflow="visible" xlink:href="#aq"/></clipPath><g clip-path="url(#ar)"><path fill="#848687" d="M21.63,39.82l-4.31-2.34c-0.12-0.06-0.2-0.2-0.2-0.36l4.31,2.34C21.43,39.62,21.51,39.75,21.63,39.82"/></g></g><g><defs><path id="as" d="M23.46,16.87l-4.31-2.34c0.17-0.2,0.18-0.49,0.02-0.65l4.31,2.34C23.63,16.38,23.62,16.67,23.46,16.87z" enable-background="new"/></defs><clipPath id="at"><use overflow="visible" xlink:href="#as"/></clipPath><g clip-path="url(#at)"><path fill="#9c9c9f" d="M23.46,16.87l-4.31-2.34c0.01-0.01,0.02-0.03,0.03-0.04l4.31,2.34C23.48,16.84,23.47,16.85,23.46,16.87"/><path fill="#98989b" d="M23.49,16.83l-4.31-2.34c0.01-0.02,0.02-0.04,0.03-0.05l4.31,2.34C23.51,16.79,23.5,16.81,23.49,16.83"/><path fill="#949597" d="M23.52,16.77l-4.31-2.34c0.01-0.02,0.02-0.05,0.03-0.07l4.31,2.34C23.55,16.73,23.53,16.75,23.52,16.77"/><path fill="#909194" d="M23.55,16.7l-4.31-2.34c0.06-0.17,0.04-0.36-0.08-0.48l4.31,2.34C23.59,16.34,23.62,16.53,23.55,16.7"/></g></g><g><defs><path id="au" d="M22.95,17l-4.31-2.34c0.06,0.04,0.14,0.05,0.21,0.04c0.11-0.01,0.21-0.07,0.3-0.16l4.31,2.34c-0.08,0.09-0.19,0.15-0.3,0.16C23.08,17.04,23.01,17.03,22.95,17z" enable-background="new"/></defs><clipPath id="av"><use overflow="visible" xlink:href="#au"/></clipPath><g clip-path="url(#av)"><path fill="#a3a4a6" d="M22.95,17l-4.31-2.35c0,0,0.01,0,0.01,0.01L22.96,17C22.96,17,22.95,17,22.95,17"/><path fill="#a7a8aa" d="M22.96,17l-4.31-2.34c0.02,0.01,0.04,0.02,0.06,0.02l4.31,2.35C23,17.02,22.98,17.01,22.96,17"/><path fill="#ababae" d="M23.02,17.03l-4.31-2.35c0.04,0.01,0.09,0.01,0.14,0.01c0.04-0.01,0.09-0.02,0.13-0.04l4.31,2.35c-0.04,0.02-0.09,0.03-0.13,0.04C23.11,17.04,23.07,17.04,23.02,17.03"/><path fill="#a7a8aa" d="M23.29,16.99l-4.31-2.35c0.02-0.01,0.05-0.03,0.07-0.04l4.31,2.34C23.34,16.97,23.32,16.98,23.29,16.99"/><path fill="#a3a4a6" d="M23.36,16.95l-4.31-2.34c0.02-0.01,0.04-0.03,0.05-0.04l4.31,2.34C23.4,16.93,23.38,16.94,23.36,16.95"/><path fill="#9fa0a2" d="M23.41,16.91l-4.31-2.34c0.01-0.01,0.03-0.03,0.04-0.04l4.31,2.34C23.44,16.88,23.43,16.9,23.41,16.91"/></g></g><g><defs><path id="aw" d="M22.95,17l-4.31-2.34c-0.03-0.02-0.06-0.04-0.09-0.07l4.31,2.35C22.89,16.96,22.92,16.98,22.95,17z" enable-background="new"/></defs><clipPath id="ax"><use overflow="visible" xlink:href="#aw"/></clipPath><g clip-path="url(#ax)"><path fill="#848687" d="M22.95,17l-4.31-2.34c-0.03-0.02-0.06-0.04-0.09-0.07l4.31,2.35C22.89,16.96,22.92,16.98,22.95,17"/></g></g><polygon fill="#808183" points="22.86 16.93 18.55 14.58 18 14.05 22.31 16.39"/><polygon fill="#8e8f91" points="22.27 38.88 17.96 36.54 18 14.05 22.31 16.39"/><polygon fill="#828385" points="21.43 39.46 17.12 37.11 17.16 14.16 21.47 16.51"/><polygon fill="#8c8d8f" points="23.47 16.22 19.16 13.88 17.89 12.59 22.2 14.94"/><polygon fill="#a6a6a8" points="20.93 17.2 16.62 14.85 17.16 14.16 21.47 16.51"/><g><defs><path id="ay" d="M17.89,12.59c-0.02-0.02-0.05-0.04-0.08-0.06l4.31,2.35c0.03,0.02,0.05,0.03,0.08,0.06C20.91,14.23,19.19,13.29,17.89,12.59z" enable-background="new"/></defs><clipPath id="az"><use overflow="visible" xlink:href="#ay"/></clipPath><g clip-path="url(#az)"><path fill="#909194" d="M22.2,14.94l-4.31-2.34c-0.02-0.02-0.05-0.04-0.08-0.06l4.31,2.35C22.16,14.89,22.18,14.91,22.2,14.94"/></g></g><g><defs><path id="aA" d="M17.82,12.53l4.31,2.35c-0.07-0.04-0.15-0.05-0.23-0.04l-4.31-2.34C17.67,12.48,17.75,12.5,17.82,12.53z" enable-background="new"/></defs><clipPath id="aB"><use overflow="visible" xlink:href="#aA"/></clipPath><g clip-path="url(#aB)"><path fill="#9c9e9f" d="M21.9,14.84l-4.31-2.34c0.05-0.01,0.1,0,0.15,0.01l4.31,2.34C22,14.83,21.95,14.83,21.9,14.84"/><path fill="#999a9c" d="M22.05,14.85l-4.31-2.34c0.02,0.01,0.04,0.01,0.06,0.02l4.31,2.34C22.09,14.86,22.07,14.85,22.05,14.85"/><path fill="#959798" d="M22.12,14.87l-4.31-2.34c0,0,0.01,0,0.01,0.01l4.31,2.35C22.12,14.87,22.12,14.87,22.12,14.87"/></g></g><g><defs><path id="aC" d="M20.39,17.35L16.08,15c0.07,0.04,0.15,0.05,0.23,0.04c0.11-0.02,0.23-0.08,0.31-0.19l4.31,2.34c-0.08,0.11-0.2,0.17-0.31,0.19C20.54,17.4,20.46,17.39,20.39,17.35z" enable-background="new"/></defs><clipPath id="aD"><use overflow="visible" xlink:href="#aC"/></clipPath><g clip-path="url(#aD)"><path fill="#a3a4a6" d="M20.39,17.35L16.08,15c0,0,0.01,0,0.01,0.01l4.31,2.34C20.4,17.35,20.39,17.35,20.39,17.35"/><path fill="#a7a8aa" d="M20.4,17.36l-4.31-2.34c0.02,0.01,0.04,0.02,0.07,0.03l4.31,2.34C20.45,17.38,20.43,17.37,20.4,17.36"/><path fill="#ababae" d="M20.47,17.38l-4.31-2.34c0.05,0.01,0.1,0.01,0.15,0.01c0.04-0.01,0.08-0.02,0.12-0.04l4.31,2.35c-0.04,0.02-0.08,0.03-0.12,0.04C20.57,17.4,20.52,17.39,20.47,17.38"/><path fill="#a7a8aa" d="M20.74,17.35l-4.31-2.35c0.02-0.01,0.05-0.02,0.07-0.04l4.31,2.34C20.79,17.33,20.76,17.34,20.74,17.35"/><path fill="#a3a4a6" d="M20.81,17.31l-4.31-2.34c0.02-0.01,0.03-0.03,0.05-0.04l4.31,2.35C20.84,17.29,20.83,17.3,20.81,17.31"/><path fill="#9fa0a2" d="M20.86,17.27l-4.31-2.35c0.01-0.01,0.03-0.03,0.04-0.04l4.31,2.34C20.89,17.25,20.87,17.26,20.86,17.27"/><path fill="#9c9c9f" d="M20.9,17.23l-4.31-2.34c0.01-0.01,0.02-0.02,0.03-0.03l4.31,2.34C20.92,17.21,20.91,17.22,20.9,17.23"/></g></g><g><defs><path id="aE" d="M21.59,15.02l-4.31-2.34c0.08-0.1,0.19-0.17,0.31-0.18l4.31,2.34C21.78,14.86,21.67,14.92,21.59,15.02z" enable-background="new"/></defs><clipPath id="aF"><use overflow="visible" xlink:href="#aE"/></clipPath><g clip-path="url(#aF)"><path fill="#8e9092" d="M21.59,15.02l-4.31-2.34c0-0.01,0.01-0.01,0.01-0.02L21.6,15C21.6,15.01,21.59,15.02,21.59,15.02"/><path fill="#929395" d="M21.6,15l-4.31-2.34c0.01-0.02,0.03-0.03,0.05-0.05l4.31,2.34C21.63,14.97,21.62,14.99,21.6,15"/><path fill="#959798" d="M21.65,14.96l-4.31-2.34c0.02-0.01,0.03-0.03,0.05-0.04l4.31,2.34C21.68,14.93,21.67,14.94,21.65,14.96"/><path fill="#999a9c" d="M21.7,14.92l-4.31-2.34c0.02-0.02,0.04-0.03,0.07-0.04l4.31,2.34C21.75,14.89,21.72,14.9,21.7,14.92"/><path fill="#9c9e9f" d="M21.77,14.88l-4.31-2.34c0.04-0.02,0.08-0.03,0.13-0.04l4.31,2.34C21.86,14.85,21.81,14.86,21.77,14.88"/></g></g><g><defs><path id="aG" d="M20.39,17.35l-4.31-2.34c-0.02-0.01-0.04-0.03-0.06-0.04l4.31,2.35C20.35,17.32,20.37,17.34,20.39,17.35z" enable-background="new"/></defs><clipPath id="aH"><use overflow="visible" xlink:href="#aG"/></clipPath><g clip-path="url(#aH)"><path fill="#848687" d="M20.39,17.35l-4.31-2.34c-0.02-0.01-0.04-0.03-0.06-0.04l4.31,2.35C20.35,17.32,20.37,17.34,20.39,17.35"/></g></g><polygon fill="#97989a" points="20.31 16.66 16 14.32 17.28 12.68 21.59 15.02"/><path fill="#c3c4c5" d="M21.9,14.84c0.11-0.02,0.23,0.02,0.3,0.1l1.27,1.28c0.16,0.16,0.15,0.45-0.02,0.65c-0.08,0.09-0.19,0.15-0.3,0.16c-0.11,0.02-0.22-0.02-0.3-0.1l-0.54-0.54l-0.04,22.49l24.36-3.42l-0.57-0.51c-0.17-0.15-0.17-0.43-0.01-0.64c0.09-0.11,0.2-0.17,0.31-0.18c0.1-0.01,0.21,0.01,0.29,0.08l1.34,1.19l0.09,0.13l0.05,0.19l-0.04,0.19l-0.09,0.16l-1.35,1.56c-0.08,0.1-0.18,0.16-0.29,0.17c-0.11,0.02-0.23-0.02-0.31-0.1c-0.16-0.16-0.15-0.45,0.02-0.65l0.58-0.66l-24.78,3.48c-0.23,0.03-0.42-0.14-0.42-0.4l0.04-22.95l-0.55,0.69c-0.08,0.11-0.2,0.17-0.31,0.19c-0.1,0.01-0.21-0.01-0.29-0.08c-0.17-0.15-0.17-0.44-0.01-0.64l1.28-1.64C21.67,14.92,21.78,14.86,21.9,14.84z"/><g><defs><path id="aI" d="M20.33,17.31l-4.31-2.35c-0.17-0.15-0.17-0.44-0.01-0.64l4.31,2.34C20.16,16.87,20.16,17.16,20.33,17.31z" enable-background="new"/></defs><clipPath id="aJ"><use overflow="visible" xlink:href="#aI"/></clipPath><g clip-path="url(#aJ)"><path fill="#848687" d="M20.33,17.31l-4.31-2.35c-0.13-0.11-0.16-0.32-0.1-0.5l4.31,2.35C20.17,16.99,20.2,17.19,20.33,17.31"/><path fill="#87898b" d="M20.23,16.81l-4.31-2.35c0.01-0.02,0.02-0.05,0.03-0.07l4.31,2.35C20.25,16.76,20.24,16.79,20.23,16.81"/><path fill="#8b8c8e" d="M20.26,16.74l-4.31-2.35c0.01-0.02,0.02-0.04,0.03-0.05l4.31,2.34C20.28,16.71,20.27,16.72,20.26,16.74"/><path fill="#8e9092" d="M20.3,16.69l-4.31-2.34c0.01-0.01,0.01-0.02,0.02-0.02l4.31,2.34C20.31,16.67,20.3,16.68,20.3,16.69"/></g></g><path fill="#d6d6d7" d="M10.98,12.53L57.4,6.01l-0.06,33.49l-46.42,6.52L10.98,12.53z M48.07,35.9l0.05-0.19l-0.04-0.17l-0.09-0.13l-1.35-1.19c-0.08-0.07-0.18-0.1-0.29-0.08c-0.11,0.02-0.22,0.08-0.31,0.18c-0.16,0.21-0.15,0.5,0.01,0.64l0.57,0.51l-24.36,3.42l0.04-22.49l0.54,0.54c0.08,0.09,0.19,0.12,0.3,0.1c0.11-0.01,0.21-0.07,0.3-0.16c0.17-0.2,0.18-0.49,0.02-0.65l-1.27-1.28c-0.08-0.08-0.19-0.11-0.3-0.1c-0.12,0.02-0.23,0.08-0.3,0.18l-1.28,1.64c-0.16,0.2-0.15,0.5,0.01,0.64c0.08,0.07,0.19,0.1,0.29,0.08c0.11-0.02,0.23-0.08,0.31-0.19l0.55-0.69l-0.04,22.95c0,0.25,0.19,0.43,0.42,0.4l24.78-3.48l-0.58,0.66c-0.17,0.2-0.17,0.49-0.02,0.65c0.08,0.09,0.2,0.12,0.31,0.1c0.11-0.01,0.21-0.07,0.29-0.17l1.34-1.56L48.07,35.9 M26.06,33.1c-0.64,0.09-1.16,0.72-1.16,1.41c0,0.69,0.52,1.18,1.16,1.09c0.64-0.09,1.16-0.73,1.16-1.41c0-0.29-0.09-0.55-0.24-0.74l2.75-5.34c0.06,0,0.12,0,0.19-0.01c0.27-0.04,0.52-0.18,0.72-0.37l3.64,1.78c-0.01,0.06-0.01,0.13-0.01,0.19c0,0.69,0.51,1.18,1.16,1.09c0.64-0.09,1.16-0.73,1.16-1.41c0-0.33-0.12-0.62-0.31-0.81l2-4.77c0.03,0,0.06,0,0.08-0.01c0.64-0.09,1.16-0.73,1.16-1.41c0-0.1-0.01-0.19-0.03-0.28l3.56-3.14c0.19,0.11,0.41,0.16,0.65,0.12c0.64-0.09,1.16-0.72,1.16-1.41c0-0.69-0.52-1.18-1.16-1.09c-0.64,0.09-1.16,0.72-1.16,1.41c0,0.1,0.01,0.19,0.03,0.28L39,21.41c-0.18-0.11-0.41-0.15-0.65-0.12c-0.64,0.09-1.16,0.72-1.16,1.41c0,0.33,0.12,0.61,0.31,0.81l-1.99,4.78c-0.03,0-0.06,0-0.08,0.01c-0.27,0.04-0.52,0.17-0.72,0.37l-3.65-1.79c0.01-0.06,0.01-0.13,0.01-0.19c0-0.69-0.51-1.18-1.16-1.09c-0.64,0.09-1.16,0.73-1.16,1.41c0,0.29,0.09,0.55,0.24,0.74l-2.75,5.34C26.19,33.09,26.13,33.09,26.06,33.1"/><path fill="#314d68" d="M35.42,28.3c0.03,0,0.06-0.01,0.08-0.01c0.3-0.02,0.57,0.09,0.76,0.28c0.19,0.2,0.31,0.48,0.31,0.81c0,0.69-0.52,1.32-1.16,1.41c-0.64,0.09-1.16-0.4-1.16-1.09c0-0.06,0-0.13,0.01-0.19c0.05-0.33,0.2-0.63,0.43-0.85C34.9,28.47,35.15,28.33,35.42,28.3z"/><path fill="#c02452" d="M26.06,33.1c0.06-0.01,0.13-0.01,0.19-0.01c0.3,0.01,0.55,0.14,0.73,0.36c0.15,0.19,0.24,0.44,0.24,0.74c0,0.69-0.52,1.32-1.16,1.41c-0.64,0.09-1.16-0.4-1.16-1.09C24.9,33.82,25.43,33.19,26.06,33.1z"/><path fill="#c3c4c5" d="M29,27.75c0.18,0.22,0.43,0.36,0.73,0.37l-2.75,5.34c-0.17-0.22-0.43-0.35-0.73-0.36L29,27.75z"/><polygon fill="#b18c56" points="36.52 5.55 32.21 3.21 55.02 0 59.33 2.34"/><polygon fill="#b18c56" points="31.87 6.2 27.56 3.86 32.21 3.21 36.52 5.55"/><polygon fill="#866639" points="31.87 6.2 27.56 3.86 27.57 1.48 31.88 3.82"/><polygon fill="#aa814b" points="31.88 3.82 27.57 1.48 32.21 .83 36.52 3.17"/><polygon fill="#ca985a" points="36.52 3.17 36.52 5.55 31.87 6.2 31.88 3.82"/><polygon fill="#b5b5b7" points="10.98 12.53 6.67 10.19 53.09 3.66 57.4 6.01"/><polygon fill="#8e8f91" points="10.92 46.02 6.61 43.67 6.67 10.19 10.98 12.53"/><polygon fill="#b18c56" points="9.06 9.41 4.75 7.07 27.56 3.86 31.87 6.2"/><polygon fill="#8b6f42" points="9.05 12.8 4.74 10.46 4.75 7.07 9.06 9.41"/><polygon fill="#d3a666" points="59.33 2.34 59.33 5.74 57.4 6.01 10.98 12.53 9.05 12.8 9.06 9.41 31.87 6.2 36.52 5.55"/></g></svg>