<svg xmlns="http://www.w3.org/2000/svg" enable-background="new 0 0 64 64" viewBox="0 0 64 64"><path fill="#69cdf5" d="M14.57,51.53l6.94,2.83c1.13,0.46,1.87,1.56,1.88,2.78l0.01,2.92H0l0-2.79c0-1.21,0.73-2.3,1.84-2.77
							l6.99-2.95"/><path fill="#ef4d42" d="M20.96,49.24c0,0-2.36,3.08-6.19,0.83l2.29-3.23c0.42-0.6,0.42-1.39,0-1.99
						c-0.99-1.43-1.56-3.81-1.81-5.17c-0.06-0.35-0.53-0.44-0.73-0.14c-2.44,3.58-5.27,3.84-7.44,4.72
						c-0.97,0.4-1.37,1.56-0.84,2.47l2.47,3.45c-2.74,2.43-6.26-0.95-6.26-0.95c2.78-0.22,2.72-3.84,2.58-5.37
						c-0.09-0.91-0.09-1.84,0.05-2.74c0.98-6.32,6.71-5.21,6.71-5.21s4.77-1.17,6.35,3.31c0.29,0.84,0.39,1.72,0.36,2.61
						C18.4,43.85,18.46,48.92,20.96,49.24z"/><path fill="#545554" d="M11.82 57.66c-.43 0-.83-.15-1.14-.44-1.44-1.32-2.25-3.6-2.48-6.99-.02-.28.19-.51.46-.53.27-.01.51.19.53.46.21 3.08.94 5.2 2.16 6.32.14.13.32.19.52.18.21-.02.4-.12.53-.27.9-1.11 1.49-3.13 1.86-6.37.03-.27.28-.47.55-.44.27.03.47.28.44.55-.38 3.43-1.04 5.62-2.07 6.89-.3.37-.75.61-1.23.64C11.91 57.66 11.86 57.66 11.82 57.66zM17.61 56.42h-2.24c-.28 0-.5-.22-.5-.5s.22-.5.5-.5h2.24c.28 0 .5.22.5.5S17.89 56.42 17.61 56.42zM4.47 60.07c-.28 0-.5-.22-.5-.5v-1.99c0-.28.22-.5.5-.5s.5.22.5.5v1.99C4.97 59.84 4.74 60.07 4.47 60.07zM18.93 60.07c-.28 0-.5-.22-.5-.5v-1.99c0-.28.22-.5.5-.5s.5.22.5.5v1.99C19.43 59.84 19.21 60.07 18.93 60.07z"/><path fill="#69cdf5" d="M55.06,52.48l7.03,2.86c1.14,0.47,1.89,1.58,1.9,2.81L64,61.11H40.31l0-2.83c0-1.22,0.74-2.33,1.86-2.81
								l7.07-2.99"/><path fill="#545554" d="M58.14 57.42h-2.27c-.28 0-.5-.22-.5-.5s.22-.5.5-.5h2.27c.28 0 .5.22.5.5S58.42 57.42 58.14 57.42zM44.83 61.12c-.28 0-.5-.22-.5-.5v-2.01c0-.28.22-.5.5-.5s.5.22.5.5v2.01C45.33 60.89 45.11 61.12 44.83 61.12zM59.48 61.12c-.28 0-.5-.22-.5-.5v-2.01c0-.28.22-.5.5-.5s.5.22.5.5v2.01C59.98 60.89 59.76 61.12 59.48 61.12z"/><path fill="#ef4d42" d="M46.71,40.65c0.86,0.45,1.62,0.33,2.27-0.41l1.83,0.97c2.76,0.9,5.03-0.98,5.03-0.98l1.82,0.26l0.06,2.52
							c0.23-0.11,2.33-1.33,1.45-3.83c0,0-0.15-0.81-1.04-1.36l0.01-0.01c0,0-0.53-4.19-6.04-2.8c0,0-2.29-0.57-4.43,0.42
							c-3.38,1.58-3.51,5.93-1.12,7.98L46.71,40.65z"/><path fill="#545554" d="M52.16,51.33c-1.63,0-3.16-0.63-4.31-1.78c-1.15-1.15-1.78-2.68-1.78-4.31v-4.85
								c0-0.21,0.13-0.4,0.33-0.47c0.2-0.07,0.42-0.01,0.55,0.14c0,0,0.33,0.37,0.76,0.37c0,0,0,0,0,0c0.3,0,0.6-0.18,0.91-0.53
								c0.18-0.21,0.5-0.23,0.71-0.04c0.21,0.18,0.23,0.5,0.04,0.71c-0.51,0.58-1.07,0.87-1.66,0.87c0,0-0.01,0-0.01,0
								c-0.23,0-0.44-0.05-0.63-0.12v3.92c0,1.36,0.53,2.64,1.49,3.6c0.96,0.96,2.24,1.49,3.6,1.49c2.81,0,5.09-2.28,5.09-5.09
								v-4.19c-0.47,0.05-1.11-0.02-1.76-0.56c-0.21-0.18-0.24-0.49-0.07-0.7c0.18-0.21,0.49-0.24,0.7-0.07
								c0.73,0.6,1.37,0.25,1.38,0.24c0.16-0.09,0.35-0.09,0.5,0c0.15,0.09,0.25,0.25,0.25,0.43v4.85
								C58.24,48.6,55.51,51.33,52.16,51.33z"/><path fill="#545554" d="M52.53,42.01c-2.03,0-3.87-1.21-4.83-2.2c-0.19-0.2-0.19-0.51,0.01-0.71c0.2-0.19,0.51-0.19,0.71,0.01
								c0.15,0.16,3.78,3.76,7.05,0.63c0.2-0.19,0.52-0.18,0.71,0.02c0.19,0.2,0.18,0.52-0.02,0.71
								C54.97,41.59,53.72,42.01,52.53,42.01z"/><path fill="#545554" d="M46.57 43.91c-.27 0-.49-.21-.5-.49l-.08-2.82c0-.18.09-.35.25-.45s.35-.09.51 0c1.22.73 1.77-.09 1.83-.18.14-.24.45-.31.69-.16.24.14.31.45.16.69-.31.51-1.17 1.23-2.42.86l.06 2.03c.01.28-.21.51-.49.51C46.58 43.91 46.57 43.91 46.57 43.91zM49.23 53.16c-.28 0-.5-.22-.5-.5V50c0-.28.22-.5.5-.5s.5.22.5.5v2.66C49.73 52.94 49.51 53.16 49.23 53.16zM55.08 53.16c-.27 0-.49-.21-.5-.48-.01-.19 0-2.67 0-2.67l1 0c0 0-.01 2.43 0 2.62.01.28-.2.51-.48.52C55.09 53.16 55.09 53.16 55.08 53.16z"/><path fill="#69cdf5" d="M35.19,22.4l7.73,3.15c1.26,0.51,2.08,1.73,2.09,3.09l0.01,3.25H18.98l0-3.11c0-1.35,0.81-2.56,2.05-3.08
						l7.78-3.29"/><path fill="#545554" d="M38.58 27.79h-2.5c-.28 0-.5-.22-.5-.5s.22-.5.5-.5h2.5c.28 0 .5.22.5.5S38.86 27.79 38.58 27.79zM23.95 31.85c-.28 0-.5-.22-.5-.5v-2.21c0-.28.22-.5.5-.5s.5.22.5.5v2.21C24.45 31.63 24.22 31.85 23.95 31.85zM40.05 31.85c-.28 0-.5-.22-.5-.5v-2.21c0-.28.22-.5.5-.5s.5.22.5.5v2.21C40.55 31.63 40.33 31.85 40.05 31.85z"/><g><path fill="#ef4d42" d="M26.01,9.39c0.95,0.5,1.78,0.36,2.5-0.45l2.01,1.06c3.03,0.99,5.53-1.07,5.53-1.07l2,0.29l0.07,2.77
					c0.25-0.12,2.56-1.46,1.6-4.21c0,0-0.16-0.89-1.15-1.5l0.01-0.01c0,0-0.59-4.61-6.64-3.08c0,0-2.52-0.62-4.87,0.46
					c-3.72,1.74-3.86,6.52-1.24,8.78L26.01,9.39z"/><path fill="#545554" d="M32,21.09c-1.78,0-3.45-0.69-4.7-1.94c-1.25-1.25-1.95-2.92-1.95-4.7V9.12c0-0.21,0.13-0.4,0.33-0.47
						c0.2-0.07,0.42-0.01,0.55,0.14c0,0,0.38,0.42,0.88,0.42c0.34,0,0.69-0.2,1.04-0.6c0.18-0.21,0.5-0.23,0.71-0.04
						c0.21,0.18,0.23,0.5,0.04,0.71c-0.55,0.63-1.19,0.92-1.8,0.94c-0.28,0-0.53-0.07-0.74-0.15v4.39c0,1.51,0.59,2.93,1.65,3.99
						c1.07,1.07,2.48,1.65,3.99,1.65c3.11,0,5.65-2.53,5.65-5.65V9.78c-0.51,0.07-1.22,0-1.95-0.6c-0.21-0.18-0.24-0.49-0.07-0.7
						s0.49-0.24,0.7-0.07c0.83,0.68,1.56,0.27,1.57,0.27c0.16-0.09,0.35-0.09,0.5,0c0.15,0.09,0.25,0.25,0.25,0.43v5.33
						C38.65,18.11,35.66,21.09,32,21.09z"/><path fill="#545554" d="M32.45,10.85c-2.91,0-5.28-2.37-5.31-2.4c-0.19-0.2-0.19-0.51,0.01-0.71c0.2-0.19,0.51-0.19,0.71,0.01
						c0.17,0.17,4.19,4.17,7.82,0.69c0.2-0.19,0.52-0.18,0.71,0.02c0.19,0.2,0.18,0.52-0.02,0.71
						C35.05,10.41,33.7,10.85,32.45,10.85z"/><path fill="#545554" d="M25.86,12.93c-0.27,0-0.49-0.21-0.5-0.49l-0.09-3.1c0-0.18,0.09-0.35,0.25-0.45s0.35-0.09,0.51,0
						c1.38,0.83,2.01-0.11,2.08-0.22c0.14-0.24,0.45-0.31,0.69-0.16c0.24,0.14,0.31,0.45,0.16,0.69c-0.34,0.56-1.29,1.34-2.67,0.91
						l0.07,2.3c0.01,0.28-0.21,0.51-0.49,0.51C25.87,12.93,25.86,12.93,25.86,12.93z"/></g><g><path fill="#545554" d="M28.79 23.1c-.28 0-.5-.22-.5-.5v-2.92c0-.28.22-.5.5-.5s.5.22.5.5v2.92C29.29 22.88 29.06 23.1 28.79 23.1zM35.22 23.1c-.27 0-.49-.21-.5-.48-.01-.21 0-2.65 0-2.93 0-.28.26-.49.5-.5.28 0 .5.23.5.5 0 1.04-.01 2.74 0 2.88.01.28-.2.51-.48.52C35.23 23.1 35.22 23.1 35.22 23.1z"/></g><g><path fill="#545554" d="M32,45.71c-0.28,0-0.5-0.22-0.5-0.5V34.07c0-0.28,0.22-0.5,0.5-0.5s0.5,0.22,0.5,0.5v11.14
					C32.5,45.48,32.28,45.71,32,45.71z"/><path fill="#545554" d="M43.36,45.71H20.64c-0.28,0-0.5-0.22-0.5-0.5s0.22-0.5,0.5-0.5h22.72c0.28,0,0.5,0.22,0.5,0.5
					S43.64,45.71,43.36,45.71z"/></g><rect width="7.42" height="7.42" x="28.29" y="41.49" fill="#d7d7d7"/><g><rect width="7.42" height="7.42" x="48.11" y="24.05" fill="#d7d7d7"/><path fill="#545554" d="M51.95,29.66c-0.13,0-0.26-0.05-0.35-0.15l-2.12-2.12c-0.2-0.2-0.2-0.51,0-0.71s0.51-0.2,0.71,0l1.76,1.76
				l4.31-4.31c0.2-0.2,0.51-0.2,0.71,0s0.2,0.51,0,0.71l-4.67,4.66C52.21,29.61,52.08,29.66,51.95,29.66z"/></g><rect width="7.42" height="7.42" x="7.85" y="24.05" fill="#d7d7d7"/><g><path fill="#545554" d="M11.68,29.66c-0.13,0-0.26-0.05-0.35-0.15L9.21,27.4c-0.2-0.2-0.2-0.51,0-0.71s0.51-0.2,0.71,0l1.76,1.76
			l4.31-4.31c0.2-0.2,0.51-0.2,0.71,0s0.2,0.51,0,0.71l-4.66,4.66C11.94,29.61,11.81,29.66,11.68,29.66z"/></g></svg>