<svg xmlns="http://www.w3.org/2000/svg" xmlns:xlink="http://www.w3.org/1999/xlink" width="48" height="48" viewBox="0 0 48 48"><defs><linearGradient id="b" x1="1073.403" x2="1097.116" y1="516.451" y2="544.308" gradientTransform="translate(-1643.872 211.343) scale(1.53785)" gradientUnits="userSpaceOnUse" xlink:href="#a"/><linearGradient id="a"><stop offset="0" stop-color="#16ff6a"/><stop offset="1" stop-color="#0090a5"/></linearGradient></defs><g transform="translate(0 -1004.362)"><rect width="48" height="48" y="1004.362" fill="url(#b)" rx="10.144" ry="10.144"/><path fill="#fff" d="m 12.5,1013.0649 a 0.50005,0.50005 0 0 0 -0.5,0.5 l 0,24.9902 a 0.50005,0.50005 0 0 0 0.5,0.5 l 2.265625,0 1.513672,0 -0.550781,1.6485 a 0.50005,0.50005 0 0 0 0.632812,0.6328 l 4.240234,-1.4141 a 0.50004994,0.50004994 0 0 0 0.119141,-0.059 0.50005,0.50005 0 0 0 0.01367,-0.01 0.50004994,0.50004994 0 0 0 0.002,0 0.50005,0.50005 0 0 0 0.0078,-0.01 0.50004994,0.50004994 0 0 0 0.04883,-0.041 0.50005,0.50005 0 0 0 0.01953,-0.018 l 0.779297,-0.7793 a 0.50005,0.50005 0 0 0 0.210937,0.045 l 4.947266,0 4.75,0 a 0.50005,0.50005 0 0 0 0.5,-0.5 L 32,1033.8149 l 0,-3.2207 0,-1.6992 a 0.50005,0.50005 0 0 0 -0.05664,-0.2403 l 4.386719,-4.3867 a 0.50004994,0.50004994 0 0 0 0.02539,-0.023 0.50004994,0.50004994 0 0 0 0.03516,-0.037 l 1.025391,-1.0235 c 0.09681,-0.097 0.183163,-0.2022 0.255859,-0.3125 0,0 0,0 0,0 0.07256,-0.1102 0.133163,-0.2258 0.181641,-0.3457 0,0 0,0 0,0 0.04835,-0.1198 0.08508,-0.2435 0.109375,-0.3691 0,0 0,0 0,0 0.02429,-0.1261 0.0371,-0.2525 0.0371,-0.3807 0,-0.1282 -0.01282,-0.2566 -0.03711,-0.3828 -0.07288,-0.3787 -0.255363,-0.7398 -0.546875,-1.0313 l -0.707032,-0.707 c -0.09717,-0.097 -0.201772,-0.1829 -0.3125,-0.2559 -0.332183,-0.2189 -0.716986,-0.3281 -1.101562,-0.3281 -0.384576,0 -0.769379,0.1092 -1.101563,0.3281 -0.110727,0.073 -0.215329,0.1587 -0.3125,0.2559 l -1.035156,1.0351 a 0.50004994,0.50004994 0 0 0 -0.02539,0.025 L 32,1021.5297 l 0,-0.9394 a 0.50005,0.50005 0 0 0 0,-0.033 l 0,-0.9609 0,-1.9297 a 0.50005,0.50005 0 0 0 -0.232422,-0.4317 l -4.001953,-3.9922 a 0.45504551,0.45504551 0 0 0 -0.232422,-0.123 0.50005,0.50005 0 0 0 -0.232422,-0.055 l -1.800781,0 -13,0 z m 0.5,1 12.5,0 1.488281,0 0,3.5469 a 0.45504551,0.45504551 0 0 0 0.455078,0.4531 l 3.556641,0 0,1.4961 a 0.50005,0.50005 0 0 0 0,0.035 l 0,0.961 0,1.7012 a 0.50005,0.50005 0 0 0 0.04883,0.2207 L 29,1024.5297 l 0,-1.4648 0,-0.5 0,-1 0,-1.5 -0.5,0 -0.5,0 -0.5,0 -0.5,0 -0.5,0 -1,0 -0.5,0 -0.5,0 -1,0 -0.5,0 -0.5,0 -1,0 -0.5,0 -0.5,0 -1,0 -0.5,0 -0.5,0 -0.5,0 -0.5,0 -0.5,0 -0.5,0 -0.5,0 -0.5,0 -0.5,0 0,1 0,0.5 0,1 0,0.5 0,8 0,1 6.462891,0 -4.199219,4.1992 a 0.50004994,0.50004994 0 0 0 -0.07031,0.092 0.50004994,0.50004994 0 0 0 -0.02344,0.043 0.50004994,0.50004994 0 0 0 -0.01953,0.047 0.50005,0.50005 0 0 0 -0.0059,0.016 0.50004994,0.50004994 0 0 0 -0.0078,0.023 l -0.523438,1.5703 -1.847656,0 -1.765628,0 0,-23.9902 z m 14.898438,0.5957 2.503906,2.4961 -2.503906,0 0,-2.4961 z M 15,1015.0649 l 0,1 0,0.5 0,1 0,0.5 1,0 0.5,0 1,0 0.5,0 0.5,0 1,0 0.5,0 0.5,0 0.5,0 0,-0.5 0,-1 0,-0.5 0,-0.5 0,-0.5 -0.5,0 -1,0 -0.5,0 -0.5,0 -1,0 -0.5,0 -0.5,0 -1,0 -0.5,0 z m 1,1 0.5,0 0.5,0 0.5,0 1,0 0.5,0 0.5,0 0.5,0 0,0.5 0,0.5 -0.5,0 -1,0 -0.5,0 -0.5,0 -1,0 -0.5,0 0,-0.5 0,-0.5 z m 19.294922,3.9922 c 0.254094,0 0.508102,0.1 0.707031,0.2988 l 0.707031,0.707 c 0.298395,0.2984 0.373806,0.7197 0.22461,1.0801 0,0 0,0 0,0 -0.04973,0.1196 -0.125547,0.233 -0.22461,0.3321 l -0.707031,0.707 -0.707031,-0.707 -0.707031,-0.7071 -0.707032,-0.707 0.707032,-0.707 c 0.198925,-0.1989 0.452937,-0.2989 0.707031,-0.2989 z M 16,1021.0649 l 0.5,0 0.5,0 0,1 -0.5,0 -0.5,0 0,-0.5 0,-0.5 z m 2,0 0.5,0 0.5,0 0.5,0 1,0 0.5,0 0.5,0 1,0 0.5,0 0.5,0 0.5,0 0,1 -0.5,0 -1,0 -0.5,0 -0.5,0 -1,0 -0.5,0 -0.5,0 -1,0 -0.5,0 0,-1 z m 7,0 0.5,0 1,0 0.5,0 0.5,0 0.5,0 0,0.5 0,0.5 -0.5,0 -1,0 -0.5,0 -0.5,0 -0.5,0 0,-1 z m 8.173828,0.7051 0.707031,0.707 -14.849609,14.8496 -0.707031,-0.709 14.849609,-14.8476 z M 16,1023.0649 l 0.5,0 0.5,0 0,8 -1,0 0,-8 z m 2,0 0.5,0 1,0 0.5,0 0.5,0 1,0 0.5,0 0.5,0 1,0 0.5,0 0,6.4629 -1.537109,1.5371 -4.462891,0 0,-8 z m 7,0 0.5,0 0.5,0 0.5,0 1,0 0.5,0 0,2.4648 -3,2.9981 0,-5.4629 z m 9.587891,0.1191 0.707031,0.7071 -14.847656,14.8496 -0.708985,-0.707 14.84961,-14.8497 z M 31,1029.6001 l 0,0.957 a 0.50005,0.50005 0 0 0 0,0.037 l 0,3.2207 0,4.2402 -4.25,0 -4.203125,0 L 31,1029.6001 Z m -13.164063,7.9453 1.683594,1.6836 -2.52539,0.8418 0.841796,-2.5254 z" color="#000" font-family="sans-serif" font-weight="400" overflow="visible" style="line-height:normal;text-indent:0;text-align:start;text-decoration-line:none;text-decoration-style:solid;text-decoration-color:#000;text-transform:none;block-progression:tb;isolation:auto;mix-blend-mode:normal"/></g></svg>