<svg xmlns="http://www.w3.org/2000/svg" xmlns:xlink="http://www.w3.org/1999/xlink" enable-background="new 0 0 64 64" viewBox="0 0 64 64"><defs><path id="a" d="M40.72,54.44l4.74,2.58c-0.44-0.24-0.9-0.35-1.28-0.29l-4.74-2.58C39.82,54.09,40.28,54.2,40.72,54.44z" enable-background="new"/></defs><clipPath id="b"><use overflow="visible" xlink:href="#a"/></clipPath><g clip-path="url(#b)"><path fill="#284159" d="M44.17,56.72l-4.74-2.58c0.21-0.03,0.44-0.01,0.68,0.05l4.74,2.58C44.61,56.71,44.38,56.69,44.17,56.72"/><path fill="#274058" d="M44.85,56.77l-4.74-2.58c0.16,0.04,0.33,0.1,0.5,0.19l4.74,2.58C45.18,56.88,45.01,56.82,44.85,56.77"/><path fill="#263f56" d="M45.34,56.96l-4.74-2.58c0.04,0.02,0.07,0.04,0.11,0.06l4.74,2.58C45.42,57,45.38,56.98,45.34,56.96"/></g><polygon fill="#2a445c" points="42.2 57 37.47 54.42 39.43 54.15 44.17 56.72"/><polygon fill="#2a445c" points="26.43 59.21 21.7 56.64 37.47 54.42 42.2 57"/><polygon fill="#2a445c" points="24.47 59.49 19.73 56.91 21.7 56.64 26.43 59.21"/><g><defs><path id="c" d="M21.51,63.36l-4.74-2.58c0-1.9,1.81-3.7,2.96-3.86l4.74,2.58C23.32,59.65,21.51,61.45,21.51,63.36z" enable-background="new"/></defs><clipPath id="d"><use overflow="visible" xlink:href="#c"/></clipPath><g clip-path="url(#d)"><path fill="#21394f" d="M21.51,63.36l-4.74-2.58c0-0.4,0.08-0.8,0.22-1.18l4.74,2.58C21.59,62.55,21.51,62.95,21.51,63.36"/><path fill="#223a51" d="M21.73,62.18l-4.74-2.58c0.07-0.19,0.16-0.38,0.25-0.56l4.74,2.58C21.88,61.8,21.8,61.98,21.73,62.18"/><path fill="#233b52" d="M21.98,61.62l-4.74-2.58c0.09-0.17,0.19-0.33,0.3-0.49l4.74,2.58C22.17,61.28,22.07,61.45,21.98,61.62"/><path fill="#243c53" d="M22.28,61.13l-4.74-2.58c0.11-0.16,0.23-0.31,0.35-0.45l4.74,2.58C22.51,60.82,22.39,60.97,22.28,61.13"/><path fill="#253e55" d="M22.64,60.68L17.9,58.1c0.13-0.15,0.26-0.28,0.4-0.4l4.74,2.58C22.9,60.4,22.76,60.53,22.64,60.68"/><path fill="#263f56" d="M23.04,60.27L18.3,57.7c0.14-0.13,0.29-0.24,0.43-0.34l4.74,2.58C23.32,60.03,23.18,60.15,23.04,60.27"/><path fill="#274058" d="M23.47,59.93l-4.74-2.58c0.15-0.11,0.31-0.2,0.46-0.27l4.74,2.58C23.78,59.73,23.62,59.82,23.47,59.93"/><path fill="#284159" d="M23.93,59.66l-4.74-2.58c0.19-0.09,0.37-0.15,0.54-0.17l4.74,2.58C24.3,59.51,24.12,59.57,23.93,59.66"/></g></g><path fill="#314d68" d="M44.17,56.72c1.16-0.16,2.96,1.13,2.96,3.03l-25.62,3.6c0-1.9,1.81-3.7,2.96-3.86l1.97-0.28L42.2,57L44.17,56.72z"/><g><polygon fill="#20384e" points="60.33 43.8 55.59 41.22 55.66 5.06 60.39 7.63"/><defs><path id="e" d="M58.11,0.89l4.74,2.58c-0.38-0.21-0.84-0.3-1.32-0.23l-4.74-2.58C57.28,0.6,57.73,0.69,58.11,0.89z" enable-background="new"/></defs><clipPath id="f"><use overflow="visible" xlink:href="#e"/></clipPath><g clip-path="url(#f)"><path fill="#284159" d="M61.52,3.24l-4.74-2.58c0.3-0.04,0.59-0.02,0.86,0.04l4.74,2.58C62.11,3.22,61.83,3.2,61.52,3.24"/><path fill="#274058" d="M62.38,3.29l-4.74-2.58c0.14,0.04,0.27,0.08,0.39,0.14l4.74,2.58C62.65,3.37,62.52,3.32,62.38,3.29"/><path fill="#263f56" d="M62.77,3.43l-4.74-2.58c0.03,0.01,0.05,0.03,0.08,0.04l4.74,2.58C62.82,3.46,62.8,3.44,62.77,3.43"/></g><defs><path id="g" d="M43.37,23.84c0.09,0.02,0.19,0.1,0.27,0.15c1.49,0.81,2.98,1.62,4.46,2.43c-0.28,0.04-0.54-0.01-0.76-0.13l-4.74-2.58C42.83,23.83,43.09,23.88,43.37,23.84z" enable-background="new"/></defs><clipPath id="h"><use overflow="visible" xlink:href="#g"/></clipPath><g clip-path="url(#h)"><path fill="#a3a4a6" d="M47.35,26.28l-4.74-2.58c0.01,0.01,0.03,0.02,0.04,0.02l4.74,2.58C47.38,26.3,47.36,26.29,47.35,26.28"/><path fill="#a7a8aa" d="M47.39,26.3l-4.74-2.58c0.07,0.03,0.15,0.06,0.22,0.08l4.74,2.58C47.54,26.37,47.46,26.34,47.39,26.3"/><path fill="#ababae" d="M47.62,26.39l-4.74-2.58c0.15,0.04,0.32,0.05,0.49,0.03l4.74,2.58C47.94,26.44,47.77,26.43,47.62,26.39"/></g><defs><path id="i" d="M44.81,22.09c0-0.55-0.27-1-0.67-1.22l4.74,2.58c0.4,0.22,0.67,0.67,0.67,1.22c0,0.84-0.64,1.64-1.43,1.75l-4.74-2.58C44.16,23.73,44.81,22.94,44.81,22.09z" enable-background="new"/></defs><clipPath id="j"><use overflow="visible" xlink:href="#i"/></clipPath><g clip-path="url(#j)"><path fill="#ababae" d="M48.11,26.41l-4.74-2.58c0.14-0.02,0.28-0.06,0.41-0.12l4.74,2.58C48.39,26.35,48.25,26.39,48.11,26.41"/><path fill="#a7a8aa" d="M48.52,26.29l-4.74-2.58c0.08-0.04,0.16-0.08,0.23-0.13l4.74,2.58C48.68,26.21,48.61,26.25,48.52,26.29"/><path fill="#a3a4a6" d="M48.76,26.16l-4.74-2.58c0.06-0.04,0.12-0.09,0.17-0.14l4.74,2.58C48.88,26.07,48.82,26.11,48.76,26.16"/><path fill="#9fa0a2" d="M48.93,26.02l-4.74-2.58c0.05-0.05,0.1-0.1,0.15-0.15l4.74,2.58C49.03,25.92,48.98,25.97,48.93,26.02"/><path fill="#9c9c9f" d="M49.08,25.87l-4.74-2.58c0.05-0.05,0.09-0.11,0.13-0.17l4.74,2.58C49.17,25.76,49.12,25.82,49.08,25.87"/><path fill="#98989b" d="M49.21,25.7l-4.74-2.58c0.04-0.06,0.08-0.12,0.12-0.19l4.74,2.58C49.29,25.58,49.25,25.64,49.21,25.7"/><path fill="#949597" d="M49.33,25.51l-4.74-2.58c0.04-0.08,0.08-0.16,0.11-0.24l4.74,2.58C49.4,25.35,49.37,25.44,49.33,25.51"/><path fill="#909194" d="M49.43,25.27l-4.74-2.58c0.07-0.19,0.11-0.4,0.11-0.6c0-0.55-0.27-1-0.67-1.22l4.74,2.58c0.4,0.22,0.67,0.67,0.67,1.22C49.54,24.88,49.51,25.08,49.43,25.27"/></g><defs><path id="k" d="M44.14,20.87l4.74,2.58c-0.22-0.12-0.48-0.17-0.76-0.13l-4.74-2.58C43.66,20.7,43.92,20.75,44.14,20.87z" enable-background="new"/></defs><clipPath id="l"><use overflow="visible" xlink:href="#k"/></clipPath><g clip-path="url(#l)"><path fill="#9a1740" d="M48.12,23.31l-4.74-2.58c0.17-0.02,0.34-0.01,0.49,0.03l4.74,2.58C48.45,23.3,48.29,23.29,48.12,23.31"/><path fill="#97153f" d="M48.61,23.34l-4.74-2.58c0.08,0.02,0.15,0.05,0.23,0.08l4.74,2.58C48.76,23.39,48.68,23.36,48.61,23.34"/><path fill="#93143d" d="M48.83,23.42l-4.74-2.58c0.01,0.01,0.03,0.01,0.04,0.02l4.74,2.58C48.86,23.44,48.85,23.43,48.83,23.42"/></g><defs><path id="m" d="M47.63,31.49l-4.74-2.58c-0.06-0.07-1.19-1.4-3.17-2.86l4.74,2.58C46.44,30.09,47.57,31.42,47.63,31.49z" enable-background="new"/></defs><clipPath id="n"><use overflow="visible" xlink:href="#m"/></clipPath><g clip-path="url(#n)"><path fill="#909194" d="M47.63,31.49l-4.74-2.58c-0.06-0.07-1.19-1.4-3.17-2.86l4.74,2.58C46.44,30.09,47.57,31.42,47.63,31.49"/></g><defs><path id="o" d="M39.73,26.06c0.02-0.03,0.04-0.06,0.05-0.1l4.74,2.58c-0.01,0.03-0.03,0.07-0.05,0.1C42.88,27.77,41.3,26.92,39.73,26.06z" enable-background="new"/></defs><clipPath id="p"><use overflow="visible" xlink:href="#o"/></clipPath><g clip-path="url(#p)"><path fill="#98989b" d="M44.46,28.63l-4.74-2.58c0.01-0.01,0.02-0.02,0.02-0.04l4.74,2.58C44.48,28.61,44.47,28.62,44.46,28.63"/><path fill="#949597" d="M44.48,28.6l-4.74-2.58c0.01-0.02,0.02-0.04,0.03-0.06l4.74,2.58C44.5,28.56,44.49,28.58,44.48,28.6"/></g><defs><path id="q" d="M47.35,26.28l-4.74-2.58c-0.17-0.09-0.32-0.23-0.43-0.39c-0.15-0.22-0.24-0.51-0.24-0.82c0-0.03,0-0.07,0-0.1c0.05-0.81,0.67-1.55,1.43-1.65l4.74,2.58c-0.76,0.11-1.38,0.84-1.43,1.65c0,0.03,0,0.07,0,0.1c0,0.32,0.09,0.6,0.24,0.82C47.03,26.06,47.18,26.19,47.35,26.28z" enable-background="new"/></defs><clipPath id="r"><use overflow="visible" xlink:href="#q"/></clipPath><g clip-path="url(#r)"><path fill="#820c34" d="M47.35,26.28l-4.74-2.58c-0.17-0.09-0.32-0.23-0.43-0.39c-0.15-0.22-0.24-0.51-0.24-0.82c0-0.03,0-0.07,0-0.1c0.01-0.17,0.05-0.35,0.11-0.51l4.74,2.58c-0.06,0.16-0.1,0.33-0.11,0.51c0,0.03,0,0.07,0,0.1c0,0.32,0.09,0.6,0.24,0.82C47.03,26.06,47.18,26.19,47.35,26.28"/><path fill="#860e36" d="M46.79,24.46l-4.74-2.58c0.03-0.08,0.07-0.17,0.11-0.24l4.74,2.58C46.86,24.29,46.82,24.37,46.79,24.46"/><path fill="#890f37" d="M46.9,24.21l-4.74-2.58c0.04-0.07,0.08-0.13,0.12-0.19l4.74,2.58C46.98,24.08,46.94,24.15,46.9,24.21"/><path fill="#8c1139" d="M47.02,24.02l-4.74-2.58c0.04-0.06,0.08-0.11,0.13-0.17l4.74,2.58C47.1,23.91,47.06,23.97,47.02,24.02"/><path fill="#90123b" d="M47.15,23.86l-4.74-2.58c0.05-0.05,0.1-0.1,0.15-0.15l4.74,2.58C47.25,23.76,47.2,23.81,47.15,23.86"/><path fill="#93143d" d="M47.3,23.71l-4.74-2.58c0.06-0.05,0.11-0.1,0.17-0.14l4.74,2.58C47.41,23.61,47.35,23.66,47.3,23.71"/><path fill="#97153f" d="M47.47,23.57L42.73,21c0.07-0.05,0.15-0.1,0.23-0.13l4.74,2.58C47.62,23.48,47.54,23.52,47.47,23.57"/><path fill="#9a1740" d="M47.7,23.44l-4.74-2.58c0.13-0.06,0.27-0.1,0.41-0.12l4.74,2.58C47.97,23.34,47.83,23.38,47.7,23.44"/></g><path fill="#c02452" d="M48.12,23.31c0.79-0.11,1.43,0.5,1.43,1.35c0,0.84-0.64,1.64-1.43,1.75c-0.5,0.07-0.93-0.14-1.19-0.52c-0.15-0.22-0.24-0.51-0.24-0.82c0-0.03,0-0.07,0-0.1C46.74,24.15,47.36,23.42,48.12,23.31z"/><polygon fill="#9a9b9d" points="44.51 28.54 39.77 25.96 40.59 24 45.33 26.58"/><polygon fill="#b5b5b7" points="45.33 26.58 40.59 24 42.19 23.32 46.92 25.89"/><defs><path id="s" d="M44.46,28.63l-4.74-2.58c-0.23-0.17-0.48-0.35-0.74-0.52l4.74,2.58C43.98,28.29,44.23,28.46,44.46,28.63z" enable-background="new"/></defs><clipPath id="t"><use overflow="visible" xlink:href="#s"/></clipPath><g clip-path="url(#t)"><path fill="#496478" d="M44.46,28.63l-4.74-2.58c-0.23-0.17-0.48-0.35-0.74-0.52l4.74,2.58C43.98,28.29,44.23,28.46,44.46,28.63"/></g><polygon fill="#5e7c94" points="44.89 25.73 40.15 23.16 41.95 22.39 46.68 24.97"/><polygon fill="#4f6a80" points="43.72 28.12 38.99 25.54 39.85 23.47 44.59 26.05"/><path fill="#6f91ad" d="M46.68,24.97c0,0.03,0,0.07,0,0.1c0,0.32,0.09,0.6,0.24,0.82l-1.59,0.69l-0.82,1.96c-0.01,0.03-0.03,0.07-0.05,0.1c-0.23-0.17-0.48-0.35-0.74-0.52l0.87-2.07c0.06-0.14,0.17-0.25,0.3-0.31L46.68,24.97z"/><defs><path id="u" d="M44.59,26.05l-4.74-2.58c0.06-0.14,0.17-0.25,0.3-0.31l4.74,2.58C44.76,25.8,44.65,25.9,44.59,26.05z" enable-background="new"/></defs><clipPath id="v"><use overflow="visible" xlink:href="#u"/></clipPath><g clip-path="url(#v)"><path fill="#4c667b" d="M44.59,26.05l-4.74-2.58c0.01-0.02,0.02-0.04,0.03-0.06l4.74,2.58C44.61,26.01,44.6,26.03,44.59,26.05"/><path fill="#4e697e" d="M44.62,25.99l-4.74-2.58c0.01-0.02,0.02-0.04,0.04-0.06l4.74,2.58C44.64,25.95,44.63,25.97,44.62,25.99"/><path fill="#506b80" d="M44.65,25.93l-4.74-2.58c0.01-0.02,0.03-0.03,0.04-0.05l4.74,2.58C44.68,25.9,44.67,25.92,44.65,25.93"/><path fill="#526e83" d="M44.69,25.88l-4.74-2.58c0.01-0.02,0.03-0.03,0.05-0.05l4.74,2.58C44.72,25.85,44.71,25.87,44.69,25.88"/><path fill="#547186" d="M44.74,25.84L40,23.26c0.02-0.02,0.04-0.03,0.06-0.05l4.74,2.58C44.78,25.8,44.76,25.82,44.74,25.84"/><path fill="#567389" d="M44.8,25.79l-4.74-2.58c0.03-0.02,0.06-0.04,0.09-0.05l4.74,2.58C44.86,25.75,44.83,25.77,44.8,25.79"/></g><polygon fill="#233e54" points="27.17 55.48 22.44 52.91 36.75 50.89 41.48 53.47"/><polygon fill="#1d364b" points="26.43 59.21 21.7 56.64 22.44 52.91 27.17 55.48"/><polygon fill="#29455d" points="41.48 53.47 42.2 57 26.43 59.21 27.17 55.48"/><defs><path id="w" d="M38.99,25.54c-0.47-0.31-0.97-0.62-1.5-0.91l4.74,2.58c0.53,0.29,1.03,0.6,1.5,0.91C42.3,27.34,40.37,26.38,38.99,25.54z" enable-background="new"/></defs><clipPath id="x"><use overflow="visible" xlink:href="#w"/></clipPath><g clip-path="url(#x)"><path fill="#909194" d="M43.72,28.12l-4.74-2.58c-0.47-0.31-0.97-0.62-1.5-0.91l4.74,2.58C42.76,27.49,43.26,27.8,43.72,28.12"/></g><defs><path id="y" d="M34.35,41.17l-4.74-2.58c7.32-1.03,12.98-9.25,13.28-9.68l4.74,2.58C47.34,31.92,41.68,40.14,34.35,41.17z" enable-background="new"/></defs><clipPath id="z"><use overflow="visible" xlink:href="#y"/></clipPath><g clip-path="url(#z)"><path fill="#ababae" d="M34.35,41.17l-4.74-2.58c1.3-0.18,2.55-0.59,3.73-1.15l4.74,2.58C36.91,40.58,35.66,40.99,34.35,41.17"/><path fill="#a7a8aa" d="M38.08,40.02l-4.74-2.58c0.92-0.43,1.8-0.95,2.62-1.52l4.74,2.58C39.88,39.07,39,39.59,38.08,40.02"/><path fill="#a3a4a6" d="M40.7,38.5l-4.74-2.58c0.88-0.61,1.69-1.27,2.43-1.94l4.74,2.58C42.39,37.23,41.58,37.9,40.7,38.5"/><path fill="#9fa0a2" d="M43.13,36.57l-4.74-2.58c0.95-0.85,1.77-1.72,2.45-2.48l4.74,2.58C44.91,34.85,44.08,35.71,43.13,36.57"/><path fill="#9c9c9f" d="M45.58,34.08l-4.74-2.58c1.05-1.19,1.75-2.15,1.98-2.49l4.74,2.58C47.33,31.93,46.64,32.89,45.58,34.08"/><path fill="#98989b" d="M47.56,31.6l-4.74-2.58c0.04-0.05,0.06-0.09,0.07-0.11l4.74,2.58C47.62,31.51,47.6,31.55,47.56,31.6"/></g><defs><path id="A" d="M29.62,36.66c3-0.42,5.45-3.4,5.45-6.65c1.58,0.86,3.16,1.72,4.74,2.58c-0.01,3.25-2.45,6.23-5.45,6.65C32.94,38.47,31.04,37.44,29.62,36.66z" enable-background="new"/></defs><clipPath id="B"><use overflow="visible" xlink:href="#A"/></clipPath><g clip-path="url(#B)"><path fill="#a4a5a7" d="M34.36,39.24l-4.74-2.58c0.55-0.08,1.09-0.24,1.59-0.48l4.74,2.58C35.44,39,34.91,39.16,34.36,39.24"/><path fill="#a0a2a4" d="M35.95,38.76l-4.74-2.58c0.31-0.14,0.6-0.31,0.88-0.51l4.74,2.58C36.55,38.45,36.25,38.62,35.95,38.76"/><path fill="#9d9ea0" d="M36.83,38.25l-4.74-2.58c0.23-0.16,0.45-0.33,0.66-0.52l4.74,2.58C37.28,37.92,37.06,38.09,36.83,38.25"/><path fill="#999a9c" d="M37.49,37.73l-4.74-2.58c0.19-0.18,0.38-0.36,0.56-0.56l4.74,2.58C37.87,37.37,37.68,37.56,37.49,37.73"/><path fill="#959799" d="M38.04,37.17l-4.74-2.58c0.17-0.2,0.34-0.41,0.49-0.62l4.74,2.58C38.38,36.77,38.22,36.97,38.04,37.17"/><path fill="#929395" d="M38.53,36.55l-4.74-2.58c0.16-0.23,0.31-0.47,0.44-0.72l4.74,2.58C38.84,36.08,38.69,36.32,38.53,36.55"/><path fill="#8e8f92" d="M38.98,35.83l-4.74-2.58c0.16-0.29,0.3-0.6,0.41-0.92l4.74,2.58C39.27,35.23,39.14,35.53,38.98,35.83"/><path fill="#8a8c8e" d="M39.39,34.91l-4.74-2.58c0.27-0.73,0.42-1.52,0.42-2.32c0-2.09-1-3.78-2.53-4.61l4.74,2.58c1.52,0.83,2.53,2.52,2.53,4.61C39.81,33.39,39.66,34.18,39.39,34.91"/></g><defs><path id="C" d="M35.07,30.02c0-2.09-1-3.78-2.53-4.61l4.74,2.58c1.52,0.83,2.53,2.52,2.53,4.61C38.23,31.73,36.65,30.87,35.07,30.02z" enable-background="new"/></defs><clipPath id="D"><use overflow="visible" xlink:href="#C"/></clipPath><g clip-path="url(#D)"><path fill="#8a8c8e" d="M39.39,34.91l-4.74-2.58c0.27-0.73,0.42-1.52,0.42-2.32c0-2.09-1-3.78-2.53-4.61l4.74,2.58c1.52,0.83,2.53,2.52,2.53,4.61C39.81,33.39,39.66,34.18,39.39,34.91"/></g><defs><path id="E" d="M32.55,25.41l4.74,2.58c-0.84-0.46-1.84-0.65-2.91-0.5l-4.74-2.58C30.71,24.75,31.71,24.95,32.55,25.41z" enable-background="new"/></defs><clipPath id="F"><use overflow="visible" xlink:href="#E"/></clipPath><g clip-path="url(#F)"><path fill="#669288" d="M34.38,27.48l-4.74-2.58c0.66-0.09,1.29-0.05,1.88,0.1l4.74,2.58C35.67,27.43,35.04,27.39,34.38,27.48"/><path fill="#648f85" d="M36.26,27.58L31.52,25c0.3,0.08,0.59,0.18,0.86,0.32l4.74,2.58C36.85,27.76,36.56,27.66,36.26,27.58"/><path fill="#618c82" d="M37.12,27.9l-4.74-2.58c0.06,0.03,0.11,0.06,0.17,0.09l4.74,2.58C37.23,27.95,37.17,27.92,37.12,27.9"/></g><defs><path id="G" d="M29.63,32.49c0.09,0.02,0.19,0.1,0.27,0.15c0.7,0.38,1.4,0.76,2.1,1.14c0.79,0.43,1.58,0.86,2.37,1.29c-0.31,0.04-0.6-0.01-0.85-0.15l-4.74-2.58C29.03,32.47,29.32,32.53,29.63,32.49z" enable-background="new"/></defs><clipPath id="H"><use overflow="visible" xlink:href="#G"/></clipPath><g clip-path="url(#H)"><path fill="#618c82" d="M33.52,34.92l-4.74-2.58c0.02,0.01,0.03,0.02,0.05,0.02l4.74,2.58C33.55,34.94,33.54,34.93,33.52,34.92"/><path fill="#648f85" d="M33.57,34.94l-4.74-2.58c0.08,0.04,0.16,0.07,0.25,0.09l4.74,2.58C33.73,35.01,33.65,34.98,33.57,34.94"/><path fill="#669288" d="M33.82,35.04l-4.74-2.58c0.17,0.04,0.35,0.06,0.55,0.03l4.74,2.58C34.17,35.09,33.99,35.08,33.82,35.04"/></g><defs><path id="I" d="M31.21,30.56c0-0.61-0.29-1.1-0.73-1.34l4.74,2.58c0.44,0.24,0.73,0.73,0.73,1.34c0,0.94-0.71,1.81-1.58,1.93l-4.74-2.58C30.5,32.36,31.21,31.5,31.21,30.56z" enable-background="new"/></defs><clipPath id="J"><use overflow="visible" xlink:href="#I"/></clipPath><g clip-path="url(#J)"><path fill="#669288" d="M34.36,35.06l-4.74-2.58c0.16-0.02,0.32-0.07,0.46-0.14l4.74,2.58C34.68,34.99,34.53,35.04,34.36,35.06"/><path fill="#648f85" d="M34.83,34.92l-4.74-2.58c0.09-0.04,0.18-0.09,0.26-0.15l4.74,2.58C35,34.83,34.92,34.88,34.83,34.92"/><path fill="#618c82" d="M35.08,34.78l-4.74-2.58c0.07-0.05,0.13-0.1,0.19-0.15l4.74,2.58C35.21,34.68,35.15,34.73,35.08,34.78"/><path fill="#5f8980" d="M35.28,34.63l-4.74-2.58c0.06-0.05,0.11-0.11,0.16-0.16l4.74,2.58C35.39,34.52,35.33,34.57,35.28,34.63"/><path fill="#5c857d" d="M35.44,34.46l-4.74-2.58c0.05-0.06,0.1-0.12,0.14-0.18l4.74,2.58C35.53,34.34,35.49,34.41,35.44,34.46"/><path fill="#5a827a" d="M35.58,34.28l-4.74-2.58c0.05-0.07,0.09-0.14,0.13-0.21l4.74,2.58C35.67,34.15,35.63,34.22,35.58,34.28"/><path fill="#578077" d="M35.71,34.07l-4.74-2.58c0.05-0.09,0.09-0.17,0.12-0.27l4.74,2.58C35.79,33.9,35.75,33.99,35.71,34.07"/><path fill="#557d74" d="M35.83,33.81l-4.74-2.58c0.08-0.21,0.12-0.44,0.12-0.67c0-0.61-0.29-1.1-0.73-1.34l4.74,2.58c0.44,0.24,0.73,0.73,0.73,1.34C35.95,33.37,35.91,33.59,35.83,33.81"/></g><defs><path id="K" d="M30.48,29.22l4.74,2.58c-0.24-0.13-0.53-0.19-0.85-0.15l-4.74-2.58C29.95,29.03,30.24,29.09,30.48,29.22z" enable-background="new"/></defs><clipPath id="L"><use overflow="visible" xlink:href="#K"/></clipPath><g clip-path="url(#L)"><path fill="#478072" d="M34.37,31.65l-4.74-2.58c0.19-0.03,0.38-0.02,0.55,0.03l4.74,2.58C34.75,31.63,34.56,31.62,34.37,31.65"/><path fill="#457d6f" d="M34.92,31.68l-4.74-2.58c0.09,0.02,0.17,0.05,0.25,0.09l4.74,2.58C35.09,31.73,35.01,31.7,34.92,31.68"/><path fill="#437b6d" d="M35.17,31.77l-4.74-2.58c0.02,0.01,0.03,0.02,0.05,0.02l4.74,2.58C35.2,31.79,35.18,31.78,35.17,31.77"/></g><defs><path id="M" d="M33.52,34.92l-4.74-2.58c-0.44-0.24-0.73-0.73-0.73-1.34c0-0.94,0.71-1.81,1.58-1.93l4.74,2.58c-0.87,0.12-1.58,0.99-1.58,1.93C32.79,34.19,33.08,34.68,33.52,34.92z" enable-background="new"/></defs><clipPath id="N"><use overflow="visible" xlink:href="#M"/></clipPath><g clip-path="url(#N)"><path fill="#396d60" d="M33.52,34.92l-4.74-2.58c-0.44-0.24-0.73-0.73-0.73-1.34c0-0.23,0.04-0.46,0.12-0.67l4.74,2.58c-0.08,0.21-0.12,0.44-0.12,0.67C32.79,34.19,33.08,34.68,33.52,34.92"/><path fill="#3b6f63" d="M32.91,32.91l-4.74-2.58c0.03-0.09,0.07-0.18,0.12-0.27l4.74,2.58C32.98,32.73,32.94,32.81,32.91,32.91"/><path fill="#3d7265" d="M33.03,32.64l-4.74-2.58c0.04-0.07,0.08-0.14,0.13-0.21l4.74,2.58C33.11,32.5,33.07,32.57,33.03,32.64"/><path fill="#3f7568" d="M33.16,32.43l-4.74-2.58c0.04-0.06,0.09-0.12,0.14-0.18l4.74,2.58C33.25,32.31,33.2,32.37,33.16,32.43"/><path fill="#41786a" d="M33.3,32.25l-4.74-2.58c0.05-0.06,0.1-0.11,0.16-0.16l4.74,2.58C33.4,32.14,33.35,32.19,33.3,32.25"/><path fill="#437b6d" d="M33.46,32.09l-4.74-2.58c0.06-0.05,0.12-0.11,0.19-0.15l4.74,2.58C33.58,31.98,33.52,32.03,33.46,32.09"/><path fill="#457d6f" d="M33.65,31.94l-4.74-2.58c0.08-0.06,0.17-0.11,0.26-0.15l4.74,2.58C33.82,31.83,33.73,31.88,33.65,31.94"/><path fill="#478072" d="M33.91,31.79l-4.74-2.58c0.15-0.07,0.3-0.12,0.46-0.14l4.74,2.58C34.21,31.67,34.05,31.72,33.91,31.79"/></g><defs><path id="O" d="M31.44,38.74l-4.74-2.58c-1.52-0.83-2.53-2.52-2.53-4.62c0.01-3.24,2.45-6.22,5.46-6.64l4.74,2.58c-3.01,0.42-5.46,3.4-5.46,6.64C28.91,36.22,29.92,37.91,31.44,38.74z" enable-background="new"/></defs><clipPath id="P"><use overflow="visible" xlink:href="#O"/></clipPath><g clip-path="url(#P)"><path fill="#557d74" d="M31.44,38.74l-4.74-2.58c-1.52-0.83-2.53-2.52-2.53-4.62c0-0.8,0.15-1.58,0.42-2.31l4.74,2.58c-0.27,0.73-0.42,1.51-0.42,2.31C28.91,36.22,29.92,37.91,31.44,38.74"/><path fill="#578077" d="M29.33,31.81l-4.74-2.58c0.12-0.32,0.25-0.62,0.41-0.92l4.74,2.58C29.59,31.19,29.45,31.5,29.33,31.81"/><path fill="#5a827a" d="M29.75,30.9l-4.74-2.58c0.13-0.25,0.28-0.49,0.44-0.72l4.74,2.58C30.03,30.41,29.88,30.65,29.75,30.9"/><path fill="#5c857d" d="M30.19,30.18l-4.74-2.58c0.15-0.22,0.32-0.42,0.49-0.62l4.74,2.58C30.51,29.75,30.34,29.96,30.19,30.18"/><path fill="#5f8980" d="M30.68,29.56l-4.74-2.58c0.18-0.2,0.36-0.39,0.56-0.56l4.74,2.58C31.04,29.17,30.86,29.36,30.68,29.56"/><path fill="#618c82" d="M31.24,28.99l-4.74-2.58c0.21-0.19,0.43-0.36,0.66-0.52l4.74,2.58C31.67,28.63,31.45,28.81,31.24,28.99"/><path fill="#648f85" d="M31.9,28.47l-4.74-2.58c0.28-0.2,0.58-0.37,0.89-0.51l4.74,2.58C32.47,28.11,32.18,28.28,31.9,28.47"/><path fill="#669288" d="M32.78,27.96l-4.74-2.58c0.5-0.24,1.04-0.4,1.6-0.48l4.74,2.58C33.82,27.56,33.29,27.72,32.78,27.96"/></g><defs><path id="Q" d="M37.49,24.63l4.74,2.58c-0.76-0.42-1.59-0.79-2.46-1.09c-0.29-0.1-0.59-0.19-0.89-0.27c-1.26-0.33-2.62-0.49-4.03-0.35c-0.15,0.01-0.31,0.03-0.47,0.05c-0.15,0.02-0.31,0.05-0.46,0.07c-1.42,0.26-2.78,0.8-4.05,1.49c-0.3,0.16-0.6,0.34-0.89,0.52c-1.49,0.92-2.83,2.03-3.97,3.11c-0.26,0.24-0.51,0.49-0.74,0.73c-1.98,2.01-3.12,3.66-3.18,3.75l-4.74-2.58c0.06-0.09,1.2-1.74,3.18-3.75c0.24-0.24,0.48-0.48,0.74-0.73c1.14-1.08,2.48-2.19,3.97-3.11c0.29-0.18,0.59-0.35,0.89-0.52c1.27-0.69,2.63-1.23,4.05-1.49c0.15-0.03,0.3-0.05,0.46-0.07c0.16-0.02,0.31-0.04,0.47-0.05c1.41-0.14,2.76,0.02,4.03,0.35c0.3,0.08,0.6,0.17,0.89,0.27C35.9,23.84,36.73,24.21,37.49,24.63z" enable-background="new"/></defs><clipPath id="R"><use overflow="visible" xlink:href="#Q"/></clipPath><g clip-path="url(#R)"><path fill="#929395" d="M21.1,35.22l-4.74-2.58c0.01-0.01,0.02-0.03,0.04-0.06l4.74,2.58C21.12,35.19,21.11,35.21,21.1,35.22"/><path fill="#959799" d="M21.14,35.16l-4.74-2.58c0.16-0.23,0.81-1.13,1.85-2.31l4.74,2.58C21.95,34.04,21.31,34.93,21.14,35.16"/><path fill="#999a9c" d="M22.99,32.85l-4.74-2.58c0.38-0.43,0.81-0.89,1.28-1.38c0.24-0.24,0.48-0.48,0.74-0.73c0.19-0.18,0.38-0.36,0.58-0.54l4.74,2.58c-0.2,0.18-0.39,0.36-0.58,0.54c-0.26,0.24-0.51,0.49-0.74,0.73C23.8,31.96,23.37,32.42,22.99,32.85"/><path fill="#9d9ea0" d="M25.6,30.21l-4.74-2.58c0.77-0.69,1.61-1.37,2.52-2l4.74,2.58C27.21,28.83,26.37,29.52,25.6,30.21"/><path fill="#a0a2a4" d="M28.12,28.2l-4.74-2.58c0.28-0.2,0.58-0.39,0.87-0.57c0.29-0.18,0.59-0.35,0.89-0.52c0.28-0.15,0.57-0.3,0.86-0.44l4.74,2.58c-0.29,0.14-0.58,0.28-0.86,0.44c-0.3,0.16-0.6,0.34-0.89,0.52C28.69,27.82,28.4,28.01,28.12,28.2"/><path fill="#a4a5a7" d="M30.74,26.68L26,24.1c1.02-0.48,2.08-0.85,3.18-1.05c0.15-0.03,0.3-0.05,0.46-0.07c0.16-0.02,0.31-0.04,0.47-0.05c1.39-0.13,2.72,0.01,3.97,0.34l4.74,2.58c-1.25-0.32-2.58-0.47-3.97-0.34c-0.15,0.01-0.31,0.03-0.47,0.05c-0.15,0.02-0.31,0.05-0.46,0.07C32.82,25.83,31.76,26.2,30.74,26.68"/><path fill="#a0a2a4" d="M38.82,25.83l-4.74-2.58c0.02,0,0.04,0.01,0.06,0.02c0.3,0.08,0.6,0.17,0.89,0.27c0.64,0.22,1.26,0.48,1.84,0.77l4.74,2.58c-0.58-0.29-1.2-0.55-1.84-0.77c-0.29-0.1-0.59-0.19-0.89-0.27C38.86,25.84,38.84,25.84,38.82,25.83"/><path fill="#9d9ea0" d="M41.6,26.88l-4.74-2.58c0.21,0.1,0.42,0.21,0.62,0.32l4.74,2.58C42.02,27.09,41.81,26.99,41.6,26.88"/></g><defs><path id="S" d="M35.03,23.54c0.02-0.06,0.04-0.13,0.04-0.2l4.74,2.58c0,0.07-0.01,0.13-0.04,0.2c-1.39-0.76-2.79-1.52-4.18-2.28L35.03,23.54L35.03,23.54z" enable-background="new"/></defs><clipPath id="T"><use overflow="visible" xlink:href="#S"/></clipPath><g clip-path="url(#T)"><polyline fill="#949597" points="39.76 26.12 35.03 23.54 35.03 23.54 39.76 26.12 39.76 26.12"/><path fill="#909194" d="M39.76,26.12l-4.74-2.58c0.02-0.06,0.04-0.13,0.04-0.2l4.74,2.58C39.8,25.99,39.79,26.05,39.76,26.12"/></g><defs><path id="U" d="M40.03,16.58c0-0.55-0.27-0.99-0.67-1.21l4.74,2.58c0.4,0.22,0.67,0.66,0.67,1.21c0,0.85-0.65,1.64-1.44,1.75c-1.58-0.86-3.16-1.72-4.74-2.58c1.58,0.86,3.16,1.72,4.74,2.58l0,0c-0.28,0.04-0.54-0.01-0.76-0.13l-4.74-2.58c0.22,0.12,0.48,0.17,0.76,0.13C39.37,18.22,40.02,17.44,40.03,16.58z" enable-background="new"/></defs><clipPath id="V"><use overflow="visible" xlink:href="#U"/></clipPath><g clip-path="url(#V)"><path fill="#a3a4a6" d="M42.55,20.78l-4.74-2.58c0.01,0.01,0.03,0.02,0.04,0.02l4.74,2.58C42.58,20.79,42.57,20.78,42.55,20.78"/><path fill="#a7a8aa" d="M42.6,20.8l-4.74-2.58c0.07,0.04,0.15,0.06,0.23,0.08l4.74,2.58C42.74,20.86,42.67,20.83,42.6,20.8"/><path fill="#ababae" d="M42.82,20.88l-4.74-2.58c0.15,0.04,0.32,0.05,0.5,0.03c0.15-0.02,0.29-0.06,0.42-0.13l4.74,2.58c-0.13,0.06-0.27,0.11-0.42,0.13C43.14,20.93,42.98,20.92,42.82,20.88"/><path fill="#a7a8aa" d="M43.74,20.78L39,18.21c0.08-0.04,0.16-0.08,0.24-0.14l4.74,2.58C43.9,20.7,43.82,20.74,43.74,20.78"/><path fill="#a3a4a6" d="M43.97,20.65l-4.74-2.58c0.06-0.04,0.12-0.09,0.17-0.14l4.74,2.58C44.09,20.56,44.04,20.6,43.97,20.65"/><path fill="#9fa0a2" d="M44.15,20.51l-4.74-2.58c0.05-0.05,0.1-0.1,0.15-0.15l4.74,2.58C44.25,20.41,44.2,20.46,44.15,20.51"/><path fill="#9c9c9f" d="M44.3,20.36l-4.74-2.58c0.05-0.05,0.09-0.11,0.13-0.16l4.74,2.58C44.39,20.25,44.34,20.31,44.3,20.36"/><path fill="#98989b" d="M44.43,20.19l-4.74-2.58c0.04-0.06,0.08-0.12,0.12-0.19L44.54,20C44.51,20.07,44.47,20.13,44.43,20.19"/><path fill="#949597" d="M44.54,20l-4.74-2.58c0.04-0.08,0.08-0.16,0.11-0.24l4.74,2.58C44.62,19.85,44.59,19.93,44.54,20"/><path fill="#909194" d="M44.65,19.76l-4.74-2.58c0.07-0.19,0.11-0.39,0.11-0.6c0-0.55-0.27-0.99-0.67-1.21l4.74,2.58c0.4,0.22,0.67,0.66,0.67,1.21C44.76,19.37,44.72,19.57,44.65,19.76"/></g><defs><polygon id="W" points="42.55 20.78 37.82 18.2 37.81 18.2 42.55 20.77" enable-background="new"/></defs><clipPath id="X"><use overflow="visible" xlink:href="#W"/></clipPath><g clip-path="url(#X)"><polyline fill="#8e7144" points="42.55 20.78 37.82 18.2 37.81 18.2 42.55 20.77 42.55 20.78"/></g><defs><path id="Y" d="M39.36,15.37l4.74,2.58c-0.22-0.12-0.49-0.17-0.77-0.13l-4.74-2.58C38.87,15.2,39.14,15.25,39.36,15.37z" enable-background="new"/></defs><clipPath id="Z"><use overflow="visible" xlink:href="#Y"/></clipPath><g clip-path="url(#Z)"><path fill="#a88552" d="M43.32,17.82l-4.74-2.58c0.17-0.02,0.34-0.01,0.5,0.03l4.74,2.58C43.67,17.8,43.5,17.79,43.32,17.82"/><path fill="#a48250" d="M43.82,17.84l-4.74-2.58c0.08,0.02,0.16,0.05,0.23,0.08l4.74,2.58C43.98,17.89,43.9,17.86,43.82,17.84"/><path fill="#a0804e" d="M44.05,17.93l-4.74-2.58c0.01,0.01,0.03,0.01,0.04,0.02l4.74,2.58C44.08,17.94,44.07,17.94,44.05,17.93"/></g><polygon fill="#8e8f91" points="39.8 25.92 35.06 23.34 35.07 20.89 39.8 23.47"/><polygon fill="#aaabad" points="39.8 23.47 35.07 20.89 37.81 18.2 42.55 20.77"/><defs><path id="aa" d="M26.71,36.16c0.84,0.46,1.84,0.65,2.91,0.5l4.74,2.58c-1.07,0.15-2.07-0.04-2.91-0.5C30.02,37.97,28.13,36.94,26.71,36.16z" enable-background="new"/></defs><clipPath id="ab"><use overflow="visible" xlink:href="#aa"/></clipPath><g clip-path="url(#ab)"><path fill="#9d9ea0" d="M31.44,38.74l-4.74-2.58c0.05,0.03,0.11,0.06,0.17,0.09l4.74,2.58C31.55,38.8,31.5,38.77,31.44,38.74"/><path fill="#a0a2a4" d="M31.61,38.83l-4.74-2.58c0.27,0.13,0.56,0.24,0.86,0.32l4.74,2.58C32.17,39.07,31.88,38.96,31.61,38.83"/><path fill="#a4a5a7" d="M32.47,39.14l-4.74-2.58c0.59,0.15,1.22,0.19,1.89,0.1l4.74,2.58C33.69,39.33,33.06,39.3,32.47,39.14"/></g><path fill="#d3a666" d="M43.32,17.82c0.79-0.11,1.44,0.49,1.44,1.34c0,0.85-0.65,1.64-1.44,1.75c-0.28,0.04-0.55-0.01-0.77-0.14c-0.27-0.15-0.47-0.39-0.58-0.71c-0.05-0.15-0.08-0.32-0.08-0.5C41.89,18.71,42.53,17.93,43.32,17.82z"/><defs><path id="ac" d="M42.55,20.77l-4.74-2.58c-0.27-0.15-0.47-0.39-0.58-0.71c-0.05-0.15-0.08-0.32-0.08-0.5c0-0.85,0.64-1.64,1.43-1.75l4.74,2.58c-0.79,0.11-1.43,0.89-1.43,1.75c0,0.18,0.03,0.35,0.08,0.5C42.08,20.38,42.28,20.63,42.55,20.77z" enable-background="new"/></defs><clipPath id="ad"><use overflow="visible" xlink:href="#ac"/></clipPath><g clip-path="url(#ad)"><path fill="#8e7144" d="M42.55,20.77l-4.74-2.58c-0.27-0.15-0.47-0.39-0.58-0.71c-0.05-0.15-0.08-0.32-0.08-0.5c0-0.21,0.04-0.42,0.11-0.61L42,18.96c-0.07,0.19-0.11,0.4-0.11,0.61c0,0.18,0.03,0.35,0.08,0.5C42.08,20.38,42.28,20.63,42.55,20.77"/><path fill="#917446" d="M42,18.96l-4.74-2.58c0.03-0.08,0.07-0.16,0.11-0.24l4.74,2.58C42.07,18.79,42.03,18.87,42,18.96"/><path fill="#957748" d="M42.11,18.72l-4.74-2.58c0.04-0.07,0.07-0.13,0.12-0.19l4.74,2.58C42.18,18.59,42.14,18.65,42.11,18.72"/><path fill="#997a4a" d="M42.23,18.53l-4.74-2.58c0.04-0.06,0.08-0.11,0.13-0.16l4.74,2.58C42.31,18.41,42.27,18.47,42.23,18.53"/><path fill="#9c7d4c" d="M42.35,18.36l-4.74-2.58c0.05-0.05,0.09-0.1,0.15-0.15l4.74,2.58C42.45,18.26,42.4,18.31,42.35,18.36"/><path fill="#a0804e" d="M42.5,18.22l-4.74-2.58c0.06-0.05,0.11-0.1,0.17-0.14l4.74,2.58C42.61,18.12,42.56,18.17,42.5,18.22"/><path fill="#a48250" d="M42.67,18.08l-4.74-2.58c0.07-0.05,0.15-0.1,0.23-0.13l4.74,2.58C42.83,17.98,42.75,18.03,42.67,18.08"/><path fill="#a88552" d="M42.91,17.94l-4.74-2.58c0.13-0.06,0.27-0.11,0.42-0.13l4.74,2.58C43.18,17.84,43.04,17.88,42.91,17.94"/></g><polygon fill="#486276" points="38.87 25.85 34.14 23.27 34.14 20.78 38.88 23.36"/><polygon fill="#58758c" points="39.06 22.93 34.33 20.36 37.23 17.49 41.97 20.07"/><defs><path id="ae" d="M38.88,23.36l-4.74-2.58c0-0.15,0.07-0.31,0.18-0.42l4.74,2.58C38.95,23.05,38.88,23.2,38.88,23.36z" enable-background="new"/></defs><clipPath id="af"><use overflow="visible" xlink:href="#ae"/></clipPath><g clip-path="url(#af)"><path fill="#496478" d="M38.88,23.36l-4.74-2.58c0-0.06,0.01-0.13,0.03-0.19l4.74,2.58C38.89,23.23,38.88,23.29,38.88,23.36"/><path fill="#4c667b" d="M38.91,23.16l-4.74-2.58c0.01-0.03,0.02-0.05,0.04-0.08l4.74,2.58C38.94,23.11,38.92,23.14,38.91,23.16"/><path fill="#4e697e" d="M38.95,23.09l-4.74-2.58c0.01-0.02,0.02-0.04,0.04-0.06l4.74,2.58C38.97,23.04,38.96,23.06,38.95,23.09"/><path fill="#506b80" d="M38.99,23.02l-4.74-2.58c0.01-0.02,0.03-0.04,0.04-0.06l4.74,2.58C39.02,22.98,39,23,38.99,23.02"/><path fill="#526e83" d="M39.03,22.97l-4.74-2.58c0.01-0.01,0.02-0.02,0.03-0.03l4.74,2.58C39.05,22.94,39.04,22.96,39.03,22.97"/></g><path fill="#80b5a7" d="M34.38,27.48c3-0.42,5.44,1.87,5.43,5.11c-0.01,3.25-2.45,6.23-5.45,6.65c-3.01,0.42-5.45-1.87-5.44-5.12C28.92,30.88,31.37,27.91,34.38,27.48z M34.36,35.06c0.87-0.12,1.58-0.99,1.58-1.93c0-0.94-0.7-1.61-1.58-1.48c-0.87,0.12-1.58,0.99-1.58,1.93C32.78,34.52,33.49,35.19,34.36,35.06"/><g><defs><path id="ag" d="M26.47,39.55l-4.74-2.58c2.18,1.18,4.89,2.04,7.88,1.62l4.74,2.58C31.36,41.59,28.65,40.74,26.47,39.55z" enable-background="new"/></defs><clipPath id="ah"><use overflow="visible" xlink:href="#ag"/></clipPath><g clip-path="url(#ah)"><path fill="#a3a4a6" d="M26.47,39.55l-4.74-2.58c0.19,0.11,0.39,0.21,0.6,0.31l4.74,2.58C26.87,39.76,26.67,39.66,26.47,39.55"/><path fill="#a7a8aa" d="M27.07,39.86l-4.74-2.58c0.85,0.42,1.77,0.78,2.74,1.03l4.74,2.58C28.84,40.64,27.92,40.28,27.07,39.86"/><path fill="#ababae" d="M29.81,40.89l-4.74-2.58c1.41,0.36,2.93,0.51,4.54,0.28l4.74,2.58C32.75,41.4,31.22,41.26,29.81,40.89"/></g></g><polygon fill="#8e8f91" points="34.85 25.5 30.11 22.92 30.13 15.63 34.86 18.2"/><g><defs><path id="ai" d="M29.66,15.78c0.16-0.02,0.32-0.08,0.47-0.15l4.74,2.58c-0.15,0.08-0.3,0.13-0.47,0.15C32.82,17.5,31.24,16.64,29.66,15.78z" enable-background="new"/></defs><clipPath id="aj"><use overflow="visible" xlink:href="#ai"/></clipPath><g clip-path="url(#aj)"><path fill="#59768c" d="M33.94,18.34l-4.74-2.58c0.14,0.03,0.3,0.04,0.46,0.02c0.14-0.02,0.28-0.06,0.42-0.13l4.74,2.58c-0.13,0.06-0.27,0.11-0.42,0.13C34.24,18.38,34.08,18.37,33.94,18.34"/><path fill="#567389" d="M34.81,18.23l-4.74-2.58c0.02-0.01,0.03-0.02,0.05-0.02l4.74,2.58C34.85,18.21,34.83,18.22,34.81,18.23"/></g></g><g><defs><path id="ak" d="M29.2,15.76c0.14,0.03,0.3,0.04,0.46,0.02c1.58,0.86,3.16,1.72,4.74,2.58c-0.16,0.02-0.31,0.02-0.46-0.02C32.52,17.56,30.62,16.53,29.2,15.76z" enable-background="new"/></defs><clipPath id="al"><use overflow="visible" xlink:href="#ak"/></clipPath><g clip-path="url(#al)"><path fill="#59768c" d="M33.94,18.34l-4.74-2.58c0.14,0.03,0.3,0.04,0.46,0.02c0.14-0.02,0.28-0.06,0.42-0.13l4.74,2.58c-0.13,0.06-0.27,0.11-0.42,0.13C34.24,18.38,34.08,18.37,33.94,18.34"/></g></g><polygon fill="#486276" points="33.92 25.62 29.19 23.05 29.2 15.76 33.94 18.34"/><path fill="#6f91ad" d="M34.86,18.2l-0.01,7.28c-0.16,0.03-0.31,0.04-0.47,0.07c-0.15,0.02-0.31,0.05-0.46,0.07l0.01-7.29c0.14,0.03,0.3,0.04,0.46,0.02C34.56,18.33,34.72,18.28,34.86,18.2z"/><g><defs><path id="am" d="M28.99,27.63l-4.74-2.58c-0.02-0.06-0.04-0.12-0.04-0.19l4.74,2.58C28.95,27.51,28.97,27.58,28.99,27.63z" enable-background="new"/></defs><clipPath id="an"><use overflow="visible" xlink:href="#am"/></clipPath><g clip-path="url(#an)"><path fill="#496478" d="M28.99,27.63l-4.74-2.58c-0.02-0.06-0.04-0.12-0.04-0.19l4.74,2.58C28.95,27.51,28.97,27.58,28.99,27.63"/></g></g><g><defs><path id="ao" d="M29.2,15.76c0.18,0.07,0.39,0.21,0.55,0.3c0.18,0.1,0.41,0.22,0.59,0.32c0.18,0.1,0.43,0.23,0.61,0.33c0.09,0.05,0.22,0.12,0.31,0.17c0.09,0.05,0.22,0.12,0.31,0.17c0.79,0.43,1.58,0.86,2.37,1.29c-0.11-0.02-0.21-0.06-0.3-0.11l-4.74-2.58C28.99,15.7,29.09,15.74,29.2,15.76z" enable-background="new"/></defs><clipPath id="ap"><use overflow="visible" xlink:href="#ao"/></clipPath><g clip-path="url(#ap)"><path fill="#a3a4a6" d="M33.64,18.22l-4.74-2.58c0.01,0.01,0.03,0.02,0.04,0.02l4.74,2.58C33.66,18.24,33.65,18.23,33.64,18.22"/><path fill="#a7a8aa" d="M33.68,18.25l-4.74-2.58c0.07,0.04,0.15,0.06,0.23,0.08l4.74,2.58C33.83,18.31,33.75,18.28,33.68,18.25"/><path fill="#ababae" d="M33.9,18.33l-4.74-2.58c0.01,0,0.02,0.01,0.03,0.01l4.74,2.58C33.93,18.33,33.92,18.33,33.9,18.33"/></g></g><g><defs><path id="aq" d="M31.09,14.02c0-0.55-0.26-0.99-0.66-1.21l4.74,2.58c0.4,0.22,0.67,0.66,0.66,1.21c0,0.68-0.41,1.31-0.97,1.6l-4.74-2.58C30.69,15.34,31.09,14.7,31.09,14.02z" enable-background="new"/></defs><clipPath id="ar"><use overflow="visible" xlink:href="#aq"/></clipPath><g clip-path="url(#ar)"><path fill="#a7a8aa" d="M34.86,18.2l-4.74-2.58c0.06-0.03,0.12-0.07,0.18-0.11l4.74,2.58C34.98,18.14,34.92,18.17,34.86,18.2"/><path fill="#a3a4a6" d="M35.04,18.1l-4.74-2.58c0.06-0.04,0.12-0.09,0.17-0.14l4.74,2.58C35.16,18.01,35.1,18.05,35.04,18.1"/><path fill="#9fa0a2" d="M35.21,17.96l-4.74-2.58c0.05-0.05,0.1-0.1,0.15-0.15l4.74,2.58C35.32,17.86,35.27,17.91,35.21,17.96"/><path fill="#9c9c9f" d="M35.36,17.81l-4.74-2.58c0.05-0.05,0.09-0.11,0.13-0.16l4.74,2.58C35.45,17.7,35.41,17.76,35.36,17.81"/><path fill="#98989b" d="M35.49,17.65l-4.74-2.58c0.04-0.06,0.08-0.13,0.12-0.19l4.74,2.58C35.57,17.52,35.53,17.58,35.49,17.65"/><path fill="#949597" d="M35.61,17.45l-4.74-2.58c0.04-0.08,0.08-0.16,0.11-0.24l4.74,2.58C35.69,17.29,35.65,17.38,35.61,17.45"/><path fill="#909194" d="M35.72,17.21l-4.74-2.58c0.07-0.19,0.11-0.4,0.11-0.61c0-0.55-0.26-0.99-0.66-1.21l4.74,2.58c0.4,0.22,0.67,0.66,0.66,1.21C35.83,16.81,35.79,17.02,35.72,17.21"/></g></g><polygon fill="#8e8f91" points="29.88 27.12 25.14 24.54 25.15 22.04 29.88 24.62"/><g><defs><path id="as" d="M29.88,24.62l-4.74-2.58c0-0.15-0.07-0.29-0.17-0.37l4.74,2.58C29.82,24.33,29.88,24.47,29.88,24.62z" enable-background="new"/></defs><clipPath id="at"><use overflow="visible" xlink:href="#as"/></clipPath><g clip-path="url(#at)"><path fill="#909194" d="M29.88,24.62l-4.74-2.58c0-0.15-0.07-0.29-0.17-0.37l4.74,2.58C29.82,24.33,29.88,24.47,29.88,24.62"/></g></g><g><defs><path id="au" d="M30.43,12.81l4.74,2.58c-0.22-0.12-0.48-0.17-0.76-0.13l-4.74-2.58C29.95,12.64,30.21,12.69,30.43,12.81z" enable-background="new"/></defs><clipPath id="av"><use overflow="visible" xlink:href="#au"/></clipPath><g clip-path="url(#av)"><path fill="#9a1740" d="M34.4,15.26l-4.74-2.58c0.17-0.02,0.34-0.01,0.49,0.03l4.74,2.58C34.74,15.24,34.58,15.23,34.4,15.26"/><path fill="#97153f" d="M34.9,15.28l-4.74-2.58c0.08,0.02,0.15,0.05,0.23,0.08l4.74,2.58C35.05,15.33,34.98,15.3,34.9,15.28"/><path fill="#93143d" d="M35.12,15.36l-4.74-2.58c0.01,0.01,0.03,0.01,0.04,0.02l4.74,2.58C35.15,15.38,35.14,15.37,35.12,15.36"/></g></g><polygon fill="#486276" points="28.95 27.44 24.22 24.87 24.22 22.42 28.96 24.99"/><g><defs><path id="aw" d="M33.64,18.22l-4.74-2.58c-0.4-0.22-0.67-0.67-0.67-1.22c0-0.85,0.64-1.64,1.43-1.75l4.74,2.58c-0.79,0.11-1.43,0.89-1.43,1.75C32.97,17.55,33.23,18,33.64,18.22z" enable-background="new"/></defs><clipPath id="ax"><use overflow="visible" xlink:href="#aw"/></clipPath><g clip-path="url(#ax)"><path fill="#820c34" d="M33.64,18.22l-4.74-2.58c-0.4-0.22-0.67-0.67-0.67-1.22c0-0.21,0.04-0.42,0.11-0.61l4.74,2.58c-0.07,0.19-0.11,0.4-0.11,0.61C32.97,17.55,33.23,18,33.64,18.22"/><path fill="#860e36" d="M33.08,16.39l-4.74-2.58c0.03-0.08,0.07-0.16,0.11-0.24l4.74,2.58C33.14,16.23,33.11,16.31,33.08,16.39"/><path fill="#890f37" d="M33.19,16.15l-4.74-2.58c0.04-0.07,0.07-0.13,0.12-0.19l4.74,2.58C33.26,16.02,33.22,16.09,33.19,16.15"/><path fill="#8c1139" d="M33.3,15.96l-4.74-2.58c0.04-0.06,0.08-0.11,0.13-0.16l4.74,2.58C33.39,15.85,33.34,15.91,33.3,15.96"/><path fill="#90123b" d="M33.43,15.8l-4.74-2.58c0.05-0.05,0.09-0.1,0.15-0.15l4.74,2.58C33.53,15.7,33.48,15.75,33.43,15.8"/><path fill="#93143d" d="M33.58,15.65l-4.74-2.58c0.06-0.05,0.11-0.1,0.17-0.14l4.74,2.58C33.69,15.56,33.63,15.6,33.58,15.65"/><path fill="#97153f" d="M33.75,15.52l-4.74-2.58c0.07-0.05,0.15-0.1,0.23-0.13l4.74,2.58C33.9,15.42,33.82,15.46,33.75,15.52"/><path fill="#9a1740" d="M33.98,15.38l-4.74-2.58c0.13-0.06,0.27-0.11,0.42-0.13l4.74,2.58C34.26,15.28,34.12,15.32,33.98,15.38"/></g></g><g><defs><path id="ay" d="M24.28,31.48l-4.74-2.58c-0.02-0.03-0.04-0.05-0.06-0.09l4.74,2.58C24.24,31.42,24.26,31.45,24.28,31.48z" enable-background="new"/></defs><clipPath id="az"><use overflow="visible" xlink:href="#ay"/></clipPath><g clip-path="url(#az)"><path fill="#496478" d="M24.28,31.48l-4.74-2.58c-0.02-0.03-0.04-0.05-0.06-0.09l4.74,2.58C24.24,31.42,24.26,31.45,24.28,31.48"/></g></g><g><defs><path id="aA" d="M26.47,39.55l-4.74-2.58c-3.16-1.72-5.2-4.12-5.37-4.33l4.74,2.58C21.28,35.43,23.32,37.83,26.47,39.55z" enable-background="new"/></defs><clipPath id="aB"><use overflow="visible" xlink:href="#aA"/></clipPath><g clip-path="url(#aB)"><path fill="#8a8c8e" d="M26.47,39.55l-4.74-2.58c-3.16-1.72-5.2-4.12-5.37-4.33l4.74,2.58C21.28,35.43,23.32,37.83,26.47,39.55"/></g></g><polygon fill="#8c8d8f" points="25.02 30.75 20.28 28.17 19.43 26.34 24.17 28.92"/><g><defs><path id="aC" d="M19.25,26.16l4.74,2.58c0.08,0.04,0.14,0.1,0.18,0.18l-4.74-2.58C19.39,26.26,19.33,26.2,19.25,26.16z" enable-background="new"/></defs><clipPath id="aD"><use overflow="visible" xlink:href="#aC"/></clipPath><g clip-path="url(#aD)"><path fill="#909194" d="M24.17,28.92l-4.74-2.58c-0.04-0.08-0.1-0.14-0.18-0.18l4.74,2.58C24.07,28.78,24.13,28.84,24.17,28.92"/></g></g><polygon fill="#476074" points="24.22 31.39 19.48 28.81 18.68 27.08 23.42 29.66"/><g><defs><path id="aE" d="M19.25,26.16l4.74,2.58c-0.04-0.02-0.08-0.04-0.12-0.04l-4.74-2.58C19.17,26.12,19.22,26.14,19.25,26.16z" enable-background="new"/></defs><clipPath id="aF"><use overflow="visible" xlink:href="#aE"/></clipPath><g clip-path="url(#aF)"><path fill="#59768c" d="M23.87,28.69l-4.74-2.58c0.01,0,0.02,0,0.03,0.01l4.74,2.58C23.88,28.69,23.88,28.69,23.87,28.69"/><path fill="#567389" d="M23.89,28.7l-4.74-2.58c0.03,0.01,0.06,0.02,0.08,0.03l4.74,2.58C23.95,28.71,23.92,28.7,23.89,28.7"/><path fill="#547186" d="M23.98,28.73l-4.74-2.58c0.01,0,0.01,0.01,0.02,0.01l4.74,2.58C23.99,28.73,23.98,28.73,23.98,28.73"/></g></g><polygon fill="#8c8d8f" points="29.71 24.25 24.97 21.67 22.07 19.63 26.81 22.2"/><polygon fill="#476074" points="28.96 24.99 24.22 22.42 21.49 20.49 26.23 23.06"/><path fill="#6f91ad" d="M26.81,22.2l2.9,2.05c0.11,0.08,0.17,0.22,0.17,0.37l0,2.5c-0.3,0.16-0.6,0.34-0.89,0.52c-0.02-0.06-0.04-0.12-0.04-0.19l0-2.45l-2.73-1.93C26.49,22.84,26.7,22.54,26.81,22.2z"/><g><defs><path id="aG" d="M21.49,20.49c0.26-0.22,0.47-0.52,0.58-0.86l4.74,2.58c-0.11,0.34-0.31,0.64-0.58,0.86C24.81,22.29,22.91,21.26,21.49,20.49z" enable-background="new"/></defs><clipPath id="aH"><use overflow="visible" xlink:href="#aG"/></clipPath><g clip-path="url(#aH)"><path fill="#547186" d="M26.23,23.06l-4.74-2.58c0.02-0.01,0.03-0.03,0.05-0.05l4.74,2.58C26.26,23.03,26.25,23.05,26.23,23.06"/><path fill="#526e83" d="M26.28,23.02l-4.74-2.58c0.05-0.05,0.1-0.1,0.15-0.15l4.74,2.58C26.38,22.92,26.33,22.97,26.28,23.02"/><path fill="#506b80" d="M26.43,22.87l-4.74-2.58c0.05-0.05,0.09-0.11,0.13-0.16l4.74,2.58C26.52,22.76,26.47,22.82,26.43,22.87"/><path fill="#4e697e" d="M26.56,22.71l-4.74-2.58c0.04-0.06,0.08-0.12,0.12-0.19l4.74,2.58C26.64,22.58,26.6,22.64,26.56,22.71"/><path fill="#4c667b" d="M26.67,22.52l-4.74-2.58c0.04-0.08,0.08-0.16,0.11-0.24l4.74,2.58C26.75,22.36,26.72,22.44,26.67,22.52"/><path fill="#496478" d="M26.78,22.28l-4.74-2.58c0.01-0.02,0.02-0.05,0.03-0.07l4.74,2.58C26.8,22.23,26.79,22.25,26.78,22.28"/></g></g><g><defs><path id="aI" d="M25.45,23.42L25.45,23.42C25.45,23.42,25.45,23.42,25.45,23.42c-1.58-0.86-3.16-1.72-4.74-2.58C22.29,21.7,23.87,22.56,25.45,23.42z" enable-background="new"/></defs><clipPath id="aJ"><use overflow="visible" xlink:href="#aI"/></clipPath><g clip-path="url(#aJ)"><path fill="#ababae" d="M24.95,23.39l-4.74-2.58c0.15,0.04,0.32,0.05,0.49,0.03c0.15-0.02,0.29-0.06,0.42-0.13l4.74,2.58c-0.13,0.06-0.28,0.11-0.42,0.13C25.28,23.44,25.11,23.43,24.95,23.39"/></g></g><polygon fill="#afafb2" points="21.83 29.42 17.1 26.84 18.68 27.08 23.42 29.66"/><g><defs><path id="aK" d="M17.1,26.84c0.15-0.27,0.24-0.58,0.24-0.89c1.58,0.86,3.16,1.72,4.74,2.58c0,0.32-0.09,0.62-0.24,0.89C20.41,28.65,18.52,27.62,17.1,26.84z" enable-background="new"/></defs><clipPath id="aL"><use overflow="visible" xlink:href="#aK"/></clipPath><g clip-path="url(#aL)"><path fill="#4e697e" d="M21.83,29.42l-4.74-2.58c0.01-0.02,0.02-0.03,0.03-0.05l4.74,2.58C21.85,29.39,21.84,29.4,21.83,29.42"/><path fill="#4c667b" d="M21.86,29.37l-4.74-2.58c0.04-0.08,0.08-0.16,0.11-0.24l4.74,2.58C21.94,29.21,21.9,29.3,21.86,29.37"/><path fill="#496478" d="M21.97,29.13l-4.74-2.58c0.07-0.19,0.11-0.4,0.11-0.6c0-0.04,0-0.07,0-0.1l4.74,2.58c0,0.03,0,0.07,0,0.1C22.08,28.74,22.04,28.94,21.97,29.13"/></g></g><path fill="#6f91ad" d="M22.07,28.42l1.79,0.27c0.13,0.03,0.24,0.11,0.3,0.23l0.85,1.83c-0.26,0.24-0.51,0.49-0.74,0.73c-0.02-0.03-0.04-0.05-0.06-0.09l-0.8-1.73l-1.58-0.24c0.15-0.27,0.24-0.58,0.24-0.89C22.08,28.49,22.08,28.46,22.07,28.42z"/><polygon fill="#5b798f" points="22.07 28.42 17.34 25.85 19.13 26.11 23.87 28.69"/><g><defs><path id="aM" d="M17.34,25.95c0-0.04,0-0.07,0-0.1l4.74,2.58c0,0.03,0,0.07,0,0.1C20.5,27.67,18.92,26.81,17.34,25.95z" enable-background="new"/></defs><clipPath id="aN"><use overflow="visible" xlink:href="#aM"/></clipPath><g clip-path="url(#aN)"><path fill="#496478" d="M21.97,29.13l-4.74-2.58c0.07-0.19,0.11-0.4,0.11-0.6c0-0.04,0-0.07,0-0.1l4.74,2.58c0,0.03,0,0.07,0,0.1C22.08,28.74,22.04,28.94,21.97,29.13"/></g></g><g><defs><path id="aO" d="M22.16,19.1c0-0.55-0.27-0.99-0.67-1.21l4.74,2.58c0.4,0.22,0.67,0.66,0.67,1.21c0,0.18-0.03,0.36-0.08,0.53l-4.74-2.58C22.13,19.46,22.16,19.28,22.16,19.1z" enable-background="new"/></defs><clipPath id="aP"><use overflow="visible" xlink:href="#aO"/></clipPath><g clip-path="url(#aP)"><path fill="#909194" d="M26.81,22.2l-4.74-2.58c0.05-0.17,0.08-0.35,0.08-0.53c0-0.55-0.27-0.99-0.67-1.21l4.74,2.58c0.4,0.22,0.67,0.66,0.67,1.21C26.89,21.85,26.86,22.03,26.81,22.2"/></g></g><g><defs><path id="aQ" d="M21.49,20.49c1.58,0.86,3.16,1.72,4.74,2.58c-0.23,0.19-0.49,0.32-0.78,0.36c0,0,0,0,0,0c0,0,0,0,0,0l0,0c-1.58-0.86-3.16-1.72-4.74-2.58c1.58,0.86,3.16,1.72,4.74,2.58c-0.28,0.04-0.54-0.01-0.76-0.13l-4.74-2.58c0.22,0.12,0.48,0.17,0.76,0.13C21,20.8,21.27,20.67,21.49,20.49z" enable-background="new"/></defs><clipPath id="aR"><use overflow="visible" xlink:href="#aQ"/></clipPath><g clip-path="url(#aR)"><path fill="#a3a4a6" d="M24.68,23.29l-4.74-2.58c0.01,0.01,0.03,0.02,0.04,0.02l4.74,2.58C24.71,23.3,24.7,23.3,24.68,23.29"/><path fill="#a7a8aa" d="M24.73,23.31l-4.74-2.58c0.07,0.04,0.15,0.06,0.23,0.08l4.74,2.58C24.88,23.37,24.8,23.35,24.73,23.31"/><path fill="#ababae" d="M24.95,23.39l-4.74-2.58c0.15,0.04,0.32,0.05,0.49,0.03c0.15-0.02,0.29-0.06,0.42-0.13l4.74,2.58c-0.13,0.06-0.28,0.11-0.42,0.13C25.28,23.44,25.11,23.43,24.95,23.39"/><path fill="#a7a8aa" d="M25.87,23.29l-4.74-2.58c0.08-0.04,0.16-0.08,0.23-0.13l4.74,2.58C26.03,23.21,25.95,23.25,25.87,23.29"/><path fill="#a3a4a6" d="M26.1,23.16l-4.74-2.58c0.04-0.03,0.08-0.06,0.12-0.09l4.74,2.58C26.19,23.1,26.15,23.13,26.1,23.16"/></g></g><g><defs><path id="aS" d="M21.49,17.89l4.74,2.58c-0.22-0.12-0.49-0.17-0.77-0.13l-4.74-2.58C21,17.71,21.27,17.76,21.49,17.89z" enable-background="new"/></defs><clipPath id="aT"><use overflow="visible" xlink:href="#aS"/></clipPath><g clip-path="url(#aT)"><path fill="#a88552" d="M25.46,20.33l-4.74-2.58c0.17-0.02,0.34-0.01,0.5,0.03l4.74,2.58C25.8,20.32,25.63,20.31,25.46,20.33"/><path fill="#a48250" d="M25.95,20.36l-4.74-2.58c0.08,0.02,0.16,0.05,0.23,0.08l4.74,2.58C26.11,20.4,26.03,20.38,25.95,20.36"/><path fill="#a0804e" d="M26.18,20.44l-4.74-2.58c0.01,0.01,0.03,0.01,0.04,0.02l4.74,2.58C26.21,20.45,26.2,20.45,26.18,20.44"/></g></g><g><defs><path id="aU" d="M15.91,27.7c0.5-0.07,0.93-0.41,1.19-0.85l4.74,2.58c-0.26,0.45-0.69,0.79-1.19,0.85C19.07,29.42,17.49,28.56,15.91,27.7c1.58,0.86,3.16,1.72,4.74,2.58c-0.28,0.04-0.54-0.01-0.76-0.13l-4.74-2.58C15.37,27.69,15.63,27.74,15.91,27.7z" enable-background="new"/></defs><clipPath id="aV"><use overflow="visible" xlink:href="#aU"/></clipPath><g clip-path="url(#aV)"><path fill="#a3a4a6" d="M19.88,30.14l-4.74-2.58c0.01,0.01,0.03,0.02,0.04,0.02l4.74,2.58C19.91,30.16,19.9,30.15,19.88,30.14"/><path fill="#a7a8aa" d="M19.93,30.17l-4.74-2.58c0.07,0.04,0.15,0.06,0.23,0.08l4.74,2.58C20.07,30.23,20,30.2,19.93,30.17"/><path fill="#ababae" d="M20.15,30.25l-4.74-2.58c0.15,0.04,0.32,0.05,0.49,0.03c0.14-0.02,0.28-0.06,0.42-0.13l4.74,2.58c-0.13,0.06-0.27,0.11-0.42,0.13C20.47,30.3,20.31,30.29,20.15,30.25"/><path fill="#a7a8aa" d="M21.06,30.15l-4.74-2.58c0.08-0.04,0.16-0.08,0.23-0.13l4.74,2.58C21.22,30.07,21.14,30.11,21.06,30.15"/><path fill="#a3a4a6" d="M21.29,30.02l-4.74-2.58c0.06-0.04,0.12-0.09,0.17-0.14l4.74,2.58C21.41,29.93,21.35,29.97,21.29,30.02"/><path fill="#9fa0a2" d="M21.46,29.88l-4.74-2.58c0.05-0.05,0.1-0.1,0.15-0.15l4.74,2.58C21.57,29.78,21.52,29.83,21.46,29.88"/><path fill="#9c9c9f" d="M21.61,29.73l-4.74-2.58c0.05-0.05,0.09-0.11,0.13-0.16l4.74,2.58C21.7,29.62,21.66,29.68,21.61,29.73"/><path fill="#98989b" d="M21.74,29.56L17,26.99c0.03-0.05,0.06-0.1,0.09-0.14l4.74,2.58C21.81,29.47,21.77,29.52,21.74,29.56"/></g></g><g><defs><path id="aW" d="M17.34,25.85c-0.03-0.5-0.29-0.91-0.67-1.12l4.74,2.58c0.38,0.21,0.64,0.61,0.67,1.12C20.65,27.65,18.76,26.62,17.34,25.85z" enable-background="new"/></defs><clipPath id="aX"><use overflow="visible" xlink:href="#aW"/></clipPath><g clip-path="url(#aX)"><path fill="#909194" d="M22.07,28.42l-4.74-2.58c-0.03-0.5-0.29-0.91-0.67-1.12l4.74,2.58C21.79,27.51,22.04,27.92,22.07,28.42"/></g></g><polygon fill="#2a445c" points="8.35 51.1 3.61 48.53 55.59 41.22 60.33 43.8"/><g><defs><path id="aY" d="M24.68,23.29l-4.74-2.58c-0.4-0.22-0.67-0.66-0.66-1.21c0-0.85,0.64-1.64,1.43-1.75l4.74,2.58c-0.79,0.11-1.43,0.89-1.43,1.75C24.02,22.63,24.28,23.07,24.68,23.29z" enable-background="new"/></defs><clipPath id="aZ"><use overflow="visible" xlink:href="#aY"/></clipPath><g clip-path="url(#aZ)"><path fill="#8e7144" d="M24.68,23.29l-4.74-2.58c-0.4-0.22-0.67-0.66-0.66-1.21c0-0.21,0.04-0.42,0.11-0.61l4.74,2.58c-0.07,0.19-0.11,0.4-0.11,0.61C24.02,22.63,24.28,23.07,24.68,23.29"/><path fill="#917446" d="M24.13,21.47l-4.74-2.58c0.03-0.08,0.07-0.16,0.11-0.24l4.74,2.58C24.2,21.3,24.16,21.38,24.13,21.47"/><path fill="#957748" d="M24.24,21.23l-4.74-2.58c0.04-0.07,0.07-0.13,0.12-0.19l4.74,2.58C24.31,21.1,24.27,21.16,24.24,21.23"/><path fill="#997a4a" d="M24.36,21.04l-4.74-2.58c0.04-0.06,0.08-0.11,0.13-0.16l4.74,2.58C24.44,20.93,24.4,20.98,24.36,21.04"/><path fill="#9c7d4c" d="M24.49,20.87l-4.74-2.58c0.05-0.05,0.09-0.1,0.15-0.15l4.74,2.58C24.58,20.77,24.53,20.82,24.49,20.87"/><path fill="#a0804e" d="M24.63,20.73l-4.74-2.58c0.05-0.05,0.11-0.1,0.17-0.14l4.74,2.58C24.74,20.63,24.69,20.68,24.63,20.73"/><path fill="#a48250" d="M24.8,20.59l-4.74-2.58c0.07-0.05,0.15-0.1,0.23-0.13l4.74,2.58C24.96,20.49,24.88,20.54,24.8,20.59"/><path fill="#a88552" d="M25.04,20.46l-4.74-2.58c0.13-0.06,0.27-0.11,0.42-0.13l4.74,2.58C25.31,20.35,25.17,20.39,25.04,20.46"/></g></g><g><defs><path id="ba" d="M16.67,24.73l4.74,2.58c-0.22-0.12-0.48-0.17-0.76-0.13l-4.74-2.58C16.19,24.56,16.45,24.61,16.67,24.73z" enable-background="new"/></defs><clipPath id="bb"><use overflow="visible" xlink:href="#ba"/></clipPath><g clip-path="url(#bb)"><path fill="#9a1740" d="M20.65,27.17l-4.74-2.58c0.17-0.02,0.34-0.01,0.49,0.03l4.74,2.58C20.99,27.16,20.82,27.15,20.65,27.17"/><path fill="#97153f" d="M21.14,27.2l-4.74-2.58c0.08,0.02,0.15,0.05,0.23,0.08l4.74,2.58C21.29,27.25,21.22,27.22,21.14,27.2"/><path fill="#93143d" d="M21.37,27.28l-4.74-2.58c0.01,0.01,0.03,0.01,0.04,0.02l4.74,2.58C21.39,27.3,21.38,27.29,21.37,27.28"/></g></g><g><defs><path id="bc" d="M5.89,58.06l-4.74-2.58C0.46,55.1,0,54.33,0,53.37l4.74,2.58C4.73,56.91,5.2,57.68,5.89,58.06z" enable-background="new"/></defs><clipPath id="bd"><use overflow="visible" xlink:href="#bc"/></clipPath><g clip-path="url(#bd)"><path fill="#21394f" d="M5.89,58.06l-4.74-2.58C0.46,55.1,0,54.33,0,53.37l4.74,2.58C4.73,56.91,5.2,57.68,5.89,58.06"/></g></g><g><defs><path id="be" d="M19.88,30.14l-4.74-2.58c-0.4-0.22-0.67-0.67-0.67-1.21c0-0.85,0.64-1.64,1.43-1.76l4.74,2.58c-0.79,0.11-1.43,0.9-1.43,1.76C19.21,29.48,19.48,29.92,19.88,30.14z" enable-background="new"/></defs><clipPath id="bf"><use overflow="visible" xlink:href="#be"/></clipPath><g clip-path="url(#bf)"><path fill="#820c34" d="M19.88,30.14l-4.74-2.58c-0.4-0.22-0.67-0.67-0.67-1.21c0-0.21,0.04-0.42,0.11-0.61l4.74,2.58c-0.07,0.19-0.11,0.4-0.11,0.61C19.21,29.48,19.48,29.92,19.88,30.14"/><path fill="#860e36" d="M19.33,28.32l-4.74-2.58c0.03-0.08,0.07-0.17,0.11-0.24l4.74,2.58C19.39,28.15,19.36,28.23,19.33,28.32"/><path fill="#890f37" d="M19.44,28.07L14.7,25.5c0.04-0.07,0.08-0.13,0.12-0.19l4.74,2.58C19.51,27.94,19.47,28.01,19.44,28.07"/><path fill="#8c1139" d="M19.55,27.88l-4.74-2.58c0.04-0.06,0.08-0.11,0.13-0.16l4.74,2.58C19.64,27.77,19.59,27.83,19.55,27.88"/><path fill="#90123b" d="M19.68,27.72l-4.74-2.58c0.05-0.05,0.1-0.1,0.15-0.15l4.74,2.58C19.78,27.62,19.73,27.67,19.68,27.72"/><path fill="#93143d" d="M19.83,27.57l-4.74-2.58c0.06-0.05,0.11-0.1,0.17-0.14L20,27.43C19.94,27.47,19.89,27.52,19.83,27.57"/><path fill="#97153f" d="M20,27.43l-4.74-2.58c0.07-0.05,0.15-0.1,0.23-0.13l4.74,2.58C20.16,27.34,20.08,27.38,20,27.43"/><path fill="#9a1740" d="M20.24,27.3l-4.74-2.58c0.13-0.06,0.27-0.1,0.41-0.12l4.74,2.58C20.51,27.2,20.37,27.24,20.24,27.3"/></g></g><polygon fill="#b5b5b7" points="8.42 14.94 3.68 12.36 55.66 5.06 60.39 7.63"/><polygon fill="#8e8f91" points="8.35 51.1 3.61 48.53 3.68 12.36 8.42 14.94"/><path fill="#314d68" d="M61.52,3.24C62.9,3.05,64,4.1,64,5.58l-0.08,42.05c0,1.48-1.11,2.84-2.49,3.03l-19.95,2.8l-14.31,2.01l-19.95,2.8c-1.37,0.19-2.49-0.85-2.48-2.34L4.81,13.9c0-1.48,1.12-2.84,2.49-3.04L61.52,3.24z M60.33,43.8l0.07-36.17L8.42,14.94L8.35,51.1L60.33,43.8"/><path fill="#5b9d8c" d="M34.37,31.65c0.87-0.12,1.58,0.54,1.58,1.48c0,0.94-0.71,1.81-1.58,1.93c-0.87,0.12-1.58-0.54-1.58-1.48C32.79,32.64,33.5,31.77,34.37,31.65z"/><path fill="#c02452" d="M34.4,15.26c0.79-0.11,1.43,0.49,1.43,1.34c0,0.68-0.41,1.31-0.97,1.6c-0.15,0.08-0.3,0.13-0.47,0.15c-0.16,0.02-0.31,0.02-0.46-0.02c-0.57-0.13-0.97-0.65-0.97-1.34C32.97,16.15,33.61,15.37,34.4,15.26z"/><path fill="#d3a666" d="M25.46,20.33c0.79-0.11,1.44,0.49,1.44,1.34c0,0.18-0.03,0.36-0.08,0.53c-0.11,0.34-0.31,0.64-0.58,0.86c-0.23,0.19-0.49,0.32-0.78,0.36c-0.79,0.11-1.43-0.49-1.43-1.34C24.02,21.22,24.66,20.44,25.46,20.33z"/><path fill="#cdcecf" d="M44.46,28.63c1.98,1.45,3.11,2.79,3.17,2.86c-0.3,0.43-5.96,8.65-13.28,9.68c-7.33,1.03-12.96-5.6-13.25-5.95c0.06-0.09,1.2-1.74,3.18-3.75c0.24-0.24,0.48-0.48,0.74-0.73c1.14-1.08,2.48-2.19,3.97-3.11c0.29-0.18,0.59-0.35,0.89-0.52c1.27-0.69,2.63-1.23,4.05-1.49c0.15-0.03,0.3-0.05,0.46-0.07c0.16-0.02,0.31-0.04,0.47-0.05c1.41-0.13,2.76,0.02,4.03,0.35c0.3,0.08,0.6,0.17,0.89,0.27c1.48,0.5,2.83,1.24,3.96,2C43.98,28.29,44.23,28.46,44.46,28.63z M34.36,39.24c3-0.42,5.45-3.4,5.45-6.65c0.01-3.24-2.43-5.53-5.43-5.11c-3.01,0.42-5.46,3.4-5.46,6.64C28.91,37.37,31.34,39.66,34.36,39.24"/><path fill="#c02452" d="M20.65,27.17c0.76-0.11,1.38,0.45,1.43,1.25c0,0.03,0,0.07,0,0.1c0,0.32-0.09,0.62-0.24,0.89c-0.26,0.45-0.69,0.79-1.19,0.85c-0.79,0.11-1.43-0.5-1.43-1.34C19.22,28.08,19.86,27.29,20.65,27.17z"/><path fill="#d6d6d7" d="M8.35,51.1l51.98-7.31l0.07-36.17l-51.98,7.3L8.35,51.1z M20.65,27.17c0.76-0.11,1.38,0.45,1.43,1.25l1.79,0.27c0.13,0.03,0.24,0.11,0.3,0.23l0.85,1.83c1.14-1.08,2.48-2.19,3.97-3.11c-0.02-0.06-0.04-0.12-0.04-0.19l0-2.45l-2.73-1.93c-0.23,0.19-0.49,0.32-0.78,0.36c-0.79,0.11-1.43-0.49-1.43-1.34c0-0.85,0.64-1.64,1.43-1.75c0.79-0.11,1.44,0.49,1.44,1.34c0,0.18-0.03,0.36-0.08,0.53l2.9,2.05c0.11,0.08,0.17,0.22,0.17,0.37l0,2.5c0.08-0.04,0.16-0.09,0.24-0.13c1.2-0.63,2.48-1.12,3.81-1.37l0.01-7.28c-0.57-0.13-0.97-0.65-0.97-1.34c0-0.85,0.64-1.64,1.43-1.75c0.79-0.11,1.43,0.49,1.43,1.34c0,0.68-0.41,1.31-0.97,1.6l-0.01,7.29c1.41-0.13,2.76,0.02,4.03,0.35l0-2.49c0-0.15,0.07-0.31,0.18-0.42l2.91-2.87c-0.05-0.15-0.08-0.32-0.08-0.5c0-0.85,0.64-1.64,1.43-1.75c0.79-0.11,1.44,0.49,1.44,1.34c0,0.85-0.65,1.64-1.44,1.75c-0.28,0.04-0.55-0.01-0.77-0.14l-2.74,2.7l0,2.45c0,0.07-0.01,0.13-0.04,0.2c1.48,0.5,2.83,1.24,3.96,2l0.87-2.07c0.06-0.14,0.17-0.25,0.3-0.31l1.79-0.77c0.05-0.81,0.67-1.55,1.43-1.65c0.79-0.11,1.43,0.5,1.43,1.35c0,0.84-0.64,1.64-1.43,1.75c-0.5,0.07-0.93-0.14-1.19-0.52l-1.59,0.69l-0.82,1.96c-0.01,0.03-0.03,0.07-0.05,0.1c1.98,1.45,3.11,2.79,3.17,2.86c-0.3,0.43-5.96,8.65-13.28,9.68c-7.33,1.03-12.96-5.6-13.25-5.95c0.06-0.09,1.2-1.74,3.18-3.75c-0.02-0.03-0.04-0.05-0.06-0.09l-0.8-1.73l-1.58-0.24c-0.26,0.45-0.69,0.79-1.19,0.85c-0.79,0.11-1.43-0.5-1.43-1.34C19.22,28.08,19.86,27.29,20.65,27.17"/><path fill="#6f91ad" d="M41.97,20.07c0.11,0.31,0.31,0.56,0.58,0.71l-2.74,2.7l0,2.45c0,0.07-0.01,0.13-0.04,0.2c-0.29-0.1-0.59-0.19-0.89-0.27l0-2.49c0-0.15,0.07-0.31,0.18-0.42L41.97,20.07z"/><polygon fill="#2a445c" points="7.31 10.86 2.57 8.29 56.79 .67 61.52 3.24"/><polygon fill="#20384e" points="4.74 55.95 0 53.37 .08 11.32 4.81 13.9"/><g><defs><path id="bg" d="M4.81,13.9l-4.74-2.58c0-1.48,1.12-2.84,2.49-3.04l4.74,2.58C5.94,11.06,4.82,12.42,4.81,13.9z" enable-background="new"/></defs><clipPath id="bh"><use overflow="visible" xlink:href="#bg"/></clipPath><g clip-path="url(#bh)"><path fill="#21394f" d="M4.81,13.9l-4.74-2.58c0-0.36,0.07-0.72,0.19-1.06l4.74,2.58C4.88,13.18,4.82,13.53,4.81,13.9"/><path fill="#223a51" d="M5.01,12.84l-4.74-2.58c0.05-0.14,0.12-0.28,0.19-0.42l4.74,2.58C5.12,12.56,5.06,12.7,5.01,12.84"/><path fill="#233b52" d="M5.19,12.42L0.46,9.85c0.06-0.11,0.13-0.22,0.2-0.33l4.74,2.58C5.32,12.2,5.26,12.31,5.19,12.42"/><path fill="#243c53" d="M5.4,12.09L0.66,9.52c0.07-0.1,0.14-0.19,0.22-0.28l4.74,2.58C5.54,11.9,5.47,12,5.4,12.09"/><path fill="#253e55" d="M5.62,11.81L0.89,9.23c0.08-0.09,0.17-0.18,0.25-0.26l4.74,2.58C5.79,11.63,5.7,11.72,5.62,11.81"/><path fill="#263f56" d="M5.88,11.55L1.14,8.98c0.1-0.09,0.2-0.17,0.3-0.24l4.74,2.58C6.07,11.39,5.97,11.47,5.88,11.55"/><path fill="#274058" d="M6.18,11.32L1.44,8.74c0.13-0.09,0.26-0.17,0.4-0.23l4.74,2.58C6.44,11.15,6.31,11.23,6.18,11.32"/><path fill="#284159" d="M6.58,11.08L1.85,8.51C2.08,8.4,2.32,8.32,2.57,8.29l4.74,2.58C7.06,10.9,6.81,10.97,6.58,11.08"/></g></g></g></svg>