<svg xmlns="http://www.w3.org/2000/svg" width="32" height="32" viewBox="0 0 32 32"><g transform="translate(26.003 -1021.359)"><path fill="#2b4255" style="line-height:normal;text-indent:0;text-align:start;text-decoration-line:none;text-decoration-style:solid;text-decoration-color:#000;text-transform:none;block-progression:tb;isolation:auto;mix-blend-mode:normal" d="m -20.503906,1024.3594 a 0.50004997,0.50004997 0 0 0 -0.5,0.5 l 0,6 a 0.50004997,0.50004997 0 0 0 0.5,0.5 l 20.99999975,0 a 0.50004997,0.50004997 0 0 0 0.5,-0.5 l 0,-6 a 0.50004997,0.50004997 0 0 0 -0.5,-0.5 l -20.99999975,0 z m 0.5,1 19.99999975,0 0,5 -19.99999975,0 0,-5 z" color="#000" font-family="sans-serif" font-weight="400" overflow="visible"/><path fill="#2b4255" fill-rule="evenodd" style="line-height:normal;text-indent:0;text-align:start;text-decoration-line:none;text-decoration-style:solid;text-decoration-color:#000;text-transform:none;block-progression:tb;isolation:auto;mix-blend-mode:normal" d="m -7.0039062,1027.3594 0,1 6,0 0,-1 -6,0 z" color="#000" font-family="sans-serif" font-weight="400" overflow="visible"/><path fill="#2b4255" style="line-height:normal;text-indent:0;text-align:start;text-decoration-line:none;text-decoration-style:solid;text-decoration-color:#000;text-transform:none;block-progression:tb;isolation:auto;mix-blend-mode:normal" d="m -20.503906,1033.3594 a 0.50004997,0.50004997 0 0 0 -0.5,0.5 l 0,6 a 0.50004997,0.50004997 0 0 0 0.5,0.5 l 20.99999975,0 a 0.50004997,0.50004997 0 0 0 0.5,-0.5 l 0,-6 a 0.50004997,0.50004997 0 0 0 -0.5,-0.5 l -20.99999975,0 z m 0.5,1 19.99999975,0 0,5 -19.99999975,0 0,-5 z" color="#000" font-family="sans-serif" font-weight="400" overflow="visible"/><path fill="#2b4255" fill-rule="evenodd" style="line-height:normal;text-indent:0;text-align:start;text-decoration-line:none;text-decoration-style:solid;text-decoration-color:#000;text-transform:none;block-progression:tb;isolation:auto;mix-blend-mode:normal" d="m -7.0039062,1036.3594 0,1 6,0 0,-1 -6,0 z" color="#000" font-family="sans-serif" font-weight="400" overflow="visible"/><path fill="#2b4255" style="line-height:normal;text-indent:0;text-align:start;text-decoration-line:none;text-decoration-style:solid;text-decoration-color:#000;text-transform:none;block-progression:tb;isolation:auto;mix-blend-mode:normal" d="m -20.503906,1042.3594 a 0.50004997,0.50004997 0 0 0 -0.5,0.5 l 0,6 a 0.50004997,0.50004997 0 0 0 0.5,0.5 l 20.99999975,0 a 0.50004997,0.50004997 0 0 0 0.5,-0.5 l 0,-6 a 0.50004997,0.50004997 0 0 0 -0.5,-0.5 l -20.99999975,0 z m 0.5,1 19.99999975,0 0,5 -19.99999975,0 0,-5 z" color="#000" font-family="sans-serif" font-weight="400" overflow="visible"/><path fill="#2b4255" fill-rule="evenodd" style="line-height:normal;text-indent:0;text-align:start;text-decoration-line:none;text-decoration-style:solid;text-decoration-color:#000;text-transform:none;block-progression:tb;isolation:auto;mix-blend-mode:normal" d="M-19.025391 1044.3594l0 3 1 0 0-3-1 0zM-17.003906 1044.3594l0 3 1 0 0-3-1 0zM-15.003906 1044.3594l0 3 1 0 0-3-1 0zM-6.0253906 1044.3594l0 3 1 0 0-3-1 0zM-4.0253906 1044.3594l0 3 1 0 0-3-1 0zM-2.0039062 1044.3594l0 3 1 0 0-3-1 0zM-10.503906 1031.3594l0 2 .9999998 0 0-2-.9999998 0zM-10.503906 1040.3594l0 2 .9999998 0 0-2-.9999998 0z" color="#000" font-family="sans-serif" font-weight="400" overflow="visible"/><path fill="#f8b84e" d="M-19.003401 1026.3588l10.0000002 0 0 3-10.0000002 0zM-19.003401 1035.3588l10.0000002 0 0 3-10.0000002 0zM-8.5033998 1045.8588a1.5 1.5 0 0 1-1.5000002 1.5 1.5 1.5 0 0 1-1.5-1.5 1.5 1.5 0 0 1 1.5-1.5 1.5 1.5 0 0 1 1.5000002 1.5z"/></g></svg>