<svg xmlns="http://www.w3.org/2000/svg" data-name="Layer 1" viewBox="0 0 64 64"><polygon fill="#4f5d75" points="24 60 24 54.91 22 54.91 22 60 20 60 20 55 18 55 18 60 12 60 12 62 30 62 30 60 24 60"/><path fill="#7cb2f8" d="M37,30a2,2,0,0,1,2,2V54a2,2,0,0,1-2,2H5a2,2,0,0,1-2-2V32a2,2,0,0,1,2-2"/><rect width="20" height="36" x="42" y="26" fill="#65788f" rx="1"/><rect width="10" height="6" x="47" y="32" fill="#e6eef3" rx="1"/><rect width="10" height="6" x="47" y="43" fill="#e6eef3" rx="1"/><rect width="12" height="2" x="46" y="54" fill="#e6eef3"/><rect width="2" height="2" x="53" y="34" fill="#414d5c"/><rect width="2" height="2" x="53" y="45" fill="#414d5c"/><rect width="3" height="2" x="22" y="34" fill="#4f5d75"/><rect width="10" height="2" x="22" y="42" fill="#4f5d75"/><rect width="3" height="2" x="22" y="50" fill="#4f5d75"/><rect width="6" height="2" x="22" y="38" fill="#4f5d75"/><rect width="6" height="2" x="22" y="46" fill="#4f5d75"/><path fill="#628dc4" d="M49.45,14.55a8.5,8.5,0,0,0-1.94.23,7.17,7.17,0,0,0-7-6,7,7,0,0,0-2.6.5A9.5,9.5,0,0,0,28.7,2a9.61,9.61,0,0,0-9.49,9.69c0,.18,0,.35,0,.53A9.71,9.71,0,0,0,16,11.66,10.08,10.08,0,0,0,6,21.83,10.52,10.52,0,0,0,6.23,24H58q0-.36,0-.72A8.65,8.65,0,0,0,49.45,14.55Z"/><polyline fill="#7cb2f8" points="7.25 24 7.25 24 56.97 24 56.97 24"/><path fill="#3d5a80" d="M34.4,18.8,31,16.25,27.6,18.8l-1.2-1.6,4-3a1,1,0,0,1,1.2,0l4,3Z"/><path fill="#d98285" d="M37.35,25.65l-6-6a.48.48,0,0,0-.7,0l-6,6a.47.47,0,0,0-.11.54.5.5,0,0,0,.46.31h3.5V32a.5.5,0,0,0,.5.5h4a.5.5,0,0,0,.5-.5V26.5H37a.5.5,0,0,0,.46-.31A.47.47,0,0,0,37.35,25.65Z"/><path fill="#4f5d75" d="M18.55,33.5a1.38,1.38,0,0,0-1.4,1.36v.58a.4.4,0,0,1-.28.35,7.94,7.94,0,0,0-1.8,1,.46.46,0,0,1-.49.05l-.53-.29a1.43,1.43,0,0,0-1.91.49l-1.45,2.4a1.31,1.31,0,0,0-.14,1,1.32,1.32,0,0,0,.66.84l.52.29a.33.33,0,0,1,.2.33,7.06,7.06,0,0,0,0,2.12.33.33,0,0,1-.2.33l-.52.29a1.32,1.32,0,0,0-.66.84,1.31,1.31,0,0,0,.14,1L12.14,49a1.43,1.43,0,0,0,1.91.49l.53-.29a.46.46,0,0,1,.49.05,7.94,7.94,0,0,0,1.8,1,.4.4,0,0,1,.28.35v.58a1.38,1.38,0,0,0,1.4,1.36H20v-6a3.5,3.5,0,0,1,0-7v-6Z"/></svg>