<svg xmlns="http://www.w3.org/2000/svg" width="16" height="16" viewBox="0 0 16 16"><path style="line-height:normal;text-indent:0;text-align:start;text-decoration-line:none;text-decoration-style:solid;text-decoration-color:#000;text-transform:none;block-progression:tb;white-space:normal;isolation:auto;mix-blend-mode:normal;solid-color:#000;solid-opacity:1" d="M 0 2 L 0 2.5 L 0 14 L 16 14 L 16 2 L 0 2 z M 1 3 L 9 3 L 9 4 L 1 4 L 1 3 z M 10 3 L 11 3 L 11 4 L 10 4 L 10 3 z M 12 3 L 13 3 L 13 4 L 12 4 L 12 3 z M 14 3 L 15 3 L 15 4 L 14 4 L 14 3 z M 1 5 L 15 5 L 15 13 L 1 13 L 1 5 z M 8.0332031 6.4511719 L 6.2109375 9.5742188 L 4.5273438 7.1679688 L 2.109375 10.189453 L 2.890625 10.8125 L 4.4726562 8.8339844 L 6.2890625 11.427734 L 7.9667969 8.5507812 L 9.4140625 11.447266 L 10.962891 9.3847656 L 12.191406 11.351562 L 13.884766 9.3203125 L 13.115234 8.6816406 L 12.308594 9.6503906 L 11.037109 7.6171875 L 9.5859375 9.5527344 L 8.0332031 6.4511719 z " color="#000" enable-background="accumulate" font-family="sans-serif" font-weight="400" overflow="visible"/></svg>