<svg xmlns="http://www.w3.org/2000/svg" enable-background="new 0 0 79 79" viewBox="0 0 79 79"><path fill="#FFF" d="M35.57938,66.7781982l-0.0107079,2.5090408c0,1.1979828-0.7916031,2.396225-2.3534584,3.3053513
				c-3.1771164,1.840065-8.3225956,1.840065-11.5104198,0c-1.6046219-0.919838-2.4069309-2.1394958-2.3962879-3.3481827
				l0.0107079-2.4556351c-0.0213509-1.2195206,0.7702503-2.428215,2.3641624-3.3590164
				c3.1664104-1.8399353,8.3119564-1.8399353,11.4997787,0C34.7877769,64.3498535,35.57938,65.569252,35.57938,66.7781982z"/><path fill="#FFF" d="M33.1790695,63.4248238c3.1844101,1.8385201,3.2075577,4.8233757,0.0438881,6.6618996
				c-3.170084,1.842247-8.3231792,1.8386002-11.5075893,0.0000763c-3.1844101-1.8385162-3.2012329-4.8197174-0.0311508-6.661972
				C24.847887,61.5863037,29.9946594,61.5863037,33.1790695,63.4248238z"/><path fill="#979AAB" d="M27.478056,71.7283859c-2.2197266,0-4.3125-0.5024414-5.8935547-1.4150391
				c-1.6289063-0.9404297-2.5273438-2.206543-2.5292969-3.5654297c-0.0019531-1.3515625,0.8852539-2.6123047,2.4975586-3.5493126
				c1.5693359-0.9121094,3.6542969-1.4140625,5.8710938-1.4140625c2.2163086,0,4.3066406,0.5019531,5.8862324,1.4135742
				c1.6313477,0.942379,2.53125,2.211422,2.5332031,3.5727501c0.0014648,1.3505859-0.8823242,2.6083984-2.4887695,3.5419922
				C31.78372,71.2259445,29.6963177,71.7283859,27.478056,71.7283859z M27.4238567,62.3074913
				c-2.1259766,0-4.1176758,0.4770508-5.6083984,1.3432617c-1.4443359,0.8393517-2.2387695,1.938961-2.2373047,3.0966759
				c0.0019531,1.1640625,0.8071289,2.2695313,2.2680664,3.112793c1.5024414,0.8676758,3.5024414,1.3452148,5.6318359,1.3452148
				c2.1274414,0,4.1210938-0.4775391,5.6137714-1.3447266c1.4384766-0.8359375,2.2299805-1.9331055,2.2285156-3.0888672
				c-0.0014648-1.1674805-0.8085938-2.2758789-2.2719727-3.1206017
				C31.5473919,62.7845421,29.5498333,62.3074913,27.4238567,62.3074913z"/><path fill="#F9D893" d="M31.9930019,64.4197464c2.5252438,1.2894897,2.5435963,3.382988,0.0347996,4.6724777
				c-2.5138798,1.2921066-6.6002941,1.2895508-9.1255379,0.000061s-2.5385838-3.3804245-0.0247021-4.6725311
				C25.3863583,63.1302605,29.4677582,63.1302605,31.9930019,64.4197464z"/><path fill="#FFF" d="M29.8863316,67.9340286l-0.3011055-0.1738434l-0.2950821,0.1714859l0.3011055,0.1738434
					l-0.590189,0.3429794l-0.3011055-0.1738434l-0.8893261,0.5168228l-0.5940495-0.3429794l0.8893261-0.5168152
					l-1.1921806-0.6883087l-0.5981293-0.3453293l-1.1881104-0.6859589l-0.8893261,0.5168228l-0.5981293-0.3453293
					l0.8893242-0.5168228l-0.2970238-0.1714859l0.590189-0.3429794l0.2970238,0.1714859l0.295084-0.1714859l-0.2970257-0.1714859
					l0.5942421-0.3453369l0.2970257,0.1714935c0.654871-0.3805695,1.7174892-0.3806,2.3766575-0.0000305
					c0.3295708,0.1902847,0.4932003,0.4392853,0.4945793,0.688324l-0.0077515,0.065773
					c0.4622841-0.0188065,0.9413395,0.0704575,1.2994003,0.2771835c0.6545372,0.3778992,0.6666584,0.9937057,0.0077133,1.3766403
					l0.3011055,0.1738434L29.8863316,67.9340286z M28.6960945,67.5886993l0.8893242-0.5168228
					c0.3234348-0.1879578,0.3216896-0.4980545-0.0078945-0.6883392C29.2520218,66.19561,28.7166729,66.19561,28.39324,66.3835754
					l-0.8893261,0.5168152L28.6960945,67.5886993 M26.9057846,66.5550613l0.8893261-0.5168228
					c0.3234329-0.1879578,0.3257561-0.495697-0.0038166-0.6859818c-0.3295822-0.1902847-0.8608608-0.1879272-1.1842957,0.0000305
					l-0.8893242,0.5168152L26.9057846,66.5550613"/><path fill="#FFF" d="M26.0769768,63.9793396l-0.0107079,2.5090408c0,1.1979828-0.7916031,2.396225-2.3534565,3.3053513
				c-3.1771164,1.840065-8.3225975,1.840065-11.5104227,0c-1.60462-0.919838-2.40693-2.1394958-2.3962879-3.3481827
				l0.0107079-2.4556313c-0.0213499-1.2195244,0.7702522-2.428215,2.3641644-3.3590202
				c3.1664095-1.8399315,8.3119555-1.8399315,11.4997797,0C25.2853737,61.5509949,26.0769768,62.7703934,26.0769768,63.9793396z"/><path fill="#FFF" d="M23.6766663,60.6259689c3.1844101,1.8385201,3.2075577,4.8233719,0.0438862,6.6618958
				c-3.1700821,1.8422546-8.3231773,1.8386002-11.5075874,0.0000763c-3.1844101-1.8385162-3.2012329-4.8197174-0.0311508-6.6619682
				C15.3454847,58.7874489,20.4922562,58.7874489,23.6766663,60.6259689z"/><path fill="#979AAB" d="M17.9756145,68.9295578c-2.2197266,0-4.3125-0.5024414-5.8935547-1.4150391
				c-1.6289063-0.9404297-2.5273438-2.206543-2.5292969-3.5654259c-0.0019531-1.3515625,0.8852539-2.6123047,2.4975586-3.5493164
				c1.5693359-0.9121094,3.6542969-1.4140625,5.8710938-1.4140625c2.2163086,0,4.3066406,0.5019531,5.8862305,1.4135742
				c1.6313477,0.9423828,2.53125,2.2114258,2.5332031,3.5727539c0.0014648,1.3505821-0.8823242,2.6083946-2.4887695,3.5419884
				C22.2812786,68.4271164,20.1938763,68.9295578,17.9756145,68.9295578z M17.9214153,59.5086632
				c-2.1259766,0-4.1176758,0.4770508-5.6083984,1.3432617c-1.4443359,0.8393555-2.2387695,1.9389648-2.2373047,3.0966797
				c0.0019531,1.1640587,0.8071289,2.2695274,2.2680664,3.1127892c1.5024414,0.8676758,3.5024414,1.3452148,5.6318359,1.3452148
				c2.1274414,0,4.1210938-0.4775391,5.6137695-1.3447266c1.4384766-0.8359375,2.2299805-1.9331055,2.2285156-3.0888634
				c-0.0014648-1.1674805-0.8085938-2.2758789-2.2719727-3.1206055
				C22.0449505,59.985714,20.0473919,59.5086632,17.9214153,59.5086632z"/><path fill="#F9D893" d="M22.4905987,61.6208916c2.5252438,1.2894897,2.5435982,3.3829842,0.0348015,4.6724815
				c-2.5138817,1.2921066-6.600296,1.2895432-9.1255388,0.0000534s-2.5385847-3.3804245-0.024703-4.6725311
				C15.883955,60.3314018,19.9653549,60.3314018,22.4905987,61.6208916z"/><path fill="#FFF" d="M20.3839283,65.13517l-0.3011055-0.1738358l-0.2950821,0.1714783l0.3011055,0.1738434
					l-0.590189,0.3429794l-0.3011055-0.1738434l-0.8893242,0.5168228l-0.5940514-0.3429794l0.8893261-0.5168152
					l-1.1921787-0.6883087l-0.5981312-0.3453293l-1.1881104-0.685955l-0.8893251,0.516819l-0.5981302-0.3453293l0.8893251-0.516819
					l-0.2970247-0.1714859l0.590189-0.3429832l0.2970247,0.1714897l0.295083-0.1714859l-0.2970247-0.1714859l0.594243-0.3453369
					l0.2970238,0.1714897c0.654871-0.3805695,1.7174911-0.3805962,2.3766575-0.0000267
					c0.3295708,0.1902809,0.4932022,0.4392891,0.4945793,0.688324l-0.0077515,0.065773
					c0.4622841-0.0188103,0.9413395,0.0704575,1.2994003,0.2771835c0.6545372,0.3778954,0.6666584,0.9937019,0.0077152,1.3766441
					l0.3011036,0.1738434L20.3839283,65.13517z M19.1936913,64.7898407l0.8893242-0.5168228
					c0.3234348-0.1879578,0.3216896-0.4980507-0.0078945-0.6883354c-0.3255024-0.1879311-0.8608513-0.1879272-1.1842842,0.0000343
					l-0.8893261,0.5168152L19.1936913,64.7898407 M17.4033813,63.7562027l0.8893261-0.516819
					c0.3234329-0.1879578,0.3257561-0.4957008-0.0038147-0.6859818c-0.3295841-0.1902847-0.8608627-0.1879311-1.1842976,0.0000267
					l-0.8893242,0.516819L17.4033813,63.7562027"/><path fill="#F4F4F4" d="M43.9142761,32.793232c0,0.307766-0.3433075,0.9114418-0.6155243,1.0651779L17.542345,48.7252197
				l13.9789963-31.7457809l12.002306-6.9242249l0.331459-0.1894264L43.9142761,32.793232z"/><polygon fill="#DEDDE2" points="42.361 37.543 42.359 37.545 42.356 37.544"/><polygon fill="#EF473E" points="15.895 39.945 15.914 46.869 13.08 48.505 13.06 41.582"/><polygon fill="#662DDC" points="21.635 34.815 21.66 43.551 18.826 45.188 18.801 36.451"/><polygon fill="#BCBCBE" points="35.669 16.989 39.184 15.892 38.392 20.391 37.318 19.042 25.903 32.889 20.17 30.888 14.994 37.902 14.341 37.162 20.228 29.191 26.017 31.216 36.694 18.262"/><polygon fill="#F9D893" points="27.392 35.115 27.406 40.234 24.572 41.87 24.557 36.752"/><polygon fill="#EF473E" points="33.133 29.993 33.152 36.916 30.311 38.557 30.291 31.633"/><polygon fill="#662DDC" points="38.862 23.494 38.891 33.603 36.057 35.239 36.028 25.131"/><g><path fill="#F9D893" d="M16.3944664,36.319519c0,0.7605476-0.5306578,1.6802254-1.1850853,2.0606613
			c-0.2564487,0.1414223-0.4952469,0.1856842-0.6809855,0.1414223c-0.2653008-0.0531158-0.4421864-0.265358-0.5040455-0.6101685
			c-0.008852-0.0619659-0.008852-0.1415291-0.008852-0.2122421c-0.008853-0.7695084,0.5217505-1.680439,1.1850309-2.0606575
			C15.8549566,35.2583122,16.3944664,35.5501175,16.3944664,36.319519z"/></g><g><path fill="#EF473E" d="M21.4200764,29.3069305c0,0.7605476-0.5306568,1.6802235-1.1850853,2.0606594
			c-0.2564487,0.1414223-0.4952469,0.1856842-0.6809845,0.1414223c-0.2653008-0.0531139-0.4421864-0.2653561-0.5040455-0.6101665
			c-0.008852-0.0619659-0.008852-0.1415291-0.008852-0.2122402c-0.008852-0.7695084,0.5217495-1.6804409,1.18503-2.0606594
			C20.8805676,28.2457256,21.4200764,28.537529,21.4200764,29.3069305z"/></g><g><path fill="#662DDC" d="M27.152668,31.5006371c0,0.7605476-0.5306568,1.6802216-1.1850853,2.0606575
			c-0.2564487,0.1414223-0.4952469,0.1856842-0.6809845,0.1414223c-0.2653008-0.053112-0.4421864-0.2653542-0.5040455-0.6101646
			c-0.008852-0.0619659-0.008852-0.1415291-0.008852-0.2122421c-0.008852-0.7695084,0.5217495-1.680439,1.18503-2.0606594
			C26.6131592,30.4394302,27.152668,30.7312355,27.152668,31.5006371z"/></g><g><polygon fill="#FFF" points="74.392 50.389 48.603 65.266 36.111 57.999 36.098 54.645 38.992 52.974 39.247 52.822 58.98 41.425 58.993 41.425 61.874 39.768 65.15 41.667 71.091 45.122 71.103 45.122 74.38 47.034"/><path fill="#DAE4C9" d="M60.1403084,53.6332932c-2.1543808,1.2492599-6.0552063,0.9688454-8.7704926-0.6118698
				c-2.7025261-1.567955-3.1741905-3.837101-1.0325699-5.0736008c2.1288605-1.236496,6.0552063-0.9560852,8.7704926,0.6118698
				C61.8102646,50.1276474,62.2691689,52.4095535,60.1403084,53.6332932z"/><path fill="#FFF" d="M56.9123993,52.0041733l-1.5444489-0.8975372
				c-1.1322517,0.4243507-2.2893066,0.6968269-3.3347092,0.0893059c-0.9609146-0.5584221-0.79776-1.3414192,0.1487465-1.9407845
				l-0.3961525-0.2302208l0.5045967-0.2913284l0.4042625,0.2349319c0.6184006-0.3195381,1.3739853-0.5216103,2.2506523-0.6155739
				l0.2069206,0.7236786c-0.6088333,0.061058-1.1368866,0.1879196-1.5923347,0.3947182l1.4878502,0.8646431l0.0244408-0.0141106
				c1.2393494-0.439106,2.3486176-0.7000771,3.4158478-0.0798683c0.9782372,0.5684853,0.7739525,1.3640366-0.1977463,1.9783363
				l0.5660515,0.3289528l-0.5045967,0.2913284l-0.5741615-0.3336639c-0.8052902,0.3806229-1.7394257,0.5920792-2.8430023,0.6390648
				l-0.0931511-0.7424469C55.6691322,52.3754234,56.3513603,52.2344398,56.9123993,52.0041733z M57.4412804,51.7269516
				c0.392025-0.2931099,0.5712814-0.6297607,0.1428604-0.8787308c-0.4701347-0.2732124-1.0403976-0.116375-1.574131,0.0469704
				L57.4412804,51.7269516 M53.0229683,49.7438812c-0.3723946,0.2809219-0.5209122,0.593029-0.118206,0.8270569
				c0.4759407,0.2765884,0.955986,0.1301804,1.492897-0.0281754L53.0229683,49.7438812"/><path fill="#DAE4C9" d="M61.7855415 45.3599663c-.6999474.4041138-.7116852 1.0478935-.0162354 1.4520454.6953964.4041176 1.8068504.3994255 2.506794-.0046883.6918335-.3994293.7035675-1.0432091.0081711-1.4473305C63.5888252 44.9558411 62.4773712 44.960537 61.7855415 45.3599663zM46.2013435 54.8585701c-.691803.3994141-.7035408 1.0431938-.008091 1.4473457.6953964.4041176 1.8068466.3994217 2.4986534.0000114.6999435-.4041138.7116814-1.0478935.0162849-1.4520149C48.0127411 54.4497604 46.9012909 54.4544563 46.2013435 54.8585701z"/><polygon fill="#D9DADF" points="57.201 56.646 57.201 60.311 53.995 62.157 53.995 58.5 41.737 51.372 44.935 49.519"/></g><g><polygon fill="#FFF" points="74.392 40.684 48.603 55.561 36.111 48.294 36.098 44.939 38.992 43.269 39.247 43.117 58.98 31.72 58.993 31.72 61.874 30.063 65.15 31.962 71.091 35.417 71.103 35.417 74.38 37.329"/><path fill="#DAE4C9" d="M60.1403084,43.9282646c-2.1543808,1.2492599-6.0552063,0.9688454-8.7704926-0.6118698
				c-2.7025261-1.567955-3.1741905-3.837101-1.0325699-5.073597c2.1288605-1.2364998,6.0552063-0.9560852,8.7704926,0.6118698
				C61.8102646,40.4226189,62.2691689,42.704525,60.1403084,43.9282646z"/><path fill="#FFF" d="M56.9123993,42.2991447l-1.5444489-0.8975372
				c-1.1322517,0.4243546-2.2893066,0.6968269-3.3347092,0.0893059c-0.9609146-0.5584221-0.79776-1.3414154,0.1487465-1.9407845
				l-0.3961525-0.2302208l0.5045967-0.2913284l0.4042625,0.2349319c0.6184006-0.3195381,1.3739853-0.5216064,2.2506523-0.6155739
				l0.2069206,0.7236786c-0.6088333,0.061058-1.1368866,0.1879196-1.5923347,0.3947182l1.4878502,0.8646431l0.0244408-0.0141106
				c1.2393494-0.439106,2.3486176-0.7000771,3.4158478-0.0798683c0.9782372,0.5684891,0.7739525,1.3640366-0.1977463,1.9783363
				l0.5660515,0.3289528l-0.5045967,0.2913322l-0.5741615-0.3336678c-0.8052902,0.3806267-1.7394257,0.5920792-2.8430023,0.6390648
				l-0.0931511-0.7424469C55.6691322,42.6703949,56.3513603,42.5294113,56.9123993,42.2991447z M57.4412804,42.0219269
				c0.392025-0.2931137,0.5712814-0.6297646,0.1428604-0.8787346c-0.4701347-0.2732124-1.0403976-0.116375-1.574131,0.0469704
				L57.4412804,42.0219269 M53.0229683,40.0388527c-0.3723946,0.2809219-0.5209122,0.5930328-0.118206,0.8270569
				c0.4759407,0.2765884,0.955986,0.1301804,1.492897-0.0281754L53.0229683,40.0388527"/><path fill="#DAE4C9" d="M61.7855415 35.6549377c-.6999474.4041138-.7116852 1.0478935-.0162354 1.4520454.6953964.4041214 1.8068504.3994255 2.506794-.0046883.6918335-.3994293.7035675-1.0432091.0081711-1.4473267C63.5888252 35.2508163 62.4773712 35.2555084 61.7855415 35.6549377zM46.2013435 45.1535416c-.691803.3994141-.7035408 1.0431938-.008091 1.4473457.6953964.4041176 1.8068466.3994255 2.4986534.0000114.6999435-.4041138.7116814-1.0478935.0162849-1.4520111C48.0127411 44.7447357 46.9012909 44.7494278 46.2013435 45.1535416z"/><polygon fill="#D9DADF" points="57.201 46.941 57.201 50.606 53.995 52.451 53.995 48.795 41.737 41.667 44.935 39.814"/><path fill="#979AAB" d="M46.348175,32.791378L46.2817688,9.3304396V8.0653028
					c0-1.5435853-1.2396126-1.4415383-3.6293945-3.0307617c-0.4023438-0.2314453-0.9248047-0.1918945-1.46875,0.121582
					L6.196806,25.3582726c-1.0136719,0.5849609-1.8388672,2.0087891-1.8388672,3.1743164L4.4302044,53.260128
					c0,0.6079102,0.21875,1.0737305,0.621582,1.3154297c2.9508018,1.6171684,3.2972097,2.2602501,4.4706993,1.5825195
					l34.9917068-20.1977539C45.5254211,35.3768272,46.348175,33.9559288,46.348175,32.791378z M6.446806,25.791378
					L41.433136,5.5892286c0.2968674-0.1709614,0.6727562-0.2923799,0.9707031-0.1206055l2.1455078,1.2250977
					c-0.0791016,0.0284424-0.1585693,0.0722656-0.2379761,0.1130371c-0.0419312,0.0209961-0.0826416,0.0305176-0.1248169,0.0549316
					L9.1948528,27.0594444c-0.444458,0.2562256-0.847168,0.6796875-1.1650391,1.168335l-2.5509644-1.4788818
					C5.7496624,26.3475304,6.0842571,26.0006065,6.446806,25.791378z M5.3042278,54.1439171
					c-0.2412109-0.1445313-0.3740234-0.4584961-0.3740234-0.8842773L4.8579388,28.5321007
					c0-0.4290771,0.1425171-0.90625,0.367981-1.3518066l2.5539551,1.4807129
					c-0.2345543,0.4635849-0.4194946,1.0275555-0.4194946,1.578125l0.0333862,12.3394775l0.0300903,12.3900146
					c0,0.1411133,0.0126953,0.2758789,0.0371094,0.4018555L5.3042278,54.1439171z M9.2724857,55.7249718
					c-0.8132162,0.4701691-1.345211,0.0755997-1.345211-0.7602539l-0.0230103-8.052002L7.8637981,30.2376671
					c-0.0058413-0.5225563,0.2028866-1.1001263,0.4649658-1.5554199c0.2892456-0.4973145,0.6881714-0.9335938,1.1234131-1.1818848
					L44.4414368,7.2962599c0.7214699-0.42661,1.340332-0.166038,1.340332,0.769043l0.0664063,24.7265625
					c0,0.9873047-0.7250977,2.2402344-1.5839844,2.7353516L9.2724857,55.7249718z"/><path fill="#979AAB" d="M43.730011 9.6375685L10.2773724 28.9442101c-.3378906.199707-.737793.9003906-.737793 1.2929688l.059082 22.9272461c0 .0893555.0478516.171875.125.2163086.0390625.0219727.0820313.0332031.125.0332031s.0864258-.0112305.125-.0332031L43.4219055 34.076046c.3466797-.1962891.7421875-.8793945.7421875-1.2832031L44.105011 9.8538771C44.105011 9.6615887 43.8956909 9.5410957 43.730011 9.6375685zM43.1738586 33.641964L10.0976849 52.7318077l-.0581055-22.4951172c0-.21875.3037109-.7504883.4902344-.8603516l33.0761719-19.0898438.0581055 22.5068359C43.664093 33.0174522 43.3677063 33.5321007 43.1738586 33.641964zM74.5917053 46.9049034c-.0003662-.0007324-.0004272-.0014648-.0007935-.0020752-.0107422-.0186768-.0302734-.0303955-.0455933-.0458984-.0151978-.0152588-.026123-.0343018-.0452881-.0455322l-3.2592773-1.894043c-.0046997-.0031738-.0067749-.0087891-.0117188-.0117188l-1.8220825-1.057373 5.1101685-2.947998c.0776367-.0444336.1254883-.1274414.125-.2172852l-.0126953-3.3549805c-.0002441-.0463867-.0144043-.0900879-.0377197-.1281738-.0003662-.0007324-.0004272-.0014648-.0007935-.0020752-.0107422-.0186768-.0302734-.0303955-.0455933-.0458984-.0151978-.0152588-.026123-.0343018-.0452881-.0455322.1088715.0582504-7.0091553-4.076004-12.5014648-7.2646484-.0761719-.0444336-.1723633-.0449219-.2504883 0-3.0188866 1.7426167-9.4646721 5.4633713-16.8679199 9.7368164-.0240479.0054932-.0490112.0063477-.0710449.019043l-3.1977539 1.8535156c-.0161133.0093994-.0246582.0258789-.0380249.038208l-.5062866.2924805-5.0953369 2.9417725c-.0386353.0222168-.0698853.0541992-.0914917.0915527-.0077515.0134277-.006958.0302734-.012146.0449219-.0090942.026001-.0213623.0510254-.0213623.0793457 0 0 .0001831.0004883.0001831.0007324l-.0001831.0007324.012207 3.355957c.0004883.0888672.0478516.1704102.1245117.215332l5.1010742 2.9643555c-1.512085.8730469-5.4075317 3.1223145-5.112793 2.9521484-.0386353.0222168-.0698853.0541992-.0914917.0915527-.0077515.0134277-.006958.0302734-.012146.0449219-.0090942.026001-.0213623.0510254-.0213623.0793457 0 0 .0001831.0004883.0001831.0007324l-.0001831.0007324.012207 3.355957c.0004883.0888672.0478516.1704102.1245117.215332l5.166687 3.0024414 7.3279419 4.2622032c.0385742.0224609.0820313.0336914.1254883.0336914.0010986 0 .0020752-.0008545.0031738-.0008545s.0020752.0008545.0031738.0008545c.0429688 0 .0864258-.0112305.125-.0336914l5.3833008-3.1080284c.0004883-.0002441.0009766-.0001221.0014648-.0003662l3.2060547-1.8461914c.0043945-.0025635.0062866-.0076904.010498-.010498l17.1809082-9.911377c.0776367-.0444336.1254883-.1274414.125-.2172852l-.0126953-3.3549805C74.6291809 46.9866905 74.6150208 46.9429893 74.5917053 46.9049034zM48.858429 64.8297043l-.0067749-1.9204063-.0029907-.8552246 4.8959961-2.8266602v2.7836914L48.858429 64.8297043zM36.5956726 54.6456261l2.383728-1.3757324c1.3721313.8609619 1.763855 2.1044922.3789063 2.9812012l-2.3110352-1.3430176L36.5956726 54.6456261zM36.5956726 44.9405479l2.3837891-1.3757324c1.3696136.8592339 1.7658539 2.1031532.3788452 2.9812012l-2.4108887-1.401123L36.5956726 44.9405479zM65.1426086 32.251339l5.4813843 3.1846924c-1.2163162.9272995-1.2007828 2.4293785.3804321 3.5394287l-13.5859985 7.8450928c-.0215454-.0389404-.0524292-.0723877-.0922241-.0955811l-11.8707275-6.8977051 13.5384521-7.8134766C60.8210411 33.0086288 63.4833755 33.1201401 65.1426086 32.251339zM59.5257263 31.7069054l2.3478394-1.3549805 2.734436 1.5887451C63.1323586 32.555027 61.0906219 32.4407921 59.5257263 31.7069054zM48.858429 55.12463c-.0006065-.1722717-.0103912-2.9532242-.0097656-2.7756348l4.8959961-2.8267822v2.7838135L48.858429 55.12463zM45.8646545 50.3270226c1.4751434-.6252594 3.5157051-.5147781 5.0889893.229248l-2.3549805 1.3596191L45.8646545 50.3270226zM68.9009705 44.1400108l1.7229614 1.0010986c-1.2211533.9309845-1.1950226 2.4333801.3804932 3.5394287l-13.5860596 7.8447266c-.0215454-.0386963-.0524902-.0720215-.0921631-.0952148l-4.8457642-2.8157959C60.9578743 48.7224579 60.071167 49.2343407 68.9009705 44.1400108zM71.1088562 45.4228477l2.7639771 1.605835-2.3723145 1.369751C70.1129303 47.5386467 69.76017 46.2937965 71.1088562 45.4228477zM56.3440247 50.8065147l-2.0993652 1.2110596V48.794796c0-.0888672-.0473633-.1713867-.1245117-.2163086l-11.8696289-6.9016113 2.7056885-1.5615234 11.9945068 6.9699707v3.3708496L56.3440247 50.8065147zM71.1089172 35.7177696l2.7639771 1.605835-2.3723755 1.369751C70.1127243 37.8334427 69.7603073 36.5886726 71.1089172 35.7177696zM57.4507141 47.3824425l16.675293-9.6276855.0097656 2.7797852-16.6850586 9.6330566V47.3824425zM53.7446594 48.938839v.0030518l-2.2617188 1.3060303c-1.814064-.9945107-4.4799805-1.1185913-6.1508789-.2303467-.1011848-.0588989-5.8441238-3.4017868-5.4829102-3.1915283 1.360508-1.0233307 1.0530663-2.5338402-.3773804-3.5454102l2.279541-1.3156738L53.7446594 48.938839zM48.4780579 55.7767296c.0385742.0224609.0820313.0336914.1254883.0336914.0010986 0 .0020752-.0008545.0031738-.0008545s.0020752.0008545.0031738.0008545c.0429688 0 .0864258-.0112305.125-.0336914l.0394897-.0228271 4.9702759 2.8900146v.0026855l-2.2617188 1.3059082c-1.8131104-.9931641-4.4788208-1.1186523-6.1508789-.2298584-.1011963-.05896-5.8441162-3.4017334-5.4829102-3.1915283 1.3605347-1.0234375 1.0530396-2.5338135-.3774414-3.5454102l2.1120605-1.2189941L48.4780579 55.7767296zM50.954071 60.2611046l-2.3554077 1.3598633-2.7341309-1.5888672C47.3651428 59.3948936 49.4115295 59.5316124 50.954071 60.2611046zM54.1201477 58.2835655l-4.8464355-2.8178711 2.7073975-1.5631104 4.9696045 2.8878174v3.3708496l-.6066895.3503418-2.0993652 1.2110596v-3.2227783C54.2446594 58.4110069 54.1972961 58.3284874 54.1201477 58.2835655zM57.4507141 57.0875206l16.675293-9.6276855.0097656 2.7797852-16.6850586 9.6330566V57.0875206zM36.3603821 48.1502647l-.0110474-2.7741699c.1029549.0598297 12.1042938 7.0341454 11.9993286 6.9731445.0010262.2937241.0102615 2.9351387.0097046 2.7756348C34.3084068 46.9605865 42.1159172 51.4960556 36.3603821 48.1502647zM36.3603821 57.8553429l-.0110474-2.7741699.3769531.2189941c8.9813232 5.2210693 7.5246582 4.3728027 11.6223755 6.7541504l.0015869.4438477.0081177 2.3317833-6.9962158-4.0654259L36.3603821 57.8553429z"/></g><g><path fill="#FFF" d="M33.6205063,56.2450066l-0.0107079,2.5090408c0,1.1979828-0.7916031,2.396225-2.3534565,3.3053513
				c-3.1771164,1.840065-8.3225975,1.840065-11.5104218,0c-1.60462-0.9198341-2.4069309-2.139492-2.3962879-3.3481827
				l0.0107079-2.4556313c-0.0213509-1.2195282,0.7702522-2.428215,2.3641644-3.3590202
				c3.1664085-1.8399315,8.3119545-1.8399315,11.4997787,0C32.8289032,53.8166618,33.6205063,55.0360565,33.6205063,56.2450066z"/><path fill="#FFF" d="M31.2201958,52.8916359c3.1844101,1.8385201,3.2075577,4.8233719,0.0438862,6.6618958
				c-3.1700821,1.8422508-8.3231773,1.8386002-11.5075874,0.0000801s-3.2012329-4.8197212-0.0311508-6.661972
				C22.8890152,51.053112,28.0357857,51.0531158,31.2201958,52.8916359z"/><path fill="#979AAB" d="M25.5190716,61.1951866c-2.2197266,0-4.3125-0.5024414-5.8935547-1.4150391
				c-1.6289063-0.940918-2.5268555-2.2070313-2.5288086-3.5654297c-0.0019531-1.3520508,0.8847656-2.6123047,2.4970703-3.5493164
				c1.5693359-0.9121094,3.6547852-1.4140625,5.8710938-1.4140625s4.3066406,0.5019531,5.8862305,1.4135742
				c1.6318378,0.9423828,2.5312519,2.2109375,2.533205,3.5727539c0.0019531,1.3505859-0.8818359,2.6083984-2.4887714,3.5419922
				C29.8247356,60.6927452,27.7373333,61.1951866,25.5190716,61.1951866z M25.4648724,51.7742882
				c-2.1254883,0-4.1171875,0.4770508-5.6083984,1.3432617c-1.4443359,0.8393555-2.2387695,1.9389648-2.2373047,3.0961914
				c0.0019531,1.1645508,0.8071289,2.2700195,2.2680664,3.1132813c1.5024414,0.8676758,3.5024414,1.3452148,5.6318359,1.3452148
				c2.1274414,0,4.1210938-0.4775391,5.6137695-1.3447266c1.4384785-0.8359375,2.2299824-1.9331055,2.2285175-3.0893555
				c-0.0014648-1.1669922-0.8085938-2.2753906-2.2719746-3.1201172
				C29.5884075,52.251339,27.5908489,51.7742882,25.4648724,51.7742882z"/><path fill="#F9D893" d="M30.0341282,53.8865585c2.5252438,1.2894897,2.5436001,3.382988,0.0348015,4.6724777
				c-2.5138817,1.2921066-6.600296,1.289547-9.1255398,0.0000572s-2.5385838-3.3804245-0.0247021-4.6725311
				C23.4274845,52.5970688,27.5088844,52.5970688,30.0341282,53.8865585z"/><path fill="#FFF" d="M27.9274578,57.4008408l-0.3011036-0.1738434l-0.295084,0.1714821l0.3011055,0.1738434
					l-0.590189,0.3429832l-0.3011055-0.1738434l-0.8893242,0.516819l-0.5940495-0.3429756l0.8893242-0.516819l-1.1921787-0.6883049
					l-0.5981312-0.3453293l-1.1881104-0.6859589l-0.8893261,0.516819l-0.5981293-0.3453293l0.8893261-0.516819l-0.2970257-0.1714897
					l0.590189-0.3429794l0.2970257,0.1714897l0.2950821-0.1714859l-0.2970238-0.1714859l0.5942421-0.3453369l0.2970238,0.1714897
					c0.654871-0.3805695,1.7174911-0.3805962,2.3766575-0.0000267c0.3295708,0.1902809,0.4932022,0.4392853,0.4945793,0.688324
					l-0.0077515,0.065773c0.4622841-0.0188103,0.9413395,0.0704575,1.2994003,0.2771835
					c0.6545372,0.3778954,0.6666584,0.9937057,0.0077152,1.3766403l0.3011036,0.1738434L27.9274578,57.4008408z
					 M26.7372208,57.0555077l0.8893261-0.516819c0.3234329-0.1879616,0.3216877-0.4980545-0.0078964-0.6883392
					c-0.8507214-0.4911652-1.6900291,0.3622055-2.0736084,0.5168533L26.7372208,57.0555077 M24.9469109,56.0218697
					l0.8893261-0.516819c0.3234329-0.1879578,0.3257561-0.4957008-0.0038147-0.6859818
					c-0.3295841-0.1902847-0.8608627-0.1879349-1.1842976,0.0000267l-0.8893242,0.516819L24.9469109,56.0218697"/></g><g><path d="M44.6499939 36.1755333c1.0900269-.6400146 1.9500122-2.1199951 1.9500122-3.3800049-.0071602-2.5286331.0259285 9.1600952-.0700073-24.7299805 0-.7199707-.289978-1.2900391-.789978-1.5600586-.0100098 0-.0200195-.0100098-.0300293-.0200195l-2.9199829-1.6599121c-.4800415-.2900391-1.1100464-.25-1.7300415.1199951L6.0699749 25.1456261c-1.0799561.6098633-1.9599609 2.1298828-1.9599609 3.3798828l.0699463 24.7399902c0 .6900635.2700195 1.2399902.7400513 1.5200195 3.2432032 1.8367844 3.0399046 1.739975 3.1399536 1.7600098.4964581.2483978 1.0918169.1128502 1.5800171-.1599121L44.6499939 36.1755333zM8.3299847 55.5655479l-2.9000244-1.6400146c-.1599731-.0899658-.25-.3399658-.25-.6600342L5.110014 28.5255089c0-.8999023.6799927-2.0699463 1.4599609-2.5100098L41.559967 5.8055372c.2900391-.1699219.5200195-.2399902.7200317-.1099854l2.8900146 1.6300049c.0199585.0200195.0499878.0400391.0799561.0600586.1799927.0799561.2800293.3399658.2800293.6799316l.0700073 24.7299805c0 .9000244-.6700439 2.0600586-1.460022 2.5100098L9.149992 55.5154991C8.5731411 55.8232307 8.444931 55.594326 8.3299847 55.5655479zM74.6299744 46.605587c-.1001358-.0584297-4.9148026-2.8678551-4.7299805-2.7600098l4.7399902-2.7299805c.1600342-.0900879.25-.25.25-.4300537l-.0100098-3.3599854c0-.1799316-.0999756-.3400879-.25-.4299316-1.715744-.9978828-10.7853432-6.2727737-12.5-7.2700195-.1599731-.0900879-.3499756-.0900879-.5100098 0-41.4332657 23.9240608-18.490963 10.6769028-25.7699585 14.8798828-.1600342.0900879-.25.2600098-.25.4400635l.0100098 3.3499756c0 .1800537.0999756.3400879.25.4300537l4.7299805 2.75-4.7399902 2.7399902c-.1600342.0899658-.25.25-.25.4300537l.0100098 3.3598633c0 .1700439.0999756.3400879.25.4300537l12.4899902 7.260006c.0799561.0499268.1699829.0699463.25.0699463.0899658 0 .1799927-.0200195.25-.0699463l25.789978-14.8699913c.1600342-.0900879.25-.2600098.25-.4399414l-.0100098-3.3500977C74.8799744 46.855587 74.7799988 46.6955528 74.6299744 46.605587zM48.6000061 54.9854698c-15.9479027-9.2840805-10.7544518-6.2607117-11.9899902-6.9799805l-.0100098-2.7799072c6.3406639-3.6608734 18.9395294-10.9350052 25.2699585-14.5899658.8352089.4854088 11.1740265 6.4941216 12.0100098 6.9799805l.0100098 2.7800293C62.3067055 47.0670471 59.9958496 48.4111061 48.6000061 54.9854698zM48.3500061 55.9954796c.0799561.0400391.1699829.0600586.25.0600586.0899658 0 .1799927-.0200195.25-.0600586l20.0499878-11.5699463c.6967392.4057388 5.2131271 3.0357933 4.9799805 2.9000244l.0100098 2.7800293-25.289978 14.5799522-11.9899902-6.9699669-.0100098-2.7800293 4.9799805-2.8800049L48.3500061 55.9954796zM33.3799744 63.0855675c-.539978-.3100586-1.1599731-.5500488-1.7999897-.7700195 1.5599995-.9399414 2.4199848-2.1999512 2.4199848-3.5600586l.0100098-2.5100098c0-3.5069847-4.9986801-5.119873-8.5399799-5.119873-3.5728683 0-8.5746632 1.6492462-8.5 5.1298828l-.0100098 2.4500732c0 .0799561.0100098.1500244.0100098.2199707-3.3820076.2170181-7.5957432 1.860405-7.5499878 5.0599365L9.4100018 66.445549c-.0251532 3.4929123 5.0240688 5.1199951 8.5499878 5.1199951.6099854 0 1.210022-.0400391 1.789978-.1199951 1.6489964 2.1089401 5.0212784 2.9200439 7.710022 2.9200439 3.5582123 0 8.5000019-1.6058426 8.5000019-5.0800781l.0100098-2.5100098C35.9700012 65.3555832 35.0500183 64.0455246 33.3799744 63.0855675zM17.7499676 56.2454796c-.0534058-2.969841 4.7212162-4.3398438 7.7200317-4.3398438 2.9785843 0 7.7600117 1.3499794 7.7600117 4.3398438l-.0100098 2.5100098c0 1.1000977-.7700195 2.1501465-2.1600361 2.960083-1.4799805.8599854-3.4499512 1.3299561-5.5599976 1.3299561-2.0999756 0-4.0700073-.4699707-5.5599976-1.3299561C16.7831326 59.9245872 18.0092049 57.7975731 17.7499676 56.2454796zM17.9599895 70.7855148c-2.9872761 0-7.7868042-1.3686676-7.7600098-4.3399658l.0100098-2.4600792c-.0488482-2.7325096 3.9752922-4.1265678 6.9000244-4.289917.9206543 2.8740196 5.1872616 4.1400146 8.3899536 4.1400146.0599976 0 .1100464-.0100098.1700439-.0100098 0 .0500488.0199585.0999756.0199585.1500244l-.0199585 2.5098839C25.6700115 69.4578934 20.940258 70.7855148 17.9599895 70.7855148zM35.1799622 69.2855148c0 2.9684677-4.7275124 4.2900391-7.7199726 4.2900391-2.3237801 0-5.1608829-.6020813-6.7999878-2.2900391 2.7818794-.5517731 5.7999878-2.1350708 5.7999878-4.8000488l.0100098-2.5098839c0-.0599365-.0100098-.1300049-.0200195-.2000732 1.4899902-.0999756 2.8900146-.4199219 4.0900269-.9399414.8999634.2199707 1.7399921.5200195 2.4500141.9299316 1.4199829.8200645 2.1999512 1.8901329 2.1999512 3.010006L35.1799622 69.2855148z"/></g></svg>