<svg xmlns="http://www.w3.org/2000/svg" viewBox="0 0 407.59 245.87"><defs><style>.cls-1{fill:#780251;}.cls-2{fill:#6564db;}</style></defs><g id="Layer_2" data-name="Layer 2"><g id="Layer_1-2" data-name="Layer 1"><path class="cls-1" d="M0,205.67H7.88V209a9.38,9.38,0,0,1,8.2-4.43c4.05,0,7.44,1.92,9,5a10.92,10.92,0,0,1,9.41-4.92c6.35,0,10.78,4.7,10.78,11.43v17.61h-8.2v-16c0-3.34-2.09-5.8-5.2-5.91s-5.31,2.46-5.31,5.91v16h-8.2v-16c0-3.55-2-5.91-5-5.91S8.2,214.15,8.2,217.7v16H0Z"/><path class="cls-1" d="M64.71,234.77c-9.18,0-15.53-6.19-15.53-15.1s6.35-15.1,15.53-15.1,15.59,6.18,15.59,15.1S74,234.77,64.71,234.77Zm0-23c-4.26,0-7.32,3.28-7.32,7.88s3.06,7.87,7.32,7.87,7.39-3.28,7.39-7.87S69,211.79,64.71,211.79Z"/><path class="cls-1" d="M106,193.09h8.21v40.58h-8.1v-3.39a11.55,11.55,0,0,1-9.35,4.49c-7.77,0-13.29-6.24-13.29-15.1s5.52-15.1,13.29-15.1a11.34,11.34,0,0,1,9.24,4.49Zm-7,34.29c4.27,0,7.33-3.28,7.33-7.71S103.28,212,99,212s-7.33,3.28-7.33,7.71S94.8,227.38,99,227.38Z"/><path class="cls-1" d="M141.63,205.67h8.2v28h-8.2v-3.88a11.37,11.37,0,0,1-9.52,5c-7.88,0-13.4-6.24-13.4-15.1s5.52-15.1,13.4-15.1a11.37,11.37,0,0,1,9.52,5Zm-.06,14c0-4.54-3.06-7.88-7.33-7.88s-7.33,3.34-7.33,7.88,3.07,7.87,7.33,7.87S141.57,224.21,141.57,219.67Z"/><path class="cls-1" d="M195.51,206.05h4.16v27.62h-4.16V228.8a12.92,12.92,0,0,1-11.1,6c-8.26,0-14.23-6.3-14.23-14.88s6-14.93,14.23-14.93a12.84,12.84,0,0,1,11.1,6Zm-.06,13.84c0-6.46-4.48-11.11-10.55-11.11s-10.56,4.65-10.56,11.11S178.77,231,184.9,231,195.45,226.29,195.45,219.89Z"/><path class="cls-1" d="M231.94,217.15v16.52h-4.16V217.15c0-4.86-2.79-8.37-7.65-8.37a8.84,8.84,0,0,0-9,8.76v16.13H207V206.05h4.15v3.88a11.27,11.27,0,0,1,9.46-5C227.62,205,231.94,210.1,231.94,217.15Z"/><path class="cls-1" d="M262.47,206.05h4.15v27.62h-4.15V228.8a13,13,0,0,1-11.11,6c-8.26,0-14.22-6.3-14.22-14.88s6-14.93,14.22-14.93a12.87,12.87,0,0,1,11.11,6Zm-.06,13.84c0-6.46-4.48-11.11-10.55-11.11s-10.56,4.65-10.56,11.11,4.43,11.1,10.56,11.1S262.41,226.29,262.41,219.89Z"/><path class="cls-1" d="M273.85,233.67v-40.2h4.21v40.2Z"/><path class="cls-1" d="M284.46,241.38a12.19,12.19,0,0,0,3.66.77c4.05,0,5.26-4.38,7.06-8.53l-12.42-27.57h4.6l9.85,22.42,8.64-22.42h4.43l-11,28c-2.51,6.29-4.76,11.82-10.55,11.82a12.65,12.65,0,0,1-4.27-.82Z"/><path class="cls-1" d="M317.39,209.5h-4.54v-3.45h4.71l.6-6.45h3.39v6.45h7.17v3.45h-7.17v17.17a4.18,4.18,0,0,0,4.27,4.54,12.77,12.77,0,0,0,3.33-.55v3.45a16.74,16.74,0,0,1-4.37.66c-4.54,0-7.39-3.18-7.39-7.94Z"/><path class="cls-1" d="M337.63,195.33a2.72,2.72,0,0,1,2.85,2.79,2.76,2.76,0,0,1-2.85,2.84,2.73,2.73,0,0,1-2.84-2.84A2.69,2.69,0,0,1,337.63,195.33Zm-2.08,38.34V206.05h4.16v27.62Z"/><path class="cls-1" d="M369.79,215.62a9.59,9.59,0,0,0-9.29-7c-5.8,0-10.23,4.76-10.23,11.27s4.37,11.21,10.23,11.21a9.53,9.53,0,0,0,9.29-6.84l4.11.55c-1.26,5.8-6.89,10-13.4,10-8.37,0-14.39-6.24-14.39-14.88S352.18,205,360.5,205c6.67,0,12.3,4.26,13.34,10.11Z"/><path class="cls-1" d="M403.44,206.05h4.15v27.62h-4.15V228.8a13,13,0,0,1-11.11,6c-8.26,0-14.22-6.3-14.22-14.88s6-14.93,14.22-14.93a12.87,12.87,0,0,1,11.11,6Zm-.06,13.84c0-6.46-4.48-11.11-10.55-11.11s-10.56,4.65-10.56,11.11S386.7,231,392.83,231,403.38,226.29,403.38,219.89Z"/><path class="cls-1" d="M124.31.52c-21.59,0-41,19.85-56.23,57.42C57.24,84.73,50,118,48.5,147.21H69C72.22,87,100.38,21,124.31,21c21,0,53.35,45.88,81.1,87.19V71.89C177.45,32,150.59.52,124.31.52Z"/><path class="cls-2" d="M270.57,0c-30.82,0-51.81,40.77-76.11,88-15,29-31,60.11-49.83,83h25.68c15.88-22.26,29.3-48.29,42.33-73.61,19.46-37.8,39.59-76.89,57.93-76.89,12.91,0,30.52,19.2,44.88,48.92,11.87,24.57,20.15,52.71,23.08,77.33h20.56C352.26,84.53,313.81,0,270.57,0Z"/><path class="cls-1" d="M379,73.28l5.48,3.49A67.7,67.7,0,0,1,365.64,100q-11.4,8.75-22.81,8.74-6.7,0-17.95-3.65l-8.82-3-9-2.89a59.31,59.31,0,0,0-17.65-3.19q-12.17,0-23.72,13.38c-.61.61-1.52,1.57-2.74,2.89l-5.47-3.5q18.39-32.23,42.12-32.24,8.22,0,26.92,6.54,16.74,5.77,24,5.78Q366.41,88.79,379,73.28Z"/></g></g></svg>